<svg width="570" height="326" viewBox="0 0 570 326" fill="none" xmlns="http://www.w3.org/2000/svg">
<path d="M19.1913 9.66152C19.1913 8.33956 19.3834 7.11363 19.7676 5.98375C20.1517 4.84257 20.7054 3.85392 21.4285 3.01781C22.1403 2.18169 23.0103 1.52636 24.0385 1.05181C25.0667 0.565962 26.2248 0.323038 27.5129 0.323038C28.8123 0.323038 29.9761 0.565962 31.0043 1.05181C32.0437 1.52636 32.9251 2.18169 33.6482 3.01781C34.36 3.85392 34.908 4.84257 35.2922 5.98375C35.6763 7.11363 35.8684 8.33956 35.8684 9.66152V10.0344C35.8684 11.3563 35.6763 12.5823 35.2922 13.7121C34.908 14.842 34.36 15.825 33.6482 16.6611C32.9251 17.4973 32.0494 18.1526 31.0212 18.6271C29.993 19.1017 28.8349 19.339 27.5468 19.339C26.2474 19.339 25.078 19.1017 24.0385 18.6271C23.0103 18.1526 22.1403 17.4973 21.4285 16.6611C20.7054 15.825 20.1517 14.842 19.7676 13.7121C19.3834 12.5823 19.1913 11.3563 19.1913 10.0344V9.66152ZM22.3268 10.0344C22.3268 10.9383 22.4341 11.8026 22.6488 12.6275C22.8634 13.441 23.1911 14.1585 23.6318 14.7799C24.0611 15.4013 24.6035 15.8928 25.2588 16.2544C25.9141 16.6159 26.6768 16.7967 27.5468 16.7967C28.4055 16.7967 29.1569 16.6159 29.8009 16.2544C30.4563 15.8928 31.0043 15.4013 31.4449 14.7799C31.8743 14.1585 32.1963 13.441 32.411 12.6275C32.6256 11.8026 32.733 10.9383 32.733 10.0344V9.66152C32.733 8.76891 32.62 7.91585 32.394 7.10233C32.1793 6.27752 31.8573 5.55439 31.428 4.93296C30.9873 4.31152 30.4393 3.82002 29.784 3.45846C29.1399 3.0856 28.3829 2.89917 27.5129 2.89917C26.6429 2.89917 25.8859 3.0856 25.2418 3.45846C24.5978 3.82002 24.0611 4.31152 23.6318 4.93296C23.1911 5.55439 22.8634 6.27752 22.6488 7.10233C22.4341 7.91585 22.3268 8.76891 22.3268 9.66152V10.0344ZM213.771 9.66152C213.771 8.33956 213.963 7.11363 214.347 5.98375C214.731 4.84257 215.285 3.85392 216.008 3.01781C216.72 2.18169 217.59 1.52636 218.618 1.05181C219.646 0.565962 220.804 0.323038 222.092 0.323038C223.392 0.323038 224.555 0.565962 225.584 1.05181C226.623 1.52636 227.504 2.18169 228.228 3.01781C228.939 3.85392 229.487 4.84257 229.872 5.98375C230.256 7.11363 230.448 8.33956 230.448 9.66152V10.0344C230.448 11.3563 230.256 12.5823 229.872 13.7121C229.487 14.842 228.939 15.825 228.228 16.6611C227.504 17.4973 226.629 18.1526 225.601 18.6271C224.572 19.1017 223.414 19.339 222.126 19.339C220.827 19.339 219.657 19.1017 218.618 18.6271C217.59 18.1526 216.72 17.4973 216.008 16.6611C215.285 15.825 214.731 14.842 214.347 13.7121C213.963 12.5823 213.771 11.3563 213.771 10.0344V9.66152ZM216.906 10.0344C216.906 10.9383 217.013 11.8026 217.228 12.6275C217.443 13.441 217.77 14.1585 218.211 14.7799C218.64 15.4013 219.183 15.8928 219.838 16.2544C220.494 16.6159 221.256 16.7967 222.126 16.7967C222.985 16.7967 223.736 16.6159 224.38 16.2544C225.036 15.8928 225.584 15.4013 226.024 14.7799C226.454 14.1585 226.776 13.441 226.99 12.6275C227.205 11.8026 227.312 10.9383 227.312 10.0344V9.66152C227.312 8.76891 227.199 7.91585 226.973 7.10233C226.759 6.27752 226.437 5.55439 226.007 4.93296C225.567 4.31152 225.019 3.82002 224.363 3.45846C223.719 3.0856 222.962 2.89917 222.092 2.89917C221.222 2.89917 220.465 3.0856 219.821 3.45846C219.177 3.82002 218.64 4.31152 218.211 4.93296C217.77 5.55439 217.443 6.27752 217.228 7.10233C217.013 7.91585 216.906 8.76891 216.906 9.66152V10.0344ZM311.06 9.66152C311.06 8.33956 311.252 7.11363 311.637 5.98375C312.021 4.84257 312.574 3.85392 313.298 3.01781C314.009 2.18169 314.879 1.52636 315.908 1.05181C316.936 0.565962 318.094 0.323038 319.382 0.323038C320.681 0.323038 321.845 0.565962 322.873 1.05181C323.913 1.52636 324.794 2.18169 325.517 3.01781C326.229 3.85392 326.777 4.84257 327.161 5.98375C327.545 7.11363 327.737 8.33956 327.737 9.66152V10.0344C327.737 11.3563 327.545 12.5823 327.161 13.7121C326.777 14.842 326.229 15.825 325.517 16.6611C324.794 17.4973 323.918 18.1526 322.89 18.6271C321.862 19.1017 320.704 19.339 319.416 19.339C318.117 19.339 316.947 19.1017 315.908 18.6271C314.879 18.1526 314.009 17.4973 313.298 16.6611C312.574 15.825 312.021 14.842 311.637 13.7121C311.252 12.5823 311.06 11.3563 311.06 10.0344V9.66152ZM314.196 10.0344C314.196 10.9383 314.303 11.8026 314.518 12.6275C314.733 13.441 315.06 14.1585 315.501 14.7799C315.93 15.4013 316.473 15.8928 317.128 16.2544C317.783 16.6159 318.546 16.7967 319.416 16.7967C320.275 16.7967 321.026 16.6159 321.67 16.2544C322.325 15.8928 322.873 15.4013 323.314 14.7799C323.743 14.1585 324.065 13.441 324.28 12.6275C324.495 11.8026 324.602 10.9383 324.602 10.0344V9.66152C324.602 8.76891 324.489 7.91585 324.263 7.10233C324.048 6.27752 323.726 5.55439 323.297 4.93296C322.856 4.31152 322.308 3.82002 321.653 3.45846C321.009 3.0856 320.252 2.89917 319.382 2.89917C318.512 2.89917 317.755 3.0856 317.111 3.45846C316.467 3.82002 315.93 4.31152 315.501 4.93296C315.06 5.55439 314.733 6.27752 314.518 7.10233C314.303 7.91585 314.196 8.76891 314.196 9.66152V10.0344ZM346.619 21.5592H331.078V19H346.619V21.5592ZM366.077 21.5592L350.536 21.5592V19H366.077V21.5592ZM404.993 21.5592H389.451V19H404.993V21.5592ZM424.451 21.5592H408.909V19H424.451V21.5592ZM427.808 9.66152C427.808 8.33956 428 7.11363 428.384 5.98375C428.768 4.84257 429.322 3.85392 430.045 3.01781C430.757 2.18169 431.627 1.52636 432.655 1.05181C433.683 0.565962 434.842 0.323038 436.13 0.323038C437.429 0.323038 438.593 0.565962 439.621 1.05181C440.66 1.52636 441.542 2.18169 442.265 3.01781C442.977 3.85392 443.525 4.84257 443.909 5.98375C444.293 7.11363 444.485 8.33956 444.485 9.66152V10.0344C444.485 11.3563 444.293 12.5823 443.909 13.7121C443.525 14.842 442.977 15.825 442.265 16.6611C441.542 17.4973 440.666 18.1526 439.638 18.6271C438.61 19.1017 437.452 19.339 436.164 19.339C434.864 19.339 433.695 19.1017 432.655 18.6271C431.627 18.1526 430.757 17.4973 430.045 16.6611C429.322 15.825 428.768 14.842 428.384 13.7121C428 12.5823 427.808 11.3563 427.808 10.0344V9.66152ZM430.943 10.0344C430.943 10.9383 431.051 11.8026 431.265 12.6275C431.48 13.441 431.808 14.1585 432.248 14.7799C432.678 15.4013 433.22 15.8928 433.876 16.2544C434.531 16.6159 435.294 16.7967 436.164 16.7967C437.022 16.7967 437.774 16.6159 438.418 16.2544C439.073 15.8928 439.621 15.4013 440.062 14.7799C440.491 14.1585 440.813 13.441 441.028 12.6275C441.242 11.8026 441.35 10.9383 441.35 10.0344V9.66152C441.35 8.76891 441.237 7.91585 441.011 7.10233C440.796 6.27752 440.474 5.55439 440.045 4.93296C439.604 4.31152 439.056 3.82002 438.401 3.45846C437.757 3.0856 437 2.89917 436.13 2.89917C435.26 2.89917 434.503 3.0856 433.859 3.45846C433.215 3.82002 432.678 4.31152 432.248 4.93296C431.808 5.55439 431.48 6.27752 431.265 7.10233C431.051 7.91585 430.943 8.76891 430.943 9.66152V10.0344ZM14.919 53.6781L0.546904 47.2548V44.7803L14.919 38.3739V41.6957L4.54669 45.7633L3.64843 46.0514L4.54669 46.3565L14.919 50.3563V53.6781ZM28.801 63.7454H26.2757V32.3234H28.801V63.7454ZM39.5984 53.6612V50.4071L50.5639 46.2718L51.5808 45.9836L50.5639 45.6616L39.5984 41.594V38.3569L54.5637 44.7634V47.2378L39.5984 53.6612ZM209.498 53.6781L195.126 47.2548V44.7803L209.498 38.3739V41.6957L199.126 45.7633L198.228 46.0514L199.126 46.3565L209.498 50.3563V53.6781ZM223.38 63.7454H220.855V32.3234H223.38V63.7454ZM234.178 53.6612V50.4071L245.143 46.2718L246.16 45.9836L245.143 45.6616L234.178 41.594V38.3569L249.143 44.7634V47.2378L234.178 53.6612ZM306.788 53.6781L292.416 47.2548V44.7803L306.788 38.3739V41.6957L296.416 45.7633L295.518 46.0514L296.416 46.3565L306.788 50.3563V53.6781ZM320.67 63.7454H318.145V32.3234H320.67V63.7454ZM434.943 57L427.401 38.662H430.621L435.875 52.4918L436.164 53.6273L436.469 52.4918L441.604 38.662H444.807L437.333 57H434.943ZM449.113 32.3234H451.944L462.248 59.1185H459.418L449.113 32.3234ZM14.919 91.6781L0.546904 85.2548V82.7803L14.919 76.3739V79.6957L4.54669 83.7633L3.64843 84.0514L4.54669 84.3565L14.919 88.3563V91.6781ZM39.5984 91.6612V88.4071L50.5639 84.2718L51.5808 83.9836L50.5639 83.6616L39.5984 79.594V76.3569L54.5637 82.7634V85.2378L39.5984 91.6612ZM209.498 91.6781L195.126 85.2548V82.7803L209.498 76.3739V79.6957L199.126 83.7633L198.228 84.0514L199.126 84.3565L209.498 88.3563V91.6781ZM234.178 91.6612V88.4071L245.143 84.2718L246.16 83.9836L245.143 83.6616L234.178 79.594V76.3569L249.143 82.7634V85.2378L234.178 91.6612ZM296.619 97.1185H293.806L304.11 70.3234H306.907L296.619 97.1185ZM332.366 70.3234H335.196L345.501 97.1185H342.67L332.366 70.3234ZM462.452 91.6781L448.079 85.2548V82.7803L462.452 76.3739V79.6957L452.079 83.7633L451.181 84.0514L452.079 84.3565L462.452 88.3563V91.6781ZM468.571 70.3234H471.402L481.706 97.1185H478.876L468.571 70.3234ZM28.801 139.745H26.2757L26.2757 108.323H28.801L28.801 139.745ZM223.38 139.745H220.855V108.323H223.38V139.745ZM293.45 108.323H296.28L306.585 135.119H303.754L293.45 108.323ZM311.06 123.662C311.06 122.34 311.252 121.114 311.637 119.984C312.021 118.843 312.574 117.854 313.298 117.018C314.009 116.182 314.879 115.526 315.908 115.052C316.936 114.566 318.094 114.323 319.382 114.323C320.681 114.323 321.845 114.566 322.873 115.052C323.913 115.526 324.794 116.182 325.517 117.018C326.229 117.854 326.777 118.843 327.161 119.984C327.545 121.114 327.737 122.34 327.737 123.662V124.034C327.737 125.356 327.545 126.582 327.161 127.712C326.777 128.842 326.229 129.825 325.517 130.661C324.794 131.497 323.918 132.153 322.89 132.627C321.862 133.102 320.704 133.339 319.416 133.339C318.117 133.339 316.947 133.102 315.908 132.627C314.879 132.153 314.009 131.497 313.298 130.661C312.574 129.825 312.021 128.842 311.637 127.712C311.252 126.582 311.06 125.356 311.06 124.034V123.662ZM314.196 124.034C314.196 124.938 314.303 125.803 314.518 126.627C314.733 127.441 315.06 128.158 315.501 128.78C315.93 129.401 316.473 129.893 317.128 130.254C317.783 130.616 318.546 130.797 319.416 130.797C320.275 130.797 321.026 130.616 321.67 130.254C322.325 129.893 322.873 129.401 323.314 128.78C323.743 128.158 324.065 127.441 324.28 126.627C324.495 125.803 324.602 124.938 324.602 124.034V123.662C324.602 122.769 324.489 121.916 324.263 121.102C324.048 120.278 323.726 119.554 323.297 118.933C322.856 118.312 322.308 117.82 321.653 117.458C321.009 117.086 320.252 116.899 319.382 116.899C318.512 116.899 317.755 117.086 317.111 117.458C316.467 117.82 315.93 118.312 315.501 118.933C315.06 119.554 314.733 120.278 314.518 121.102C314.303 121.916 314.196 122.769 314.196 123.662V124.034ZM335.535 135.119H332.722L343.026 108.323H345.823L335.535 135.119ZM447.266 123.662C447.266 122.34 447.458 121.114 447.842 119.984C448.226 118.843 448.78 117.854 449.503 117.018C450.215 116.182 451.085 115.526 452.113 115.052C453.141 114.566 454.299 114.323 455.588 114.323C456.887 114.323 458.051 114.566 459.079 115.052C460.118 115.526 461 116.182 461.723 117.018C462.435 117.854 462.983 118.843 463.367 119.984C463.751 121.114 463.943 122.34 463.943 123.662V124.034C463.943 125.356 463.751 126.582 463.367 127.712C462.983 128.842 462.435 129.825 461.723 130.661C461 131.497 460.124 132.153 459.096 132.627C458.068 133.102 456.91 133.339 455.621 133.339C454.322 133.339 453.153 133.102 452.113 132.627C451.085 132.153 450.215 131.497 449.503 130.661C448.78 129.825 448.226 128.842 447.842 127.712C447.458 126.582 447.266 125.356 447.266 124.034V123.662ZM450.401 124.034C450.401 124.938 450.509 125.803 450.723 126.627C450.938 127.441 451.266 128.158 451.706 128.78C452.136 129.401 452.678 129.893 453.333 130.254C453.989 130.616 454.751 130.797 455.621 130.797C456.48 130.797 457.232 130.616 457.876 130.254C458.531 129.893 459.079 129.401 459.52 128.78C459.949 128.158 460.271 127.441 460.486 126.627C460.7 125.803 460.808 124.938 460.808 124.034V123.662C460.808 122.769 460.695 121.916 460.469 121.102C460.254 120.278 459.932 119.554 459.503 118.933C459.062 118.312 458.514 117.82 457.859 117.458C457.215 117.086 456.458 116.899 455.588 116.899C454.718 116.899 453.961 117.086 453.316 117.458C452.672 117.82 452.136 118.312 451.706 118.933C451.266 119.554 450.938 120.278 450.723 121.102C450.509 121.916 450.401 122.769 450.401 123.662V124.034ZM471.741 135.119H468.927L479.232 108.323H482.028L471.741 135.119ZM19.1913 161.662C19.1913 160.34 19.3834 159.114 19.7676 157.984C20.1517 156.843 20.7054 155.854 21.4285 155.018C22.1403 154.182 23.0103 153.526 24.0385 153.052C25.0667 152.566 26.2248 152.323 27.5129 152.323C28.8123 152.323 29.9761 152.566 31.0043 153.052C32.0437 153.526 32.9251 154.182 33.6482 155.018C34.36 155.854 34.908 156.843 35.2922 157.984C35.6763 159.114 35.8684 160.34 35.8684 161.662V162.034C35.8684 163.356 35.6763 164.582 35.2922 165.712C34.908 166.842 34.36 167.825 33.6482 168.661C32.9251 169.497 32.0494 170.153 31.0212 170.627C29.993 171.102 28.8349 171.339 27.5468 171.339C26.2474 171.339 25.078 171.102 24.0385 170.627C23.0103 170.153 22.1403 169.497 21.4285 168.661C20.7054 167.825 20.1517 166.842 19.7676 165.712C19.3834 164.582 19.1913 163.356 19.1913 162.034V161.662ZM22.3268 162.034C22.3268 162.938 22.4341 163.803 22.6488 164.627C22.8634 165.441 23.1911 166.158 23.6318 166.78C24.0611 167.401 24.6035 167.893 25.2588 168.254C25.9141 168.616 26.6768 168.797 27.5468 168.797C28.4055 168.797 29.1569 168.616 29.8009 168.254C30.4563 167.893 31.0043 167.401 31.4449 166.78C31.8743 166.158 32.1963 165.441 32.411 164.627C32.6256 163.803 32.733 162.938 32.733 162.034V161.662C32.733 160.769 32.62 159.916 32.394 159.102C32.1793 158.278 31.8573 157.554 31.428 156.933C30.9873 156.312 30.4393 155.82 29.784 155.458C29.1399 155.086 28.3829 154.899 27.5129 154.899C26.6429 154.899 25.8859 155.086 25.2418 155.458C24.5978 155.82 24.0611 156.312 23.6318 156.933C23.1911 157.554 22.8634 158.278 22.6488 159.102C22.4341 159.916 22.3268 160.769 22.3268 161.662V162.034ZM54.7501 173.559H39.2086V171H54.7501V173.559ZM74.208 173.559H58.6665V171H74.208V173.559ZM82.5818 173.119H79.7684L90.0729 146.323H92.8694L82.5818 173.119ZM113.124 173.559H97.5824V171H113.124V173.559ZM152.04 173.559H136.498V171H152.04V173.559ZM157.244 146.323H160.075L170.379 173.119H167.549L157.244 146.323ZM190.956 173.559H175.414V171H190.956V173.559ZM210.414 173.559H194.872V171H210.414V173.559ZM213.771 161.662C213.771 160.34 213.963 159.114 214.347 157.984C214.731 156.843 215.285 155.854 216.008 155.018C216.72 154.182 217.59 153.526 218.618 153.052C219.646 152.566 220.804 152.323 222.092 152.323C223.392 152.323 224.555 152.566 225.584 153.052C226.623 153.526 227.504 154.182 228.228 155.018C228.939 155.854 229.487 156.843 229.872 157.984C230.256 159.114 230.448 160.34 230.448 161.662V162.034C230.448 163.356 230.256 164.582 229.872 165.712C229.487 166.842 228.939 167.825 228.228 168.661C227.504 169.497 226.629 170.153 225.601 170.627C224.572 171.102 223.414 171.339 222.126 171.339C220.827 171.339 219.657 171.102 218.618 170.627C217.59 170.153 216.72 169.497 216.008 168.661C215.285 167.825 214.731 166.842 214.347 165.712C213.963 164.582 213.771 163.356 213.771 162.034V161.662ZM216.906 162.034C216.906 162.938 217.013 163.803 217.228 164.627C217.443 165.441 217.77 166.158 218.211 166.78C218.64 167.401 219.183 167.893 219.838 168.254C220.494 168.616 221.256 168.797 222.126 168.797C222.985 168.797 223.736 168.616 224.38 168.254C225.036 167.893 225.584 167.401 226.024 166.78C226.454 166.158 226.776 165.441 226.99 164.627C227.205 163.803 227.312 162.938 227.312 162.034V161.662C227.312 160.769 227.199 159.916 226.973 159.102C226.759 158.278 226.437 157.554 226.007 156.933C225.567 156.312 225.019 155.82 224.363 155.458C223.719 155.086 222.962 154.899 222.092 154.899C221.222 154.899 220.465 155.086 219.821 155.458C219.177 155.82 218.64 156.312 218.211 156.933C217.77 157.554 217.443 158.278 217.228 159.102C217.013 159.916 216.906 160.769 216.906 161.662V162.034ZM320.67 177.745H318.145V146.323H320.67V177.745ZM346.619 173.559H331.078V171H346.619V173.559ZM366.077 173.559H350.536V171H366.077V173.559ZM424.451 173.559H408.909V171H424.451V173.559ZM442.994 167.678L428.622 161.255V158.78L442.994 152.374V155.696L432.621 159.763L431.723 160.051L432.621 160.357L442.994 164.356V167.678ZM456.876 177.745H454.35V146.323H456.876V177.745ZM28.801 215.745H26.2757V184.323H28.801V215.745ZM223.38 215.745H220.855V184.323H223.38V215.745ZM320.67 215.745H318.145V184.323H320.67V215.745ZM468.571 184.323H471.402L481.706 211.119H478.876L468.571 184.323ZM14.919 243.678L0.546904 237.255V234.78L14.919 228.374V231.696L4.54669 235.763L3.64843 236.051L4.54669 236.357L14.919 240.356V243.678ZM19.1913 237.662C19.1913 236.34 19.3834 235.114 19.7676 233.984C20.1517 232.843 20.7054 231.854 21.4285 231.018C22.1403 230.182 23.0103 229.526 24.0385 229.052C25.0667 228.566 26.2248 228.323 27.5129 228.323C28.8123 228.323 29.9761 228.566 31.0043 229.052C32.0437 229.526 32.9251 230.182 33.6482 231.018C34.36 231.854 34.908 232.843 35.2922 233.984C35.6763 235.114 35.8684 236.34 35.8684 237.662V238.034C35.8684 239.356 35.6763 240.582 35.2922 241.712C34.908 242.842 34.36 243.825 33.6482 244.661C32.9251 245.497 32.0494 246.153 31.0212 246.627C29.993 247.102 28.8349 247.339 27.5468 247.339C26.2474 247.339 25.078 247.102 24.0385 246.627C23.0103 246.153 22.1403 245.497 21.4285 244.661C20.7054 243.825 20.1517 242.842 19.7676 241.712C19.3834 240.582 19.1913 239.356 19.1913 238.034V237.662ZM22.3268 238.034C22.3268 238.938 22.4341 239.803 22.6488 240.627C22.8634 241.441 23.1911 242.158 23.6318 242.78C24.0611 243.401 24.6035 243.893 25.2588 244.254C25.9141 244.616 26.6768 244.797 27.5468 244.797C28.4055 244.797 29.1569 244.616 29.8009 244.254C30.4563 243.893 31.0043 243.401 31.4449 242.78C31.8743 242.158 32.1963 241.441 32.411 240.627C32.6256 239.803 32.733 238.938 32.733 238.034V237.662C32.733 236.769 32.62 235.916 32.394 235.102C32.1793 234.278 31.8573 233.554 31.428 232.933C30.9873 232.312 30.4393 231.82 29.784 231.458C29.1399 231.086 28.3829 230.899 27.5129 230.899C26.6429 230.899 25.8859 231.086 25.2418 231.458C24.5978 231.82 24.0611 232.312 23.6318 232.933C23.1911 233.554 22.8634 234.278 22.6488 235.102C22.4341 235.916 22.3268 236.769 22.3268 237.662V238.034ZM39.5984 243.661V240.407L50.5639 236.272L51.5808 235.984L50.5639 235.662L39.5984 231.594V228.357L54.5637 234.763V237.238L39.5984 243.661ZM209.498 243.678L195.126 237.255V234.78L209.498 228.374V231.696L199.126 235.763L198.228 236.051L199.126 236.357L209.498 240.356V243.678ZM213.771 237.662C213.771 236.34 213.963 235.114 214.347 233.984C214.731 232.843 215.285 231.854 216.008 231.018C216.72 230.182 217.59 229.526 218.618 229.052C219.646 228.566 220.804 228.323 222.092 228.323C223.392 228.323 224.555 228.566 225.584 229.052C226.623 229.526 227.504 230.182 228.228 231.018C228.939 231.854 229.487 232.843 229.872 233.984C230.256 235.114 230.448 236.34 230.448 237.662V238.034C230.448 239.356 230.256 240.582 229.872 241.712C229.487 242.842 228.939 243.825 228.228 244.661C227.504 245.497 226.629 246.153 225.601 246.627C224.572 247.102 223.414 247.339 222.126 247.339C220.827 247.339 219.657 247.102 218.618 246.627C217.59 246.153 216.72 245.497 216.008 244.661C215.285 243.825 214.731 242.842 214.347 241.712C213.963 240.582 213.771 239.356 213.771 238.034V237.662ZM216.906 238.034C216.906 238.938 217.013 239.803 217.228 240.627C217.443 241.441 217.77 242.158 218.211 242.78C218.64 243.401 219.183 243.893 219.838 244.254C220.494 244.616 221.256 244.797 222.126 244.797C222.985 244.797 223.736 244.616 224.38 244.254C225.036 243.893 225.584 243.401 226.024 242.78C226.454 242.158 226.776 241.441 226.99 240.627C227.205 239.803 227.312 238.938 227.312 238.034V237.662C227.312 236.769 227.199 235.916 226.973 235.102C226.759 234.278 226.437 233.554 226.007 232.933C225.567 232.312 225.019 231.82 224.363 231.458C223.719 231.086 222.962 230.899 222.092 230.899C221.222 230.899 220.465 231.086 219.821 231.458C219.177 231.82 218.64 232.312 218.211 232.933C217.77 233.554 217.443 234.278 217.228 235.102C217.013 235.916 216.906 236.769 216.906 237.662V238.034ZM234.178 243.661V240.407L245.143 236.272L246.16 235.984L245.143 235.662L234.178 231.594V228.357L249.143 234.763V237.238L234.178 243.661ZM306.788 243.678L292.416 237.255V234.78L306.788 228.374V231.696L296.416 235.763L295.518 236.051L296.416 236.357L306.788 240.356V243.678ZM311.06 237.662C311.06 236.34 311.252 235.114 311.637 233.984C312.021 232.843 312.574 231.854 313.298 231.018C314.009 230.182 314.879 229.526 315.908 229.052C316.936 228.566 318.094 228.323 319.382 228.323C320.681 228.323 321.845 228.566 322.873 229.052C323.913 229.526 324.794 230.182 325.517 231.018C326.229 231.854 326.777 232.843 327.161 233.984C327.545 235.114 327.737 236.34 327.737 237.662V238.034C327.737 239.356 327.545 240.582 327.161 241.712C326.777 242.842 326.229 243.825 325.517 244.661C324.794 245.497 323.918 246.153 322.89 246.627C321.862 247.102 320.704 247.339 319.416 247.339C318.117 247.339 316.947 247.102 315.908 246.627C314.879 246.153 314.009 245.497 313.298 244.661C312.574 243.825 312.021 242.842 311.637 241.712C311.252 240.582 311.06 239.356 311.06 238.034V237.662ZM314.196 238.034C314.196 238.938 314.303 239.803 314.518 240.627C314.733 241.441 315.06 242.158 315.501 242.78C315.93 243.401 316.473 243.893 317.128 244.254C317.783 244.616 318.546 244.797 319.416 244.797C320.275 244.797 321.026 244.616 321.67 244.254C322.325 243.893 322.873 243.401 323.314 242.78C323.743 242.158 324.065 241.441 324.28 240.627C324.495 239.803 324.602 238.938 324.602 238.034V237.662C324.602 236.769 324.489 235.916 324.263 235.102C324.048 234.278 323.726 233.554 323.297 232.933C322.856 232.312 322.308 231.82 321.653 231.458C321.009 231.086 320.252 230.899 319.382 230.899C318.512 230.899 317.755 231.086 317.111 231.458C316.467 231.82 315.93 232.312 315.501 232.933C315.06 233.554 314.733 234.278 314.518 235.102C314.303 235.916 314.196 236.769 314.196 237.662V238.034ZM331.467 243.661V240.407L342.433 236.272L343.45 235.984L342.433 235.662L331.467 231.594V228.357L346.433 234.763V237.238L331.467 243.661ZM488.029 222.323L490.86 222.323L501.164 249.119H498.334L488.029 222.323ZM505.64 237.662C505.64 236.34 505.832 235.114 506.216 233.984C506.6 232.843 507.154 231.854 507.877 231.018C508.589 230.182 509.459 229.526 510.487 229.052C511.515 228.566 512.673 228.323 513.961 228.323C515.261 228.323 516.424 228.566 517.453 229.052C518.492 229.526 519.373 230.182 520.097 231.018C520.808 231.854 521.356 232.843 521.741 233.984C522.125 235.114 522.317 236.34 522.317 237.662V238.034C522.317 239.356 522.125 240.582 521.741 241.712C521.356 242.842 520.808 243.825 520.097 244.661C519.373 245.497 518.498 246.153 517.47 246.627C516.441 247.102 515.283 247.339 513.995 247.339C512.696 247.339 511.526 247.102 510.487 246.627C509.459 246.153 508.589 245.497 507.877 244.661C507.154 243.825 506.6 242.842 506.216 241.712C505.832 240.582 505.64 239.356 505.64 238.034V237.662ZM508.775 238.034C508.775 238.938 508.883 239.803 509.097 240.627C509.312 241.441 509.64 242.158 510.08 242.78C510.51 243.401 511.052 243.893 511.707 244.254C512.363 244.616 513.125 244.797 513.995 244.797C514.854 244.797 515.605 244.616 516.249 244.254C516.905 243.893 517.453 243.401 517.893 242.78C518.323 242.158 518.645 241.441 518.859 240.627C519.074 239.803 519.181 238.938 519.181 238.034V237.662C519.181 236.769 519.068 235.916 518.842 235.102C518.628 234.278 518.306 233.554 517.876 232.933C517.436 232.312 516.888 231.82 516.232 231.458C515.588 231.086 514.831 230.899 513.961 230.899C513.091 230.899 512.334 231.086 511.69 231.458C511.046 231.82 510.51 232.312 510.08 232.933C509.64 233.554 509.312 234.278 509.097 235.102C508.883 235.916 508.775 236.769 508.775 237.662V238.034ZM28.801 291.745H26.2757V260.323H28.801V291.745ZM223.38 291.745H220.855V260.323H223.38V291.745ZM320.67 291.745H318.145V260.323H320.67V291.745ZM512.775 285L505.233 266.662H508.453L513.707 280.492L513.995 281.627L514.3 280.492L519.436 266.662H522.639L515.165 285H512.775ZM526.945 260.323H529.775L540.08 287.119H537.25L526.945 260.323ZM14.479 325.119H11.6656L21.9702 298.323H24.7666L14.479 325.119ZM50.2256 298.323H53.0559L63.3605 325.119H60.5301L50.2256 298.323ZM209.058 325.119H206.245L216.55 298.323H219.346L209.058 325.119ZM244.805 298.323H247.635L257.94 325.119H255.11L244.805 298.323ZM306.348 325.119H303.535L313.839 298.323H316.636L306.348 325.119ZM342.095 298.323H344.925L355.23 325.119H352.399L342.095 298.323ZM550.012 319.678L535.64 313.255V310.78L550.012 304.374V307.696L539.64 311.763L538.742 312.051L539.64 312.357L550.012 316.356V319.678ZM556.132 298.323H558.962L569.267 325.119H566.436L556.132 298.323Z" fill="white"/>
</svg>
