<svg width="675" height="517" viewBox="0 0 675 517" fill="none" xmlns="http://www.w3.org/2000/svg">
<g clip-path="url(#clip0_7053_3229)">
<path d="M71.5831 298.072H57.0485V295.678H71.5831V298.072ZM89.7803 298.072H75.2457V295.678H89.7803V298.072ZM107.978 298.072H93.443V295.678H107.978V298.072ZM126.175 298.072H111.64V295.678H126.175V298.072ZM199.217 272.6L199.249 288.229C199.249 289.306 199.059 290.316 198.678 291.256C198.298 292.196 197.775 293.015 197.109 293.713C196.444 294.421 195.651 294.981 194.732 295.393C193.812 295.794 192.803 295.995 191.704 295.995C190.584 295.995 189.565 295.794 188.645 295.393C187.726 294.991 186.939 294.437 186.284 293.729C185.628 293.031 185.116 292.212 184.746 291.272C184.376 290.321 184.186 289.306 184.176 288.229L184.207 272.6H186.997L187.06 288.229C187.071 288.915 187.177 289.576 187.377 290.21C187.589 290.844 187.89 291.404 188.281 291.89C188.661 292.376 189.137 292.767 189.707 293.063C190.288 293.359 190.954 293.507 191.704 293.507C192.455 293.507 193.115 293.364 193.686 293.079C194.256 292.783 194.737 292.387 195.128 291.89C195.508 291.404 195.799 290.844 196 290.21C196.201 289.576 196.311 288.915 196.333 288.229L196.38 272.6H199.217ZM253.555 298.072H239.021V295.678H253.555V298.072ZM271.753 298.072H257.218V295.678H271.753V298.072ZM289.95 298.072H275.415V295.678H289.95V298.072ZM323.412 295.678L323.238 293.317C322.667 294.162 321.954 294.822 321.098 295.298C320.242 295.763 319.254 295.995 318.134 295.995C317.236 295.995 316.422 295.858 315.693 295.583C314.964 295.298 314.341 294.859 313.823 294.268C313.305 293.676 312.903 292.926 312.618 292.017C312.343 291.098 312.206 289.999 312.206 288.72V278.528H315.138V288.752C315.138 289.682 315.212 290.453 315.36 291.066C315.508 291.679 315.73 292.165 316.026 292.524C316.322 292.894 316.681 293.153 317.104 293.301C317.537 293.449 318.034 293.523 318.594 293.523C319.249 293.523 319.835 293.449 320.353 293.301C320.871 293.142 321.32 292.926 321.7 292.651C322.017 292.429 322.292 292.165 322.524 291.858C322.768 291.541 322.968 291.198 323.127 290.828V278.528H326.075V295.678H323.412ZM380.936 298.072H366.402V295.678H380.936V298.072ZM453.725 298.072H439.19V295.678H453.725V298.072ZM562.908 298.072H548.374V295.678H562.908V298.072ZM581.106 298.072H566.571V295.678H581.106V298.072ZM599.303 298.072H584.768V295.678H599.303V298.072ZM617.5 298.072H602.966V295.678H617.5V298.072ZM635.697 298.072H621.163V295.678H635.697V298.072ZM17.245 308.6L17.2767 324.229C17.2767 325.306 17.0865 326.316 16.7061 327.256C16.3257 328.196 15.8026 329.015 15.1369 329.713C14.4712 330.421 13.6787 330.981 12.7594 331.393C11.8401 331.794 10.8309 331.995 9.73199 331.995C8.61191 331.995 7.59222 331.794 6.67291 331.393C5.7536 330.991 4.96638 330.437 4.31124 329.729C3.6561 329.031 3.14361 328.212 2.77378 327.272C2.40394 326.321 2.21374 325.306 2.20317 324.229L2.23487 308.6H5.0245L5.0879 324.229C5.09846 324.915 5.20413 325.576 5.4049 326.21C5.61624 326.844 5.91739 327.404 6.30836 327.89C6.68876 328.376 7.16427 328.767 7.73487 329.063C8.31604 329.359 8.98175 329.507 9.73199 329.507C10.4822 329.507 11.1427 329.364 11.7133 329.079C12.2839 328.783 12.7647 328.387 13.1556 327.89C13.536 327.404 13.8266 326.844 14.0274 326.21C14.2281 325.576 14.3391 324.915 14.3602 324.229L14.4078 308.6H17.245ZM43.0198 333.659H40.3887L50.0256 308.6H52.6409L43.0198 333.659ZM62.596 309.06L62.2632 314.925H60.2027L60.2185 309.314V307.332H62.596V309.06ZM68.2545 309.06L67.9217 314.925H65.877L65.8929 309.314V307.332H68.2704L68.2545 309.06ZM89.7803 334.072H75.2457V331.678H89.7803V334.072ZM107.978 334.072H93.443V331.678H107.978V334.072ZM126.175 334.072H111.64V331.678H126.175V334.072ZM138.301 337.987H135.94V308.6H138.301V337.987ZM203.831 308.6H206.478L216.115 333.659H213.468L203.831 308.6ZM224.992 333.659H222.361L231.998 308.6H234.613L224.992 333.659ZM244.568 309.06L244.236 314.925H242.175L242.191 309.314V307.332H244.568V309.06ZM250.227 309.06L249.894 314.925H247.849L247.865 309.314V307.332H250.243L250.227 309.06ZM271.753 334.072H257.218V331.678H271.753V334.072ZM294.817 308.6H297.464L307.101 333.659H304.454L294.817 308.6ZM315.978 333.659H313.347L322.984 308.6H325.599L315.978 333.659ZM356.668 337.987H354.307V308.6H356.668V337.987ZM385.803 308.6H388.45L398.087 333.659H395.44L385.803 308.6ZM429.457 337.987H427.096V308.6H429.457V337.987ZM444.738 309.06L444.405 314.925H442.345L442.361 309.314V307.332H444.738V309.06ZM450.397 309.06L450.064 314.925H448.019L448.035 309.314V307.332H450.412L450.397 309.06ZM465.852 337.987H463.49V308.6H465.852V337.987ZM538.641 337.987H536.279V308.6H538.641V337.987ZM553.921 309.06L553.589 314.925H551.528L551.544 309.314V307.332H553.921V309.06ZM559.58 309.06L559.247 314.925H557.202L557.218 309.314V307.332H559.596L559.58 309.06ZM599.303 334.072H584.768V331.678H599.303V334.072ZM617.5 334.072H602.966V331.678H617.5V334.072ZM635.697 334.072H621.163V331.678H635.697V334.072ZM647.824 337.987H645.462V308.6H647.824V337.987ZM3.66138 344.6H6.30836L15.9452 369.659H13.2983L3.66138 344.6ZM29.118 373.987H26.7563V344.6H29.118V373.987ZM65.5125 373.987H63.1508V344.6H65.5125V373.987ZM105.045 367.678L104.871 365.317C104.3 366.162 103.587 366.822 102.731 367.298C101.875 367.763 100.887 367.995 99.7672 367.995C98.869 367.995 98.0554 367.858 97.3262 367.583C96.5971 367.298 95.9737 366.859 95.4559 366.268C94.9382 365.676 94.5366 364.926 94.2513 364.017C93.9766 363.098 93.8392 361.999 93.8392 360.72V350.528H96.7715V360.752C96.7715 361.682 96.8455 362.453 96.9934 363.066C97.1413 363.679 97.3632 364.165 97.6591 364.524C97.955 364.894 98.3142 365.153 98.7369 365.301C99.1702 365.449 99.6668 365.523 100.227 365.523C100.882 365.523 101.468 365.449 101.986 365.301C102.504 365.142 102.953 364.926 103.333 364.651C103.65 364.429 103.925 364.165 104.158 363.858C104.401 363.541 104.601 363.198 104.76 362.828V350.528H107.708V367.678H105.045ZM211.09 373.987H208.729V344.6H211.09V373.987ZM247.485 373.987H245.123V344.6H247.485V373.987ZM283.879 373.987H281.518V344.6H283.879V373.987ZM320.274 373.987H317.912V344.6H320.274V373.987ZM343.686 364.572L330.245 358.564V356.25L343.686 350.259V353.366L333.985 357.17L333.145 357.439L333.985 357.724L343.686 361.465V364.572ZM356.668 373.987H354.307V344.6H356.668V373.987ZM404.001 344.6H406.648L416.284 369.659H413.638L404.001 344.6ZM429.457 373.987H427.096V344.6H429.457V373.987ZM465.852 373.987H463.49V344.6H465.852V373.987ZM475.95 364.556V361.513L486.205 357.645L487.156 357.376L486.205 357.074L475.95 353.27V350.243L489.945 356.234V358.549L475.95 364.556ZM526.768 344.6L526.799 360.229C526.799 361.306 526.609 362.316 526.229 363.256C525.848 364.196 525.325 365.015 524.66 365.713C523.994 366.421 523.201 366.981 522.282 367.393C521.363 367.794 520.354 367.995 519.255 367.995C518.135 367.995 517.115 367.794 516.196 367.393C515.276 366.991 514.489 366.437 513.834 365.729C513.179 365.031 512.666 364.212 512.296 363.272C511.927 362.321 511.736 361.306 511.726 360.229L511.758 344.6H514.547L514.611 360.229C514.621 360.915 514.727 361.576 514.928 362.21C515.139 362.844 515.44 363.404 515.831 363.89C516.211 364.376 516.687 364.767 517.258 365.063C517.839 365.359 518.504 365.507 519.255 365.507C520.005 365.507 520.665 365.364 521.236 365.079C521.807 364.783 522.287 364.387 522.678 363.89C523.059 363.404 523.349 362.844 523.55 362.21C523.751 361.576 523.862 360.915 523.883 360.229L523.93 344.6H526.768ZM538.641 373.987H536.279V344.6H538.641V373.987ZM575.035 373.987H572.673V344.6H575.035V373.987ZM599.303 370.072H584.768V367.678H599.303V370.072ZM650.962 367.678L650.788 365.317C650.217 366.162 649.504 366.822 648.648 367.298C647.792 367.763 646.804 367.995 645.684 367.995C644.786 367.995 643.972 367.858 643.243 367.583C642.514 367.298 641.891 366.859 641.373 366.268C640.855 365.676 640.454 364.926 640.168 364.017C639.894 363.098 639.756 361.999 639.756 360.72V350.528H642.689V360.752C642.689 361.682 642.763 362.453 642.911 363.066C643.058 363.679 643.28 364.165 643.576 364.524C643.872 364.894 644.231 365.153 644.654 365.301C645.087 365.449 645.584 365.523 646.144 365.523C646.799 365.523 647.386 365.449 647.903 365.301C648.421 365.142 648.87 364.926 649.251 364.651C649.568 364.429 649.842 364.165 650.075 363.858C650.318 363.541 650.519 363.198 650.677 362.828V350.528H653.625V367.678H650.962ZM29.118 409.987H26.7563V380.6H29.118V409.987ZM65.5125 409.987H63.1508L63.1508 380.6H65.5125V409.987ZM79.4143 405.659H76.7832L86.4201 380.6H89.0353L79.4143 405.659ZM107.978 406.072H93.443V403.678H107.978V406.072ZM126.175 406.072H111.64V403.678H126.175V406.072ZM135.242 401.776C135.242 401.153 135.433 400.619 135.813 400.175C136.193 399.732 136.769 399.51 137.541 399.51C138.301 399.51 138.877 399.732 139.268 400.175C139.67 400.609 139.871 401.142 139.871 401.776C139.871 402.4 139.67 402.923 139.268 403.345C138.867 403.768 138.291 403.979 137.541 403.979C136.78 403.979 136.204 403.768 135.813 403.345C135.433 402.912 135.242 402.389 135.242 401.776ZM161.159 394.786H149.033V392.377H161.159V394.786ZM173.967 402.997C173.967 404.053 173.718 405.131 173.222 406.23C172.725 407.329 172.054 408.254 171.209 409.004L169.386 408.005C169.893 407.266 170.253 406.478 170.464 405.644C170.675 404.809 170.781 403.942 170.781 403.044V400.207H173.967V402.997ZM198.964 406.072H184.429V403.678H198.964V406.072ZM211.09 409.987H208.729V380.6H211.09V409.987ZM247.485 409.987H245.123V380.6H247.485V409.987ZM271.753 406.072H257.218V403.678H271.753V406.072ZM283.879 409.987H281.518V380.6H283.879V409.987ZM320.274 409.987H317.912V380.6H320.274V409.987ZM344.795 380.6L344.827 396.229C344.827 397.306 344.637 398.316 344.256 399.256C343.876 400.196 343.353 401.015 342.687 401.713C342.021 402.421 341.229 402.981 340.31 403.393C339.39 403.794 338.381 403.995 337.282 403.995C336.162 403.995 335.143 403.794 334.223 403.393C333.304 402.991 332.517 402.437 331.862 401.729C331.206 401.031 330.694 400.212 330.324 399.272C329.954 398.321 329.764 397.306 329.753 396.229L329.785 380.6H332.575L332.638 396.229C332.649 396.915 332.754 397.576 332.955 398.21C333.167 398.844 333.468 399.404 333.859 399.89C334.239 400.376 334.715 400.767 335.285 401.063C335.866 401.359 336.532 401.507 337.282 401.507C338.033 401.507 338.693 401.364 339.264 401.079C339.834 400.783 340.315 400.387 340.706 399.89C341.086 399.404 341.377 398.844 341.578 398.21C341.778 397.576 341.889 396.915 341.911 396.229L341.958 380.6H344.795ZM356.668 409.987H354.307V380.6H356.668V409.987ZM393.063 409.987H390.701V380.6H393.063V409.987ZM404.001 380.6H406.648L416.284 405.659H413.638L404.001 380.6ZM465.852 409.987H463.49V380.6H465.852V409.987ZM487.187 403.678L487.013 401.317C486.442 402.162 485.729 402.822 484.873 403.298C484.017 403.763 483.029 403.995 481.909 403.995C481.011 403.995 480.197 403.858 479.468 403.583C478.739 403.298 478.116 402.859 477.598 402.268C477.08 401.676 476.679 400.926 476.393 400.017C476.119 399.098 475.981 397.999 475.981 396.72V386.528H478.913V396.752C478.913 397.682 478.987 398.453 479.135 399.066C479.283 399.679 479.505 400.165 479.801 400.524C480.097 400.894 480.456 401.153 480.879 401.301C481.312 401.449 481.809 401.523 482.369 401.523C483.024 401.523 483.61 401.449 484.128 401.301C484.646 401.142 485.095 400.926 485.475 400.651C485.792 400.429 486.067 400.165 486.3 399.858C486.543 399.541 486.743 399.198 486.902 398.828V386.528H489.85V403.678H487.187ZM513.184 380.6H515.831L525.468 405.659H522.821L513.184 380.6ZM538.641 409.987H536.279V380.6H538.641V409.987ZM599.303 406.072H584.768V403.678H599.303V406.072ZM611.43 409.987H609.068V380.6H611.43V409.987ZM625.331 405.659H622.7L632.337 380.6H634.952L625.331 405.659ZM40.0559 416.6H42.7028L52.3397 441.659H49.6927L40.0559 416.6ZM71.5831 442.072H57.0485V439.678H71.5831V442.072ZM89.7803 442.072H75.2457V439.678H89.7803V442.072ZM107.978 442.072H93.443V439.678H107.978V442.072ZM126.175 442.072H111.64V439.678H126.175V442.072ZM138.301 445.987H135.94V416.6H138.301V445.987ZM149.239 416.6H151.886L161.523 441.659H158.876L149.239 416.6ZM180.767 442.072H166.232V439.678H180.767V442.072ZM195.429 430.469C195.429 431.98 195.308 433.402 195.065 434.733C194.832 436.064 194.515 437.295 194.114 438.426C193.712 439.567 193.247 440.603 192.719 441.533C192.201 442.473 191.657 443.308 191.086 444.037C190.505 444.777 189.919 445.4 189.327 445.907C188.746 446.425 188.191 446.832 187.663 447.128L187.044 445.337C187.488 445.009 187.937 444.586 188.392 444.069C188.846 443.551 189.279 442.954 189.691 442.278C190.082 441.591 190.457 440.814 190.817 439.948C191.187 439.092 191.488 438.151 191.72 437.126C191.963 436.175 192.148 435.15 192.275 434.051C192.412 432.942 192.481 431.758 192.481 430.501V430.279C192.481 428.853 192.391 427.558 192.212 426.396C192.043 425.233 191.852 424.245 191.641 423.432C191.335 422.269 190.965 421.229 190.531 420.309C190.098 419.379 189.654 418.571 189.2 417.884C188.851 417.345 188.492 416.875 188.122 416.474C187.752 416.062 187.393 415.713 187.044 415.427L187.663 413.636C188.191 413.932 188.751 414.339 189.343 414.857C189.934 415.375 190.516 415.998 191.086 416.727C191.678 417.477 192.233 418.312 192.75 419.232C193.268 420.151 193.723 421.186 194.114 422.338C194.494 423.448 194.806 424.652 195.049 425.952C195.302 427.241 195.429 428.694 195.429 430.311V430.469ZM215.75 430.786H203.625V428.377H215.75V430.786ZM222.028 416.6H224.675L234.312 441.659H231.665L222.028 416.6ZM253.555 442.072H239.021V439.678H253.555V442.072ZM271.753 442.072H257.218V439.678H271.753V442.072ZM289.95 442.072H275.415V439.678H289.95V442.072ZM297.781 441.659H295.15L304.787 416.6H307.402L297.781 441.659ZM356.668 445.987H354.307V416.6H356.668V445.987ZM380.936 442.072H366.402V439.678H380.936V442.072ZM393.063 445.987H390.701V416.6H393.063V445.987ZM422.198 416.6H424.845L434.482 441.659H431.835L422.198 416.6ZM453.725 442.072H439.19V439.678H453.725V442.072ZM465.852 445.987H463.49V416.6H465.852V445.987ZM538.641 445.987H536.279V416.6H538.641V445.987ZM562.908 442.072H548.374V439.678H562.908V442.072ZM575.035 445.987H572.673V416.6H575.035V445.987ZM35.1886 478.072H20.654V475.678H35.1886V478.072ZM43.0198 477.659H40.3887L50.0256 452.6H52.6409L43.0198 477.659ZM61.2171 477.659H58.586L68.2228 452.6H70.8381L61.2171 477.659ZM94.6476 452.6H97.2945L106.931 477.659H104.284L94.6476 452.6ZM112.845 452.6H115.492L125.129 477.659H122.482L112.845 452.6ZM240.225 452.6H242.872L252.509 477.659H249.862L240.225 452.6ZM258.423 452.6H261.07L270.707 477.659H268.06L258.423 452.6ZM356.668 481.987H354.307V452.6H356.668V481.987ZM374.866 481.987H372.504V452.6H374.866V481.987ZM440.395 452.6H443.042L452.679 477.659H450.032L440.395 452.6ZM458.592 452.6H461.239L470.876 477.659H468.229L458.592 452.6ZM483.32 474.997C483.32 476.053 483.071 477.131 482.575 478.23C482.078 479.329 481.407 480.254 480.562 481.004L478.739 480.005C479.246 479.266 479.606 478.478 479.817 477.644C480.028 476.809 480.134 475.942 480.134 475.044V472.207H483.32V474.997ZM506.906 466.786H494.781V464.377H506.906V466.786ZM517.384 473.776C517.384 473.153 517.575 472.619 517.955 472.175C518.335 471.732 518.911 471.51 519.683 471.51C520.443 471.51 521.019 471.732 521.41 472.175C521.812 472.609 522.013 473.142 522.013 473.776C522.013 474.4 521.812 474.923 521.41 475.345C521.009 475.768 520.433 475.979 519.683 475.979C518.922 475.979 518.346 475.768 517.955 475.345C517.575 474.912 517.384 474.389 517.384 473.776ZM541.177 466.469C541.177 467.98 541.055 469.402 540.812 470.733C540.58 472.064 540.263 473.295 539.861 474.426C539.46 475.567 538.995 476.603 538.466 477.533C537.949 478.473 537.404 479.308 536.834 480.037C536.253 480.777 535.666 481.4 535.074 481.907C534.493 482.425 533.938 482.832 533.41 483.128L532.792 481.337C533.236 481.009 533.685 480.586 534.139 480.069C534.594 479.551 535.027 478.954 535.439 478.278C535.83 477.591 536.205 476.814 536.564 475.948C536.934 475.092 537.235 474.151 537.468 473.126C537.711 472.175 537.896 471.15 538.023 470.051C538.16 468.942 538.229 467.758 538.229 466.501V466.279C538.229 464.853 538.139 463.558 537.959 462.396C537.79 461.233 537.6 460.245 537.388 459.432C537.082 458.269 536.712 457.229 536.279 456.309C535.846 455.379 535.402 454.571 534.948 453.884C534.599 453.345 534.24 452.875 533.87 452.474C533.5 452.062 533.141 451.713 532.792 451.427L533.41 449.636C533.938 449.932 534.498 450.339 535.09 450.857C535.682 451.375 536.263 451.998 536.834 452.727C537.425 453.477 537.98 454.312 538.498 455.232C539.016 456.151 539.47 457.186 539.861 458.338C540.242 459.448 540.553 460.652 540.796 461.952C541.05 463.241 541.177 464.694 541.177 466.311V466.469ZM551.576 466.311C551.576 464.8 551.692 463.379 551.924 462.047C552.167 460.716 552.49 459.479 552.891 458.338C553.293 457.208 553.752 456.172 554.27 455.232C554.798 454.291 555.353 453.456 555.934 452.727C556.505 451.998 557.081 451.375 557.662 450.857C558.243 450.339 558.798 449.932 559.326 449.636L559.944 451.57C559.606 451.824 559.263 452.13 558.914 452.489C558.576 452.849 558.243 453.25 557.916 453.694C557.43 454.381 556.965 455.189 556.521 456.119C556.077 457.038 555.707 458.048 555.411 459.147C555.126 460.14 554.904 461.233 554.746 462.427C554.587 463.622 554.508 464.905 554.508 466.279V466.501C554.508 467.822 554.582 469.058 554.73 470.21C554.878 471.362 555.078 472.424 555.332 473.396C555.607 474.379 555.924 475.287 556.283 476.122C556.642 476.967 557.018 477.723 557.408 478.389C557.81 479.023 558.222 479.583 558.645 480.069C559.078 480.565 559.511 480.988 559.944 481.337L559.326 483.128C558.798 482.832 558.238 482.425 557.646 481.907C557.065 481.4 556.489 480.777 555.919 480.037C555.337 479.308 554.783 478.473 554.254 477.533C553.737 476.603 553.282 475.567 552.891 474.426C552.49 473.295 552.167 472.064 551.924 470.733C551.692 469.402 551.576 467.98 551.576 466.469V466.311ZM567.776 452.6H570.423L580.06 477.659H577.413L567.776 452.6ZM585.973 452.6H588.62L598.257 477.659H595.61L585.973 452.6ZM610.7 474.997C610.7 476.053 610.452 477.131 609.956 478.23C609.459 479.329 608.788 480.254 607.943 481.004L606.12 480.005C606.627 479.266 606.986 478.478 607.198 477.644C607.409 476.809 607.515 475.942 607.515 475.044V472.207H610.7V474.997ZM634.287 466.786H622.161V464.377H634.287V466.786ZM5.6585 502.311C5.6585 500.8 5.77474 499.379 6.00721 498.047C6.25024 496.716 6.57253 495.479 6.97406 494.338C7.3756 493.208 7.83526 492.172 8.35303 491.232C8.88137 490.291 9.43612 489.456 10.0173 488.727C10.5879 487.998 11.1638 487.375 11.745 486.857C12.3261 486.339 12.8809 485.932 13.4092 485.636L14.0274 487.57C13.6892 487.824 13.3458 488.13 12.9971 488.489C12.659 488.849 12.3261 489.25 11.9986 489.694C11.5125 490.381 11.0476 491.189 10.6037 492.119C10.1599 493.038 9.79011 494.048 9.49424 495.147C9.20894 496.14 8.98703 497.233 8.82853 498.427C8.67003 499.622 8.59078 500.905 8.59078 502.279V502.501C8.59078 503.822 8.66475 505.058 8.81268 506.21C8.96062 507.362 9.16139 508.424 9.41499 509.396C9.68972 510.379 10.0067 511.287 10.366 512.122C10.7253 512.967 11.1004 513.723 11.4914 514.389C11.8929 515.023 12.305 515.583 12.7277 516.069C13.1609 516.565 13.5941 516.988 14.0274 517.337L13.4092 519.128C12.8809 518.832 12.3208 518.425 11.7291 517.907C11.1479 517.4 10.572 516.777 10.0014 516.037C9.42027 515.308 8.86552 514.473 8.33718 513.533C7.81941 512.603 7.36504 511.567 6.97406 510.426C6.57253 509.295 6.25024 508.064 6.00721 506.733C5.77474 505.402 5.6585 503.98 5.6585 502.469V502.311ZM35.1886 514.072H20.654V511.678H35.1886V514.072ZM53.3858 514.072H38.8512V511.678H53.3858V514.072ZM68.0485 502.469C68.0485 503.98 67.927 505.402 67.6839 506.733C67.4515 508.064 67.1345 509.295 66.7329 510.426C66.3314 511.567 65.8665 512.603 65.3381 513.533C64.8203 514.473 64.2762 515.308 63.7055 516.037C63.1244 516.777 62.5379 517.4 61.9462 517.907C61.365 518.425 60.8103 518.832 60.2819 519.128L59.6638 517.337C60.1076 517.009 60.5567 516.586 61.011 516.069C61.4654 515.551 61.8986 514.954 62.3107 514.278C62.7017 513.591 63.0768 512.814 63.4361 511.948C63.8059 511.092 64.1071 510.151 64.3396 509.126C64.5826 508.175 64.7675 507.15 64.8943 506.051C65.0317 504.942 65.1004 503.758 65.1004 502.501V502.279C65.1004 500.853 65.0105 499.558 64.8309 498.396C64.6618 497.233 64.4716 496.245 64.2603 495.432C63.9539 494.269 63.584 493.229 63.1508 492.309C62.7176 491.379 62.2738 490.571 61.8194 489.884C61.4707 489.345 61.1114 488.875 60.7416 488.474C60.3717 488.062 60.0125 487.713 59.6638 487.427L60.2819 485.636C60.8103 485.932 61.3703 486.339 61.962 486.857C62.5538 487.375 63.1349 487.998 63.7055 488.727C64.2973 489.477 64.852 490.312 65.3698 491.232C65.8876 492.151 66.342 493.186 66.7329 494.338C67.1133 495.448 67.425 496.652 67.6681 497.952C67.9217 499.241 68.0485 500.694 68.0485 502.311V502.469ZM78.4475 502.311C78.4475 500.8 78.5637 499.379 78.7962 498.047C79.0392 496.716 79.3615 495.479 79.763 494.338C80.1645 493.208 80.6242 492.172 81.142 491.232C81.6703 490.291 82.2251 489.456 82.8062 488.727C83.3768 487.998 83.9527 487.375 84.5339 486.857C85.1151 486.339 85.6698 485.932 86.1982 485.636L86.8163 487.57C86.4782 487.824 86.1348 488.13 85.7861 488.489C85.4479 488.849 85.1151 489.25 84.7875 489.694C84.3014 490.381 83.8365 491.189 83.3927 492.119C82.9489 493.038 82.5791 494.048 82.2832 495.147C81.9979 496.14 81.776 497.233 81.6175 498.427C81.459 499.622 81.3797 500.905 81.3797 502.279V502.501C81.3797 503.822 81.4537 505.058 81.6016 506.21C81.7496 507.362 81.9503 508.424 82.2039 509.396C82.4787 510.379 82.7957 511.287 83.1549 512.122C83.5142 512.967 83.8893 513.723 84.2803 514.389C84.6818 515.023 85.0939 515.583 85.5166 516.069C85.9499 516.565 86.3831 516.988 86.8163 517.337L86.1982 519.128C85.6698 518.832 85.1098 518.425 84.5181 517.907C83.9369 517.4 83.361 516.777 82.7904 516.037C82.2092 515.308 81.6545 514.473 81.1261 513.533C80.6084 512.603 80.154 511.567 79.763 510.426C79.3615 509.295 79.0392 508.064 78.7962 506.733C78.5637 505.402 78.4475 503.98 78.4475 502.469V502.311ZM107.978 514.072H93.443V511.678H107.978V514.072ZM126.175 514.072H111.64V511.678H126.175V514.072ZM140.837 502.469C140.837 503.98 140.716 505.402 140.473 506.733C140.24 508.064 139.923 509.295 139.522 510.426C139.12 511.567 138.655 512.603 138.127 513.533C137.609 514.473 137.065 515.308 136.494 516.037C135.913 516.777 135.327 517.4 134.735 517.907C134.154 518.425 133.599 518.832 133.071 519.128L132.453 517.337C132.897 517.009 133.346 516.586 133.8 516.069C134.254 515.551 134.688 514.954 135.1 514.278C135.491 513.591 135.866 512.814 136.225 511.948C136.595 511.092 136.896 510.151 137.129 509.126C137.372 508.175 137.556 507.15 137.683 506.051C137.821 504.942 137.889 503.758 137.889 502.501V502.279C137.889 500.853 137.799 499.558 137.62 498.396C137.451 497.233 137.261 496.245 137.049 495.432C136.743 494.269 136.373 493.229 135.94 492.309C135.507 491.379 135.063 490.571 134.608 489.884C134.26 489.345 133.9 488.875 133.531 488.474C133.161 488.062 132.801 487.713 132.453 487.427L133.071 485.636C133.599 485.932 134.159 486.339 134.751 486.857C135.343 487.375 135.924 487.998 136.494 488.727C137.086 489.477 137.641 490.312 138.159 491.232C138.677 492.151 139.131 493.186 139.522 494.338C139.902 495.448 140.214 496.652 140.457 497.952C140.711 499.241 140.837 500.694 140.837 502.311V502.469ZM224.025 502.311C224.025 500.8 224.142 499.379 224.374 498.047C224.617 496.716 224.939 495.479 225.341 494.338C225.742 493.208 226.202 492.172 226.72 491.232C227.248 490.291 227.803 489.456 228.384 488.727C228.955 487.998 229.531 487.375 230.112 486.857C230.693 486.339 231.248 485.932 231.776 485.636L232.394 487.57C232.056 487.824 231.713 488.13 231.364 488.489C231.026 488.849 230.693 489.25 230.365 489.694C229.879 490.381 229.414 491.189 228.971 492.119C228.527 493.038 228.157 494.048 227.861 495.147C227.576 496.14 227.354 497.233 227.195 498.427C227.037 499.622 226.958 500.905 226.958 502.279V502.501C226.958 503.822 227.032 505.058 227.18 506.21C227.327 507.362 227.528 508.424 227.782 509.396C228.057 510.379 228.374 511.287 228.733 512.122C229.092 512.967 229.467 513.723 229.858 514.389C230.26 515.023 230.672 515.583 231.095 516.069C231.528 516.565 231.961 516.988 232.394 517.337L231.776 519.128C231.248 518.832 230.688 518.425 230.096 517.907C229.515 517.4 228.939 516.777 228.368 516.037C227.787 515.308 227.232 514.473 226.704 513.533C226.186 512.603 225.732 511.567 225.341 510.426C224.939 509.295 224.617 508.064 224.374 506.733C224.142 505.402 224.025 503.98 224.025 502.469V502.311ZM253.555 514.072H239.021V511.678H253.555V514.072ZM271.753 514.072H257.218V511.678H271.753V514.072ZM286.415 502.469C286.415 503.98 286.294 505.402 286.051 506.733C285.818 508.064 285.501 509.295 285.1 510.426C284.698 511.567 284.233 512.603 283.705 513.533C283.187 514.473 282.643 515.308 282.072 516.037C281.491 516.777 280.905 517.4 280.313 517.907C279.732 518.425 279.177 518.832 278.649 519.128L278.031 517.337C278.474 517.009 278.923 516.586 279.378 516.069C279.832 515.551 280.265 514.954 280.678 514.278C281.069 513.591 281.444 512.814 281.803 511.948C282.173 511.092 282.474 510.151 282.706 509.126C282.949 508.175 283.134 507.15 283.261 506.051C283.399 504.942 283.467 503.758 283.467 502.501V502.279C283.467 500.853 283.377 499.558 283.198 498.396C283.029 497.233 282.838 496.245 282.627 495.432C282.321 494.269 281.951 493.229 281.518 492.309C281.084 491.379 280.641 490.571 280.186 489.884C279.838 489.345 279.478 488.875 279.108 488.474C278.739 488.062 278.379 487.713 278.031 487.427L278.649 485.636C279.177 485.932 279.737 486.339 280.329 486.857C280.921 487.375 281.502 487.998 282.072 488.727C282.664 489.477 283.219 490.312 283.737 491.232C284.254 492.151 284.709 493.186 285.1 494.338C285.48 495.448 285.792 496.652 286.035 497.952C286.289 499.241 286.415 500.694 286.415 502.311V502.469ZM351.406 502.311C351.406 500.8 351.522 499.379 351.755 498.047C351.998 496.716 352.32 495.479 352.722 494.338C353.123 493.208 353.583 492.172 354.101 491.232C354.629 490.291 355.184 489.456 355.765 488.727C356.335 487.998 356.911 487.375 357.492 486.857C358.074 486.339 358.628 485.932 359.157 485.636L359.775 487.57C359.437 487.824 359.093 488.13 358.745 488.489C358.407 488.849 358.074 489.25 357.746 489.694C357.26 490.381 356.795 491.189 356.351 492.119C355.907 493.038 355.538 494.048 355.242 495.147C354.956 496.14 354.735 497.233 354.576 498.427C354.418 499.622 354.338 500.905 354.338 502.279V502.501C354.338 503.822 354.412 505.058 354.56 506.21C354.708 507.362 354.909 508.424 355.163 509.396C355.437 510.379 355.754 511.287 356.114 512.122C356.473 512.967 356.848 513.723 357.239 514.389C357.64 515.023 358.053 515.583 358.475 516.069C358.908 516.565 359.342 516.988 359.775 517.337L359.157 519.128C358.628 518.832 358.068 518.425 357.477 517.907C356.895 517.4 356.32 516.777 355.749 516.037C355.168 515.308 354.613 514.473 354.085 513.533C353.567 512.603 353.113 511.567 352.722 510.426C352.32 509.295 351.998 508.064 351.755 506.733C351.522 505.402 351.406 503.98 351.406 502.469V502.311ZM380.936 514.072H366.402V511.678H380.936V514.072ZM390.146 489.06L389.813 494.925H387.753L387.769 489.314V487.332H390.146V489.06ZM395.805 489.06L395.472 494.925H393.427L393.443 489.314V487.332H395.821L395.805 489.06ZM413.796 502.469C413.796 503.98 413.674 505.402 413.431 506.733C413.199 508.064 412.882 509.295 412.48 510.426C412.079 511.567 411.614 512.603 411.086 513.533C410.568 514.473 410.024 515.308 409.453 516.037C408.872 516.777 408.285 517.4 407.694 517.907C407.113 518.425 406.558 518.832 406.029 519.128L405.411 517.337C405.855 517.009 406.304 516.586 406.759 516.069C407.213 515.551 407.646 514.954 408.058 514.278C408.449 513.591 408.824 512.814 409.184 511.948C409.553 511.092 409.855 510.151 410.087 509.126C410.33 508.175 410.515 507.15 410.642 506.051C410.779 504.942 410.848 503.758 410.848 502.501V502.279C410.848 500.853 410.758 499.558 410.578 498.396C410.409 497.233 410.219 496.245 410.008 495.432C409.701 494.269 409.332 493.229 408.898 492.309C408.465 491.379 408.021 490.571 407.567 489.884C407.218 489.345 406.859 488.875 406.489 488.474C406.119 488.062 405.76 487.713 405.411 487.427L406.029 485.636C406.558 485.932 407.118 486.339 407.71 486.857C408.301 487.375 408.882 487.998 409.453 488.727C410.045 489.477 410.6 490.312 411.117 491.232C411.635 492.151 412.089 493.186 412.48 494.338C412.861 495.448 413.173 496.652 413.416 497.952C413.669 499.241 413.796 500.694 413.796 502.311V502.469ZM460.589 502.311C460.589 500.8 460.706 499.379 460.938 498.047C461.181 496.716 461.503 495.479 461.905 494.338C462.307 493.208 462.766 492.172 463.284 491.232C463.812 490.291 464.367 489.456 464.948 488.727C465.519 487.998 466.095 487.375 466.676 486.857C467.257 486.339 467.812 485.932 468.34 485.636L468.958 487.57C468.62 487.824 468.277 488.13 467.928 488.489C467.59 488.849 467.257 489.25 466.93 489.694C466.443 490.381 465.978 491.189 465.535 492.119C465.091 493.038 464.721 494.048 464.425 495.147C464.14 496.14 463.918 497.233 463.759 498.427C463.601 499.622 463.522 500.905 463.522 502.279V502.501C463.522 503.822 463.596 505.058 463.744 506.21C463.892 507.362 464.092 508.424 464.346 509.396C464.621 510.379 464.938 511.287 465.297 512.122C465.656 512.967 466.031 513.723 466.422 514.389C466.824 515.023 467.236 515.583 467.659 516.069C468.092 516.565 468.525 516.988 468.958 517.337L468.34 519.128C467.812 518.832 467.252 518.425 466.66 517.907C466.079 517.4 465.503 516.777 464.932 516.037C464.351 515.308 463.796 514.473 463.268 513.533C462.75 512.603 462.296 511.567 461.905 510.426C461.503 509.295 461.181 508.064 460.938 506.733C460.706 505.402 460.589 503.98 460.589 502.469V502.311ZM490.12 514.072H475.585V511.678H490.12V514.072ZM497.951 513.659H495.32L504.957 488.6H507.572L497.951 513.659ZM515.181 502.311C515.181 500.8 515.297 499.379 515.53 498.047C515.773 496.716 516.095 495.479 516.497 494.338C516.898 493.208 517.358 492.172 517.876 491.232C518.404 490.291 518.959 489.456 519.54 488.727C520.111 487.998 520.686 487.375 521.268 486.857C521.849 486.339 522.404 485.932 522.932 485.636L523.55 487.57C523.212 487.824 522.868 488.13 522.52 488.489C522.182 488.849 521.849 489.25 521.521 489.694C521.035 490.381 520.57 491.189 520.126 492.119C519.683 493.038 519.313 494.048 519.017 495.147C518.732 496.14 518.51 497.233 518.351 498.427C518.193 499.622 518.113 500.905 518.113 502.279V502.501C518.113 503.822 518.187 505.058 518.335 506.21C518.483 507.362 518.684 508.424 518.938 509.396C519.212 510.379 519.529 511.287 519.889 512.122C520.248 512.967 520.623 513.723 521.014 514.389C521.416 515.023 521.828 515.583 522.25 516.069C522.684 516.565 523.117 516.988 523.55 517.337L522.932 519.128C522.404 518.832 521.843 518.425 521.252 517.907C520.671 517.4 520.095 516.777 519.524 516.037C518.943 515.308 518.388 514.473 517.86 513.533C517.342 512.603 516.888 511.567 516.497 510.426C516.095 509.295 515.773 508.064 515.53 506.733C515.297 505.402 515.181 503.98 515.181 502.469V502.311ZM544.711 514.072H530.177V511.678H544.711V514.072ZM562.908 514.072H548.374V511.678H562.908V514.072ZM577.571 502.469C577.571 503.98 577.45 505.402 577.207 506.733C576.974 508.064 576.657 509.295 576.256 510.426C575.854 511.567 575.389 512.603 574.861 513.533C574.343 514.473 573.799 515.308 573.228 516.037C572.647 516.777 572.061 517.4 571.469 517.907C570.888 518.425 570.333 518.832 569.805 519.128L569.186 517.337C569.63 517.009 570.079 516.586 570.534 516.069C570.988 515.551 571.421 514.954 571.833 514.278C572.224 513.591 572.599 512.814 572.959 511.948C573.329 511.092 573.63 510.151 573.862 509.126C574.105 508.175 574.29 507.15 574.417 506.051C574.554 504.942 574.623 503.758 574.623 502.501V502.279C574.623 500.853 574.533 499.558 574.354 498.396C574.185 497.233 573.994 496.245 573.783 495.432C573.477 494.269 573.107 493.229 572.673 492.309C572.24 491.379 571.796 490.571 571.342 489.884C570.993 489.345 570.634 488.875 570.264 488.474C569.894 488.062 569.535 487.713 569.186 487.427L569.805 485.636C570.333 485.932 570.893 486.339 571.485 486.857C572.076 487.375 572.658 487.998 573.228 488.727C573.82 489.477 574.375 490.312 574.892 491.232C575.41 492.151 575.865 493.186 576.256 494.338C576.636 495.448 576.948 496.652 577.191 497.952C577.444 499.241 577.571 500.694 577.571 502.311V502.469ZM587.97 502.311C587.97 500.8 588.086 499.379 588.319 498.047C588.562 496.716 588.884 495.479 589.286 494.338C589.687 493.208 590.147 492.172 590.665 491.232C591.193 490.291 591.748 489.456 592.329 488.727C592.899 487.998 593.475 487.375 594.057 486.857C594.638 486.339 595.192 485.932 595.721 485.636L596.339 487.57C596.001 487.824 595.657 488.13 595.309 488.489C594.971 488.849 594.638 489.25 594.31 489.694C593.824 490.381 593.359 491.189 592.915 492.119C592.472 493.038 592.102 494.048 591.806 495.147C591.521 496.14 591.299 497.233 591.14 498.427C590.982 499.622 590.902 500.905 590.902 502.279V502.501C590.902 503.822 590.976 505.058 591.124 506.21C591.272 507.362 591.473 508.424 591.727 509.396C592.001 510.379 592.318 511.287 592.678 512.122C593.037 512.967 593.412 513.723 593.803 514.389C594.204 515.023 594.617 515.583 595.039 516.069C595.472 516.565 595.906 516.988 596.339 517.337L595.721 519.128C595.192 518.832 594.632 518.425 594.041 517.907C593.46 517.4 592.884 516.777 592.313 516.037C591.732 515.308 591.177 514.473 590.649 513.533C590.131 512.603 589.677 511.567 589.286 510.426C588.884 509.295 588.562 508.064 588.319 506.733C588.086 505.402 587.97 503.98 587.97 502.469V502.311ZM617.5 514.072H602.966V511.678H617.5V514.072ZM625.331 513.659H622.7L632.337 488.6H634.952L625.331 513.659Z" fill="white"/>
<path d="M73.4354 34.0716H58.9008V31.6782H73.4354V34.0716ZM91.6326 34.0716H77.098V31.6782L91.6326 31.6782V34.0716ZM109.83 34.0716H95.2953V31.6782H109.83V34.0716ZM128.027 34.0716H113.493V31.6782H128.027V34.0716ZM255.408 34.0716H240.873V31.6782H255.408V34.0716ZM273.605 34.0716H259.07V31.6782H273.605V34.0716ZM328.197 34.0716H313.662V31.6782H328.197V34.0716ZM346.394 34.0716H331.859V31.6782L346.394 31.6782V34.0716ZM44.8722 69.6595H42.241L51.8779 44.6004H54.4932L44.8722 69.6595ZM91.6326 70.0716H77.098V67.6782H91.6326V70.0716ZM109.83 70.0716H95.2953V67.6782H109.83V70.0716ZM119.04 45.0601L118.707 50.9246H116.647L116.663 45.3137V43.3324H119.04V45.0601ZM124.699 45.0601L124.366 50.9246H122.321L122.337 45.3137V43.3324H124.714L124.699 45.0601ZM140.154 73.9866H137.792V44.6004H140.154V73.9866ZM179.687 67.6782L179.512 65.3166C178.942 66.1619 178.228 66.8223 177.372 67.2978C176.517 67.7628 175.529 67.9952 174.408 67.9952C173.51 67.9952 172.697 67.8579 171.968 67.5831C171.238 67.2978 170.615 66.8593 170.097 66.2676C169.579 65.6758 169.178 64.9256 168.893 64.0168C168.618 63.0975 168.48 61.9986 168.48 60.72V50.5284H171.413V60.7517C171.413 61.6816 171.487 62.453 171.635 63.0658C171.783 63.6787 172.004 64.1648 172.3 64.524C172.596 64.8939 172.956 65.1528 173.378 65.3007C173.811 65.4486 174.308 65.5226 174.868 65.5226C175.523 65.5226 176.11 65.4486 176.627 65.3007C177.145 65.1422 177.594 64.9256 177.975 64.6508C178.292 64.4289 178.566 64.1648 178.799 63.8583C179.042 63.5413 179.243 63.1979 179.401 62.8281V50.5284H182.349V67.6782H179.687ZM219.267 44.6004L219.299 60.2287C219.299 61.3065 219.108 62.3156 218.728 63.256C218.348 64.1965 217.825 65.0154 217.159 65.7128C216.493 66.4208 215.701 66.9808 214.781 67.3929C213.862 67.7945 212.853 67.9952 211.754 67.9952C210.634 67.9952 209.614 67.7945 208.695 67.3929C207.776 66.9914 206.988 66.4366 206.333 65.7287C205.678 65.0312 205.166 64.2123 204.796 63.2719C204.426 62.3209 204.236 61.3065 204.225 60.2287L204.257 44.6004H207.046L207.11 60.2287C207.12 60.9155 207.226 61.5759 207.427 62.2099C207.638 62.8439 207.939 63.404 208.33 63.89C208.711 64.3761 209.186 64.7671 209.757 65.0629C210.338 65.3588 211.004 65.5068 211.754 65.5068C212.504 65.5068 213.165 65.3641 213.735 65.0788C214.306 64.7829 214.787 64.3867 215.178 63.89C215.558 63.404 215.849 62.8439 216.049 62.2099C216.25 61.5759 216.361 60.9155 216.382 60.2287L216.43 44.6004H219.267ZM231.14 73.9866H228.778V44.6004H231.14V73.9866ZM248.767 45.0918L248.434 50.9246H246.246L246.262 45.3454V43.3324H248.767V45.0918ZM278.472 44.6004H281.119L290.756 69.6595H288.109L278.472 44.6004ZM299.633 69.6595H297.002L306.639 44.6004H309.255L299.633 69.6595ZM339.753 45.0918L339.42 50.9246H337.233L337.248 45.3454V43.3324H339.753V45.0918ZM358.521 73.9866H356.159V44.6004H358.521V73.9866ZM379.856 67.6782L379.682 65.3166C379.111 66.1619 378.398 66.8223 377.542 67.2978C376.686 67.7628 375.698 67.9952 374.578 67.9952C373.68 67.9952 372.866 67.8579 372.137 67.5831C371.408 67.2978 370.785 66.8593 370.267 66.2676C369.749 65.6758 369.348 64.9256 369.062 64.0168C368.787 63.0975 368.65 61.9986 368.65 60.72V50.5284H371.582V60.7517C371.582 61.6816 371.656 62.453 371.804 63.0658C371.952 63.6787 372.174 64.1648 372.47 64.524C372.766 64.8939 373.125 65.1528 373.548 65.3007C373.981 65.4486 374.478 65.5226 375.038 65.5226C375.693 65.5226 376.279 65.4486 376.797 65.3007C377.315 65.1422 377.764 64.9256 378.144 64.6508C378.461 64.4289 378.736 64.1648 378.969 63.8583C379.212 63.5413 379.412 63.1979 379.571 62.8281V50.5284H382.519V67.6782H379.856ZM36.185 100.572L22.7441 94.5644V92.2503L36.185 86.2589V89.3655L26.4847 93.1696L25.6447 93.439L26.4847 93.7243L36.185 97.465V100.572ZM41.9082 80.6004H44.5552L54.192 105.659H51.5451L41.9082 80.6004ZM73.4354 106.072H58.9008V103.678H73.4354V106.072ZM91.6326 106.072H77.098V103.678H91.6326V106.072ZM109.83 106.072H95.2953V103.678H109.83V106.072ZM132.894 80.6004H135.541L145.178 105.659H142.531L132.894 80.6004ZM154.056 105.659H151.424L161.061 80.6004H163.677L154.056 105.659ZM205.683 80.6004H208.33L217.967 105.659H215.32L205.683 80.6004ZM231.14 109.987H228.778V80.6004H231.14V109.987ZM267.534 109.987H265.173V80.6004H267.534V109.987ZM278.472 80.6004H281.119L290.756 105.659H288.109L278.472 80.6004ZM299.633 105.659H297.002L306.639 80.6004H309.255L299.633 105.659ZM322.126 109.987H319.764V80.6004H322.126V109.987ZM358.521 109.987H356.159V80.6004H358.521V109.987ZM372.422 105.659H369.791L379.428 80.6004H382.043L372.422 105.659ZM52.3059 139.678L52.1315 137.317C51.5609 138.162 50.8477 138.822 49.9918 139.298C49.1358 139.763 48.1479 139.995 47.0278 139.995C46.1296 139.995 45.316 139.858 44.5869 139.583C43.8577 139.298 43.2343 138.859 42.7165 138.268C42.1988 137.676 41.7972 136.926 41.5119 136.017C41.2372 135.098 41.0998 133.999 41.0998 132.72V122.528H44.0321V132.752C44.0321 133.682 44.1061 134.453 44.254 135.066C44.4019 135.679 44.6238 136.165 44.9197 136.524C45.2156 136.894 45.5748 137.153 45.9975 137.301C46.4308 137.449 46.9274 137.523 47.4874 137.523C48.1426 137.523 48.729 137.449 49.2468 137.301C49.7646 137.142 50.2137 136.926 50.5941 136.651C50.9111 136.429 51.1858 136.165 51.4183 135.858C51.6613 135.541 51.8621 135.198 52.0206 134.828V122.528H54.9687L54.9687 139.678H52.3059ZM73.4354 142.072H58.9008V139.678H73.4354V142.072ZM91.6326 142.072H77.098V139.678H91.6326V142.072ZM109.83 142.072H95.2953V139.678H109.83V142.072ZM124.493 130.469C124.493 131.98 124.371 133.402 124.128 134.733C123.896 136.064 123.579 137.295 123.177 138.426C122.775 139.567 122.31 140.603 121.782 141.533C121.264 142.473 120.72 143.308 120.15 144.037C119.568 144.777 118.982 145.4 118.39 145.907C117.809 146.425 117.254 146.832 116.726 147.128L116.108 145.337C116.552 145.009 117.001 144.586 117.455 144.069C117.909 143.551 118.343 142.954 118.755 142.278C119.146 141.591 119.521 140.814 119.88 139.948C120.25 139.092 120.551 138.151 120.784 137.126C121.027 136.175 121.212 135.15 121.338 134.051C121.476 132.942 121.544 131.758 121.544 130.501V130.279C121.544 128.853 121.455 127.558 121.275 126.396C121.106 125.233 120.916 124.245 120.704 123.432C120.398 122.269 120.028 121.229 119.595 120.309C119.162 119.379 118.718 118.571 118.263 117.884C117.915 117.345 117.555 116.875 117.186 116.474C116.816 116.062 116.457 115.713 116.108 115.427L116.726 113.636C117.254 113.932 117.814 114.339 118.406 114.857C118.998 115.375 119.579 115.998 120.15 116.727C120.741 117.477 121.296 118.312 121.814 119.232C122.332 120.151 122.786 121.186 123.177 122.338C123.557 123.448 123.869 124.652 124.112 125.952C124.366 127.241 124.493 128.694 124.493 130.311V130.469ZM158.351 145.987H155.989V116.6H158.351V145.987ZM231.14 145.987H228.778V116.6H231.14V145.987ZM267.534 145.987H265.173V116.6H267.534V145.987ZM322.126 145.987H319.764V116.6H322.126V145.987ZM358.521 145.987H356.159V116.6H358.521V145.987ZM49.1675 181.987H46.8059V152.6H49.1675V181.987ZM73.4354 178.072H58.9008V175.678H73.4354V178.072ZM91.6326 178.072H77.098V175.678H91.6326V178.072ZM109.83 178.072H95.2953V175.678H109.83V178.072ZM128.027 178.072H113.493V175.678H128.027V178.072ZM135.858 177.659H133.227L142.864 152.6H145.479L135.858 177.659ZM150.252 172.556V169.513L160.507 165.645L161.458 165.376L160.507 165.074L150.252 161.27V158.243L164.247 164.234V166.549L150.252 172.556ZM168.449 172.556V169.513L178.704 165.645L179.655 165.376L178.704 165.074L168.449 161.27V158.243L182.444 164.234V166.549L168.449 172.556ZM231.14 181.987H228.778V152.6H231.14V181.987ZM255.408 178.072H240.873V175.678H255.408V178.072ZM267.534 181.987H265.173V152.6H267.534V181.987ZM322.126 181.987H319.764V152.6H322.126V181.987ZM346.394 178.072H331.859V175.678H346.394V178.072ZM358.521 181.987H356.159V152.6H358.521V181.987ZM69.9008 202.469C69.9008 203.98 69.7793 205.402 69.5363 206.733C69.3038 208.064 68.9868 209.295 68.5852 210.426C68.1837 211.567 67.7188 212.603 67.1904 213.533C66.6727 214.473 66.1285 215.308 65.5579 216.037C64.9767 216.777 64.3902 217.4 63.7985 217.907C63.2173 218.425 62.6626 218.832 62.1342 219.128L61.5161 217.337C61.9599 217.009 62.409 216.586 62.8633 216.069C63.3177 215.551 63.751 214.954 64.1631 214.278C64.554 213.591 64.9291 212.814 65.2884 211.948C65.6583 211.092 65.9594 210.151 66.1919 209.126C66.4349 208.175 66.6198 207.15 66.7466 206.051C66.884 204.942 66.9527 203.758 66.9527 202.501V202.279C66.9527 200.853 66.8629 199.558 66.6832 198.396C66.5142 197.233 66.324 196.245 66.1126 195.432C65.8062 194.269 65.4364 193.229 65.0031 192.309C64.5699 191.379 64.1261 190.571 63.6717 189.884C63.323 189.345 62.9637 188.875 62.5939 188.474C62.2241 188.062 61.8648 187.713 61.5161 187.427L62.1342 185.636C62.6626 185.932 63.2226 186.339 63.8144 186.857C64.4061 187.375 64.9873 187.998 65.5579 188.727C66.1496 189.477 66.7044 190.312 67.2221 191.232C67.7399 192.151 68.1943 193.186 68.5852 194.338C68.9657 195.448 69.2774 196.652 69.5204 197.952C69.774 199.241 69.9008 200.694 69.9008 202.311V202.469ZM80.2998 202.311C80.2998 200.8 80.416 199.379 80.6485 198.047C80.8915 196.716 81.2138 195.479 81.6153 194.338C82.0169 193.208 82.4765 192.172 82.9943 191.232C83.5226 190.291 84.0774 189.456 84.6586 188.727C85.2292 187.998 85.8051 187.375 86.3862 186.857C86.9674 186.339 87.5222 185.932 88.0505 185.636L88.6687 187.57C88.3305 187.824 87.9871 188.13 87.6384 188.489C87.3003 188.849 86.9674 189.25 86.6398 189.694C86.1538 190.381 85.6888 191.189 85.245 192.119C84.8012 193.038 84.4314 194.048 84.1355 195.147C83.8502 196.14 83.6283 197.233 83.4698 198.427C83.3113 199.622 83.2321 200.905 83.2321 202.279V202.501C83.2321 203.822 83.306 205.058 83.454 206.21C83.6019 207.362 83.8027 208.424 84.0563 209.396C84.331 210.379 84.648 211.287 85.0073 212.122C85.3665 212.967 85.7417 213.723 86.1326 214.389C86.5342 215.023 86.9463 215.583 87.3689 216.069C87.8022 216.565 88.2354 216.988 88.6687 217.337L88.0505 219.128C87.5222 218.832 86.9621 218.425 86.3704 217.907C85.7892 217.4 85.2133 216.777 84.6427 216.037C84.0615 215.308 83.5068 214.473 82.9785 213.533C82.4607 212.603 82.0063 211.567 81.6153 210.426C81.2138 209.295 80.8915 208.064 80.6485 206.733C80.416 205.402 80.2998 203.98 80.2998 202.469V202.311ZM134.891 202.311C134.891 200.8 135.008 199.379 135.24 198.047C135.483 196.716 135.806 195.479 136.207 194.338C136.609 193.208 137.068 192.172 137.586 191.232C138.114 190.291 138.669 189.456 139.25 188.727C139.821 187.998 140.397 187.375 140.978 186.857C141.559 186.339 142.114 185.932 142.642 185.636L143.26 187.57C142.922 187.824 142.579 188.13 142.23 188.489C141.892 188.849 141.559 189.25 141.232 189.694C140.745 190.381 140.281 191.189 139.837 192.119C139.393 193.038 139.023 194.048 138.727 195.147C138.442 196.14 138.22 197.233 138.062 198.427C137.903 199.622 137.824 200.905 137.824 202.279V202.501C137.824 203.822 137.898 205.058 138.046 206.21C138.194 207.362 138.394 208.424 138.648 209.396C138.923 210.379 139.24 211.287 139.599 212.122C139.958 212.967 140.333 213.723 140.724 214.389C141.126 215.023 141.538 215.583 141.961 216.069C142.394 216.565 142.827 216.988 143.26 217.337L142.642 219.128C142.114 218.832 141.554 218.425 140.962 217.907C140.381 217.4 139.805 216.777 139.234 216.037C138.653 215.308 138.099 214.473 137.57 213.533C137.052 212.603 136.598 211.567 136.207 210.426C135.806 209.295 135.483 208.064 135.24 206.733C135.008 205.402 134.891 203.98 134.891 202.469V202.311ZM164.422 214.072H149.887V211.678H164.422V214.072ZM182.619 214.072H168.084V211.678H182.619V214.072ZM197.281 202.469C197.281 203.98 197.16 205.402 196.917 206.733C196.684 208.064 196.367 209.295 195.966 210.426C195.564 211.567 195.099 212.603 194.571 213.533C194.053 214.473 193.509 215.308 192.939 216.037C192.357 216.777 191.771 217.4 191.179 217.907C190.598 218.425 190.043 218.832 189.515 219.128L188.897 217.337C189.341 217.009 189.79 216.586 190.244 216.069C190.698 215.551 191.132 214.954 191.544 214.278C191.935 213.591 192.31 212.814 192.669 211.948C193.039 211.092 193.34 210.151 193.573 209.126C193.816 208.175 194.001 207.15 194.127 206.051C194.265 204.942 194.333 203.758 194.333 202.501V202.279C194.333 200.853 194.244 199.558 194.064 198.396C193.895 197.233 193.705 196.245 193.493 195.432C193.187 194.269 192.817 193.229 192.384 192.309C191.951 191.379 191.507 190.571 191.052 189.884C190.704 189.345 190.344 188.875 189.975 188.474C189.605 188.062 189.245 187.713 188.897 187.427L189.515 185.636C190.043 185.932 190.603 186.339 191.195 186.857C191.787 187.375 192.368 187.998 192.939 188.727C193.53 189.477 194.085 190.312 194.603 191.232C195.121 192.151 195.575 193.186 195.966 194.338C196.346 195.448 196.658 196.652 196.901 197.952C197.155 199.241 197.281 200.694 197.281 202.311V202.469ZM218.157 208.572L204.716 202.564V200.25L218.157 194.259V197.366L208.457 201.17L207.617 201.439L208.457 201.724L218.157 205.465V208.572ZM236.355 208.572L222.914 202.564V200.25L236.355 194.259V197.366L226.654 201.17L225.814 201.439L226.654 201.724L236.355 205.465V208.572ZM248.608 210.997C248.608 212.053 248.36 213.131 247.863 214.23C247.366 215.329 246.695 216.254 245.85 217.004L244.027 216.005C244.535 215.266 244.894 214.478 245.105 213.644C245.317 212.809 245.422 211.942 245.422 211.044V208.207H248.608V210.997ZM272.194 202.786H260.069V200.377H272.194V202.786ZM285.003 210.997C285.003 212.053 284.754 213.131 284.258 214.23C283.761 215.329 283.09 216.254 282.245 217.004L280.422 216.005C280.929 215.266 281.288 214.478 281.5 213.644C281.711 212.809 281.817 211.942 281.817 211.044V208.207H285.003V210.997ZM303.2 210.997C303.2 212.053 302.951 213.131 302.455 214.23C301.958 215.329 301.287 216.254 300.442 217.004L298.619 216.005C299.126 215.266 299.486 214.478 299.697 213.644C299.908 212.809 300.014 211.942 300.014 211.044V208.207H303.2V210.997ZM326.786 202.786H314.661V200.377H326.786V202.786ZM337.264 209.776C337.264 209.153 337.454 208.619 337.835 208.175C338.215 207.732 338.791 207.51 339.563 207.51C340.323 207.51 340.899 207.732 341.29 208.175C341.692 208.609 341.893 209.142 341.893 209.776C341.893 210.4 341.692 210.923 341.29 211.345C340.889 211.768 340.313 211.979 339.563 211.979C338.802 211.979 338.226 211.768 337.835 211.345C337.454 210.912 337.264 210.389 337.264 209.776ZM43.9053 238.311C43.9053 236.8 44.0215 235.379 44.254 234.047C44.497 232.716 44.8193 231.479 45.2209 230.338C45.6224 229.208 46.0821 228.172 46.5998 227.232C47.1282 226.291 47.6829 225.456 48.2641 224.727C48.8347 223.998 49.4106 223.375 49.9918 222.857C50.5729 222.339 51.1277 221.932 51.656 221.636L52.2742 223.57C51.936 223.824 51.5926 224.13 51.2439 224.489C50.9058 224.849 50.5729 225.25 50.2454 225.694C49.7593 226.381 49.2944 227.189 48.8505 228.119C48.4067 229.038 48.0369 230.048 47.741 231.147C47.4557 232.14 47.2338 233.233 47.0753 234.427C46.9168 235.622 46.8376 236.905 46.8376 238.279V238.501C46.8376 239.822 46.9115 241.058 47.0595 242.21C47.2074 243.362 47.4082 244.424 47.6618 245.396C47.9365 246.379 48.2535 247.287 48.6128 248.122C48.9721 248.967 49.3472 249.723 49.7382 250.389C50.1397 251.023 50.5518 251.583 50.9745 252.069C51.4077 252.565 51.8409 252.988 52.2742 253.337L51.656 255.128C51.1277 254.832 50.5676 254.425 49.9759 253.907C49.3947 253.4 48.8188 252.777 48.2482 252.037C47.6671 251.308 47.1123 250.473 46.584 249.533C46.0662 248.603 45.6118 247.567 45.2209 246.426C44.8193 245.295 44.497 244.064 44.254 242.733C44.0215 241.402 43.9053 239.98 43.9053 238.469V238.311ZM73.4354 250.072H58.9008V247.678H73.4354V250.072ZM91.6326 250.072H77.098V247.678H91.6326V250.072ZM106.295 238.469C106.295 239.98 106.174 241.402 105.931 242.733C105.698 244.064 105.381 245.295 104.98 246.426C104.578 247.567 104.113 248.603 103.585 249.533C103.067 250.473 102.523 251.308 101.952 252.037C101.371 252.777 100.785 253.4 100.193 253.907C99.6118 254.425 99.057 254.832 98.5287 255.128L97.9106 253.337C98.3544 253.009 98.8034 252.586 99.2578 252.069C99.7122 251.551 100.145 250.954 100.558 250.278C100.949 249.591 101.324 248.814 101.683 247.948C102.053 247.092 102.354 246.151 102.586 245.126C102.829 244.175 103.014 243.15 103.141 242.051C103.278 240.942 103.347 239.758 103.347 238.501V238.279C103.347 236.853 103.257 235.558 103.078 234.396C102.909 233.233 102.718 232.245 102.507 231.432C102.201 230.269 101.831 229.229 101.398 228.309C100.964 227.379 100.521 226.571 100.066 225.884C99.7175 225.345 99.3582 224.875 98.9884 224.474C98.6185 224.062 98.2593 223.713 97.9106 223.427L98.5287 221.636C99.057 221.932 99.6171 222.339 100.209 222.857C100.801 223.375 101.382 223.998 101.952 224.727C102.544 225.477 103.099 226.312 103.617 227.232C104.134 228.151 104.589 229.186 104.98 230.338C105.36 231.448 105.672 232.652 105.915 233.952C106.168 235.241 106.295 236.694 106.295 238.311V238.469ZM225.878 238.311C225.878 236.8 225.994 235.379 226.226 234.047C226.469 232.716 226.792 231.479 227.193 230.338C227.595 229.208 228.054 228.172 228.572 227.232C229.101 226.291 229.655 225.456 230.236 224.727C230.807 223.998 231.383 223.375 231.964 222.857C232.545 222.339 233.1 221.932 233.628 221.636L234.247 223.57C233.908 223.824 233.565 224.13 233.216 224.489C232.878 224.849 232.545 225.25 232.218 225.694C231.732 226.381 231.267 227.189 230.823 228.119C230.379 229.038 230.009 230.048 229.713 231.147C229.428 232.14 229.206 233.233 229.048 234.427C228.889 235.622 228.81 236.905 228.81 238.279V238.501C228.81 239.822 228.884 241.058 229.032 242.21C229.18 243.362 229.381 244.424 229.634 245.396C229.909 246.379 230.226 247.287 230.585 248.122C230.944 248.967 231.32 249.723 231.711 250.389C232.112 251.023 232.524 251.583 232.947 252.069C233.38 252.565 233.813 252.988 234.247 253.337L233.628 255.128C233.1 254.832 232.54 254.425 231.948 253.907C231.367 253.4 230.791 252.777 230.221 252.037C229.639 251.308 229.085 250.473 228.556 249.533C228.039 248.603 227.584 247.567 227.193 246.426C226.792 245.295 226.469 244.064 226.226 242.733C225.994 241.402 225.878 239.98 225.878 238.469V238.311ZM246.278 245.776C246.278 245.153 246.468 244.619 246.849 244.175C247.229 243.732 247.805 243.51 248.576 243.51C249.337 243.51 249.913 243.732 250.304 244.175C250.706 244.609 250.906 245.142 250.906 245.776C250.906 246.4 250.706 246.923 250.304 247.345C249.902 247.768 249.327 247.979 248.576 247.979C247.816 247.979 247.24 247.768 246.849 247.345C246.468 246.912 246.278 246.389 246.278 245.776ZM263.239 249.659H260.608L270.245 224.6H272.86L263.239 249.659ZM314.867 224.6H317.514L327.151 249.659H324.504L314.867 224.6ZM337.264 245.776C337.264 245.153 337.454 244.619 337.835 244.175C338.215 243.732 338.791 243.51 339.563 243.51C340.323 243.51 340.899 243.732 341.29 244.175C341.692 244.609 341.893 245.142 341.893 245.776C341.893 246.4 341.692 246.923 341.29 247.345C340.889 247.768 340.313 247.979 339.563 247.979C338.802 247.979 338.226 247.768 337.835 247.345C337.454 246.912 337.264 246.389 337.264 245.776ZM361.057 238.469C361.057 239.98 360.935 241.402 360.692 242.733C360.46 244.064 360.143 245.295 359.741 246.426C359.34 247.567 358.875 248.603 358.346 249.533C357.828 250.473 357.284 251.308 356.714 252.037C356.133 252.777 355.546 253.4 354.954 253.907C354.373 254.425 353.818 254.832 353.29 255.128L352.672 253.337C353.116 253.009 353.565 252.586 354.019 252.069C354.474 251.551 354.907 250.954 355.319 250.278C355.71 249.591 356.085 248.814 356.444 247.948C356.814 247.092 357.115 246.151 357.348 245.126C357.591 244.175 357.776 243.15 357.902 242.051C358.04 240.942 358.109 239.758 358.109 238.501V238.279C358.109 236.853 358.019 235.558 357.839 234.396C357.67 233.233 357.48 232.245 357.268 231.432C356.962 230.269 356.592 229.229 356.159 228.309C355.726 227.379 355.282 226.571 354.828 225.884C354.479 225.345 354.12 224.875 353.75 224.474C353.38 224.062 353.021 223.713 352.672 223.427L353.29 221.636C353.818 221.932 354.378 222.339 354.97 222.857C355.562 223.375 356.143 223.998 356.714 224.727C357.305 225.477 357.86 226.312 358.378 227.232C358.896 228.151 359.35 229.186 359.741 230.338C360.121 231.448 360.433 232.652 360.676 233.952C360.93 235.241 361.057 236.694 361.057 238.311V238.469Z" fill="white"/>
</g>
<defs>
<clipPath id="clip0_7053_3229">
<rect width="675" height="516" fill="white" transform="translate(0 0.678223)"/>
</clipPath>
</defs>
</svg>
