<svg width="114" height="50" viewBox="0 0 114 50" fill="none" xmlns="http://www.w3.org/2000/svg">
<path d="M1.55283 8.44394C1.756 8.75885 2.00322 9.02975 2.29782 9.24986C2.59242 9.46996 2.93101 9.64267 3.32042 9.76457C3.70984 9.88647 4.1399 9.9474 4.6072 9.9474C5.24043 9.9474 5.7822 9.856 6.23934 9.67653C6.69648 9.49706 7.06898 9.23291 7.35681 8.8909C7.64464 8.54889 7.85458 8.13577 7.97987 7.65831L6.82854 7.45514C6.73711 7.77006 6.59154 8.04436 6.39514 8.26785C6.19535 8.49472 5.95152 8.66404 5.65692 8.78256C5.36232 8.90108 5.01355 8.95865 4.6072 8.95865C4.27197 8.95865 3.97058 8.91462 3.70646 8.82319C3.43895 8.73176 3.20871 8.60308 3.0157 8.43716C2.82268 8.27123 2.66013 8.07144 2.53484 7.84118C2.40955 7.61092 2.31475 7.34681 2.25041 7.05559C2.20977 6.87274 2.18942 6.6797 2.17249 6.47991H7.96974C7.98667 6.39864 8.00021 6.31063 8.01037 6.21582C8.02053 6.121 8.02389 6.02955 8.02389 5.93812C8.02389 5.4031 7.94263 4.9155 7.78009 4.4753C7.61755 4.0317 7.38388 3.64905 7.08251 3.32397C6.78114 2.99889 6.41543 2.74832 5.99216 2.57224C5.56549 2.39616 5.08804 2.30811 4.5564 2.30811C4.09588 2.30811 3.6726 2.36907 3.28996 2.49097C2.90393 2.61288 2.5687 2.78555 2.28087 3.01242C1.99304 3.2393 1.74584 3.50681 1.54944 3.81835C1.34965 4.12988 1.19728 4.48204 1.09569 4.86807C0.990721 5.25748 0.939941 5.67401 0.939941 6.11421C0.939941 6.55442 0.990721 6.98786 1.09569 7.38066C1.20067 7.77346 1.35304 8.12902 1.55622 8.44394M2.54162 4.39742C2.67368 4.16716 2.83281 3.96737 3.02243 3.80144C3.21206 3.63552 3.43559 3.50684 3.69294 3.42219C3.95029 3.33753 4.24149 3.29351 4.56657 3.29351C4.9289 3.29351 5.25058 3.35443 5.52824 3.47634C5.8093 3.59824 6.04633 3.77094 6.23934 3.99105C6.43236 4.21115 6.58137 4.47191 6.67957 4.76989C6.75407 4.99 6.7981 5.23042 6.81842 5.48777H2.19622C2.20976 5.3828 2.22331 5.27781 2.24702 5.17622C2.31136 4.8884 2.40616 4.62768 2.53823 4.39742" fill="white"/>
<path d="M14.6404 8.13239C14.4508 8.39313 14.2138 8.58953 13.9293 8.72159C13.6449 8.85365 13.3164 8.91802 12.9473 8.91802C12.6391 8.91802 12.3648 8.87399 12.121 8.78934C11.8772 8.70468 11.6605 8.58275 11.4777 8.4236C11.2914 8.26445 11.1391 8.07144 11.0172 7.84118C10.8953 7.61092 10.8004 7.35355 10.7395 7.06911C10.6751 6.78467 10.6446 6.47653 10.6446 6.14129C10.6446 5.80605 10.6751 5.481 10.7395 5.19317C10.8038 4.90534 10.8953 4.64459 11.0172 4.41432C11.1391 4.18406 11.2914 3.98767 11.4709 3.8319C11.6504 3.67275 11.8637 3.55086 12.1075 3.46621C12.3513 3.38155 12.6256 3.33753 12.9337 3.33753C13.3232 3.33753 13.6584 3.40864 13.9428 3.54747C14.2273 3.68631 14.4575 3.88945 14.6336 4.15019C14.8097 4.41093 14.9282 4.73265 14.9926 5.11191L16.1981 4.9087C16.0965 4.35675 15.9069 3.88609 15.6224 3.50006C15.338 3.11065 14.9723 2.81605 14.5253 2.61287C14.0783 2.4097 13.5466 2.30811 12.9337 2.30811C12.48 2.30811 12.0669 2.36568 11.6944 2.4842C11.3185 2.60271 10.9867 2.77202 10.6921 2.99213C10.3975 3.21223 10.1536 3.48313 9.96063 3.79805C9.76761 4.11297 9.61525 4.46853 9.51366 4.86133C9.40869 5.25413 9.35791 5.68076 9.35791 6.14129C9.35791 6.60182 9.40869 7.02848 9.51366 7.41451C9.61864 7.80393 9.76762 8.1527 9.96741 8.46423C10.1672 8.77576 10.411 9.04331 10.6988 9.26342C10.9867 9.48691 11.3185 9.65622 11.6944 9.77135C12.0703 9.88987 12.4868 9.9474 12.9473 9.9474C13.5263 9.9474 14.041 9.8492 14.4914 9.64941C14.9418 9.44962 15.3177 9.15842 15.6156 8.769C15.9136 8.37958 16.1202 7.90553 16.2387 7.3468L15.0467 7.14364C14.9655 7.53983 14.83 7.87165 14.6404 8.13239Z" fill="white"/>
<path d="M17.9882 8.46423C18.188 8.77576 18.4318 9.04331 18.7196 9.26342C19.0075 9.48352 19.3393 9.65283 19.7152 9.77135C20.091 9.88987 20.5075 9.9474 20.968 9.9474C21.4286 9.9474 21.8485 9.88987 22.2278 9.77135C22.607 9.65283 22.9422 9.48352 23.2301 9.26342C23.5179 9.04331 23.7617 8.77576 23.9615 8.46423C24.1613 8.1527 24.3103 7.80053 24.4152 7.40773C24.5202 7.01493 24.571 6.5883 24.571 6.12777C24.571 5.66725 24.5202 5.25413 24.4152 4.86133C24.3103 4.46853 24.1613 4.11297 23.9615 3.79805C23.7617 3.48313 23.5179 3.21223 23.2301 2.99213C22.9422 2.77202 22.607 2.60271 22.2278 2.4842C21.8485 2.36568 21.4286 2.30811 20.968 2.30811C20.5075 2.30811 20.0876 2.36568 19.7152 2.4842C19.3393 2.60271 19.0075 2.77202 18.7196 2.99213C18.4318 3.21223 18.1846 3.48313 17.9882 3.79805C17.7884 4.11297 17.6394 4.46853 17.5345 4.86133C17.4295 5.25413 17.3787 5.67741 17.3787 6.12777C17.3787 6.57814 17.4295 7.01493 17.5345 7.40773C17.6394 7.80053 17.7918 8.1527 17.9882 8.46423ZM18.7535 5.18639C18.8111 4.90195 18.9058 4.64459 19.0311 4.41432C19.1564 4.18406 19.3122 3.99106 19.4917 3.8319C19.6711 3.67275 19.8879 3.55086 20.1351 3.46621C20.3822 3.38155 20.6599 3.33753 20.968 3.33753C21.2762 3.33753 21.5641 3.38155 21.8079 3.46621C22.0517 3.55086 22.265 3.67275 22.4512 3.8319C22.6375 3.99106 22.7932 4.18067 22.9185 4.40755C23.0438 4.63442 23.1386 4.89179 23.1962 5.17961C23.2538 5.46744 23.2843 5.78576 23.2843 6.12777C23.2843 6.46978 23.2538 6.78467 23.1962 7.06911C23.1386 7.35355 23.0438 7.61092 22.9185 7.84118C22.7932 8.07144 22.6375 8.26445 22.4512 8.4236C22.265 8.58275 22.0517 8.70468 21.8079 8.78934C21.5641 8.87399 21.283 8.91802 20.968 8.91802C20.6531 8.91802 20.3856 8.87399 20.1418 8.78934C19.898 8.70468 19.6847 8.58275 19.4984 8.4236C19.3122 8.26445 19.1598 8.07144 19.0379 7.84118C18.916 7.61092 18.8246 7.35355 18.7603 7.06911C18.6959 6.78467 18.6654 6.46978 18.6654 6.12777C18.6654 5.78576 18.6959 5.47084 18.7535 5.18639Z" fill="white"/>
<path d="M30.4745 8.6471C30.3221 8.7453 30.1291 8.8232 29.8988 8.87738C29.6685 8.93156 29.3943 8.95865 29.0794 8.95865C28.4461 8.95865 27.9484 8.82657 27.5894 8.56583C27.2271 8.3051 27.0104 7.89197 26.9392 7.33325L25.788 7.49578C25.8794 8.04773 26.0521 8.50489 26.3094 8.8706C26.5668 9.23632 26.9257 9.50722 27.3863 9.6833C27.8468 9.85939 28.4224 9.9474 29.1064 9.9474C29.7566 9.9474 30.3085 9.85599 30.7589 9.66975C31.2093 9.4835 31.5581 9.22278 31.7951 8.88416C32.0355 8.54554 32.154 8.14935 32.154 7.69898C32.154 7.24862 32.0626 6.89303 31.8764 6.60859C31.6901 6.32415 31.3989 6.09727 31.0027 5.93135C30.6065 5.76542 30.0885 5.64014 29.4586 5.55887L28.8491 5.4776C28.4495 5.42342 28.1278 5.35231 27.8806 5.26766C27.6334 5.183 27.454 5.06447 27.3456 4.91548C27.2373 4.76649 27.1831 4.57349 27.1831 4.33984C27.1831 4.12312 27.2542 3.93687 27.393 3.78449C27.5319 3.63211 27.735 3.51019 27.9957 3.42553C28.2565 3.34088 28.5714 3.2969 28.9303 3.2969C29.3265 3.2969 29.6618 3.35107 29.9327 3.45943C30.2036 3.56779 30.4169 3.73031 30.5693 3.94702C30.7217 4.16374 30.8165 4.44479 30.8537 4.7868L31.9915 4.63783C31.9272 4.11296 31.768 3.67954 31.5174 3.33753C31.2635 2.99552 30.9214 2.73816 30.4948 2.56546C30.0647 2.39276 29.5433 2.30811 28.9303 2.30811C28.3174 2.30811 27.8027 2.39616 27.3659 2.57224C26.9257 2.74832 26.5905 2.99889 26.3568 3.32397C26.1232 3.64905 26.0046 4.0283 26.0046 4.46174C26.0046 4.86808 26.0961 5.21349 26.2823 5.49116C26.4686 5.77222 26.7496 5.9957 27.1289 6.16163C27.5082 6.32755 27.9924 6.45283 28.5782 6.5341L29.2148 6.61537C29.6381 6.66955 29.9767 6.74406 30.2239 6.83887C30.4711 6.93368 30.6539 7.05897 30.7657 7.21813C30.8774 7.37728 30.935 7.58043 30.935 7.8344C30.935 8.0071 30.8944 8.15947 30.8199 8.29492C30.742 8.43037 30.6269 8.5489 30.4745 8.6471Z" fill="white"/>
<path d="M35.7065 10.006C35.5812 10.304 35.4559 10.5579 35.334 10.7645C35.2121 10.971 35.0868 11.1403 34.9547 11.2656C34.8227 11.3909 34.6771 11.4858 34.5145 11.5433C34.352 11.6009 34.1624 11.6314 33.9457 11.6314C33.8475 11.6314 33.7459 11.628 33.6477 11.6178C33.5495 11.6077 33.4479 11.5907 33.3497 11.5636L33.4039 12.5389C33.5224 12.5761 33.6511 12.6032 33.7899 12.6269C33.9287 12.6506 34.0709 12.6608 34.2165 12.6608C34.5247 12.6608 34.7956 12.6167 35.036 12.5321C35.2764 12.444 35.4898 12.3154 35.6794 12.1393C35.869 11.9632 36.0417 11.7363 36.2009 11.4621C36.36 11.1878 36.509 10.8559 36.6546 10.4665L39.7869 2.44116H38.5407L36.4041 8.28239L34.1353 2.44116H32.8214L35.8352 9.70459L35.7065 10.006Z" fill="white"/>
<path d="M45.0448 8.6471C44.8925 8.7453 44.6994 8.8232 44.4692 8.87738C44.2389 8.93156 43.9646 8.95865 43.6497 8.95865C43.0165 8.95865 42.5187 8.82657 42.1598 8.56583C41.7974 8.3051 41.5807 7.89197 41.5096 7.33325L40.3583 7.49578C40.4497 8.04773 40.6224 8.50489 40.8798 8.8706C41.1371 9.23632 41.4961 9.50722 41.9566 9.6833C42.4171 9.85939 42.9928 9.9474 43.6768 9.9474C44.3269 9.9474 44.8789 9.85599 45.3293 9.66975C45.7796 9.4835 46.1284 9.22278 46.3654 8.88416C46.6058 8.54554 46.7244 8.14935 46.7244 7.69898C46.7244 7.24862 46.6329 6.89303 46.4467 6.60859C46.2605 6.32415 45.9693 6.09727 45.5731 5.93135C45.1769 5.76542 44.6588 5.64014 44.029 5.55887L43.4194 5.4776C43.0199 5.42342 42.6982 5.35231 42.451 5.26766C42.2038 5.183 42.0243 5.06447 41.916 4.91548C41.8076 4.76649 41.7534 4.57349 41.7534 4.33984C41.7534 4.12312 41.8245 3.93687 41.9633 3.78449C42.1022 3.63211 42.3054 3.51019 42.5661 3.42553C42.8268 3.34088 43.1418 3.2969 43.5007 3.2969C43.8969 3.2969 44.2321 3.35107 44.503 3.45943C44.7739 3.56779 44.9872 3.73031 45.1396 3.94702C45.292 4.16374 45.3868 4.44479 45.4241 4.7868L46.5619 4.63783C46.4975 4.11296 46.3384 3.67954 46.0878 3.33753C45.8338 2.99552 45.4918 2.73816 45.0651 2.56546C44.6351 2.39276 44.1136 2.30811 43.5007 2.30811C42.8878 2.30811 42.3731 2.39616 41.9363 2.57224C41.4961 2.74832 41.1608 2.99889 40.9272 3.32397C40.6935 3.64905 40.575 4.0283 40.575 4.46174C40.575 4.86808 40.6665 5.21349 40.8527 5.49116C41.0389 5.77222 41.32 5.9957 41.6992 6.16163C42.0785 6.32755 42.5627 6.45283 43.1485 6.5341L43.7851 6.61537C44.2084 6.66955 44.5471 6.74406 44.7943 6.83887C45.0415 6.93368 45.2243 7.05897 45.336 7.21813C45.4478 7.37728 45.5054 7.58043 45.5054 7.8344C45.5054 8.0071 45.4647 8.15947 45.3902 8.29492C45.3123 8.43037 45.1972 8.5489 45.0448 8.6471Z" fill="white"/>
<path d="M48.6645 7.7276C48.6645 8.11701 48.7085 8.45223 48.7999 8.7299C48.8913 9.01096 49.0268 9.24124 49.213 9.42071C49.3993 9.60018 49.6295 9.7356 49.9038 9.82026C50.1781 9.90491 50.4964 9.94893 50.8587 9.94893C50.9942 9.94893 51.1296 9.94218 51.2583 9.92864C51.3904 9.91509 51.5191 9.89816 51.6511 9.88123C51.7832 9.8643 51.9118 9.84061 52.0371 9.81352L52.0778 8.83829C51.9863 8.85522 51.8915 8.87215 51.7933 8.8857C51.6951 8.89924 51.5969 8.90939 51.5021 8.91955C51.4073 8.92971 51.3159 8.93307 51.2245 8.93307C50.8791 8.93307 50.6149 8.8789 50.4253 8.77054C50.2356 8.66218 50.1036 8.50305 50.0325 8.28972C49.9614 8.07639 49.9241 7.81902 49.9241 7.51087V3.43046H51.9694V2.44171H49.9241V0.57251H48.9489C48.9387 1.02288 48.9252 1.37843 48.9015 1.62901C48.8778 1.88298 48.8439 2.06584 48.7931 2.18435C48.7423 2.30287 48.6712 2.37399 48.5764 2.40108C48.4816 2.42817 48.3529 2.44171 48.1904 2.44171H47.459V3.43046H48.6645V7.7276Z" fill="white"/>
<path d="M53.6318 8.44394C53.835 8.75885 54.0822 9.02975 54.3768 9.24986C54.6714 9.46996 55.01 9.64267 55.3994 9.76457C55.7889 9.88647 56.2189 9.9474 56.6862 9.9474C57.3194 9.9474 57.8612 9.856 58.3184 9.67653C58.7755 9.49706 59.148 9.23291 59.4358 8.8909C59.7237 8.54889 59.9336 8.13577 60.0589 7.65831L58.9076 7.45514C58.8161 7.77006 58.6705 8.04436 58.4741 8.26785C58.2743 8.49472 58.0305 8.66404 57.7359 8.78256C57.4413 8.90108 57.0926 8.95865 56.6862 8.95865C56.351 8.95865 56.0496 8.91462 55.7855 8.82319C55.518 8.73176 55.2877 8.60308 55.0947 8.43716C54.9017 8.27123 54.7391 8.07144 54.6139 7.84118C54.4886 7.61092 54.3937 7.34681 54.3294 7.05559C54.2888 6.87274 54.2684 6.6797 54.2515 6.47991H60.0487C60.0656 6.39864 60.0792 6.31063 60.0894 6.21582C60.0995 6.121 60.1029 6.02955 60.1029 5.93812C60.1029 5.4031 60.0216 4.9155 59.8591 4.4753C59.6966 4.0317 59.4629 3.64905 59.1615 3.32397C58.8602 2.99889 58.4945 2.74832 58.0712 2.57224C57.6445 2.39616 57.1671 2.30811 56.6354 2.30811C56.1749 2.30811 55.7516 2.36907 55.369 2.49097C54.983 2.61288 54.6477 2.78555 54.3599 3.01242C54.0721 3.2393 53.8249 3.50681 53.6285 3.81835C53.4287 4.12988 53.2763 4.48204 53.1747 4.86807C53.0697 5.25748 53.0189 5.67401 53.0189 6.11421C53.0189 6.55442 53.0697 6.98786 53.1747 7.38066C53.2797 7.77346 53.4321 8.12902 53.6352 8.44394M54.6206 4.39742C54.7527 4.16716 54.9118 3.96737 55.1015 3.80144C55.2911 3.63552 55.5146 3.50684 55.7719 3.42219C56.0293 3.33753 56.3205 3.29351 56.6456 3.29351C57.0079 3.29351 57.3296 3.35443 57.6073 3.47634C57.8883 3.59824 58.1253 3.77094 58.3184 3.99105C58.5114 4.21115 58.6604 4.47191 58.7586 4.76989C58.8331 4.99 58.8771 5.23042 58.8974 5.48777H54.2752C54.2888 5.3828 54.3023 5.27781 54.326 5.17622C54.3903 4.8884 54.4851 4.62768 54.6172 4.39742" fill="white"/>
<path d="M63.1821 5.74852C63.1821 5.39635 63.2296 5.07463 63.3244 4.7868C63.4192 4.49897 63.5546 4.2518 63.7307 4.04863C63.9068 3.84545 64.1167 3.68629 64.3605 3.57455C64.6043 3.4628 64.8753 3.40524 65.1732 3.40524C65.5356 3.40524 65.8336 3.4865 66.074 3.64904C66.3144 3.81157 66.4973 4.03171 66.6226 4.31276C66.7478 4.59382 66.8122 4.91886 66.8122 5.28795V9.81537H68.0719V5.74852C68.0719 5.39635 68.1192 5.07463 68.2141 4.7868C68.3089 4.49897 68.441 4.2518 68.6137 4.04863C68.7863 3.84545 68.9963 3.68629 69.2435 3.57455C69.4907 3.4628 69.765 3.40524 70.063 3.40524C70.4151 3.40524 70.7131 3.4865 70.9569 3.64904C71.2007 3.81157 71.3836 4.03171 71.5055 4.31276C71.6274 4.59382 71.6883 4.91886 71.6883 5.28795V9.81537H72.948V5.04416C72.948 4.63781 72.8904 4.2687 72.7787 3.93347C72.6669 3.59823 72.501 3.31042 72.2843 3.06662C72.0676 2.82281 71.8035 2.63655 71.4919 2.50449C71.1804 2.37243 70.8282 2.30811 70.4422 2.30811C70.1612 2.30811 69.8937 2.34534 69.6363 2.41645C69.3789 2.48756 69.1419 2.59254 68.9252 2.72799C68.7084 2.86344 68.512 3.02596 68.336 3.21559C68.1599 3.40522 68.0075 3.62195 67.8822 3.86576C67.7637 3.54068 67.5978 3.26302 67.3811 3.03276C67.1643 2.8025 66.9002 2.623 66.5954 2.49771C66.2873 2.37242 65.9453 2.30811 65.5661 2.30811C65.2139 2.30811 64.882 2.36567 64.5773 2.47742C64.2691 2.58916 63.9949 2.75507 63.751 2.97179C63.5072 3.18851 63.2973 3.44587 63.128 3.74386L63.0332 2.44356H61.936V9.81872H63.1821V5.75191V5.74852Z" fill="white"/>
<path d="M7.52701 16.8937C7.32722 16.5788 7.0834 16.3079 6.79557 16.0878C6.50774 15.8677 6.17252 15.6984 5.79326 15.5799C5.41401 15.4613 4.99413 15.4038 4.5336 15.4038C4.07307 15.4038 3.65316 15.4613 3.28067 15.5799C2.9048 15.6984 2.57297 15.8677 2.28514 16.0878C1.99732 16.3079 1.75011 16.5788 1.55371 16.8937C1.35392 17.2086 1.20494 17.5642 1.09997 17.957C0.994994 18.3498 0.944214 18.7731 0.944214 19.2234C0.944214 19.6738 0.994994 20.1106 1.09997 20.5034C1.20494 20.8962 1.35392 21.2484 1.55371 21.5599C1.7535 21.8715 1.99732 22.139 2.28514 22.3591C2.57297 22.5792 2.9048 22.7519 3.28067 22.867C3.65654 22.9855 4.07307 23.0431 4.5336 23.0431C4.99413 23.0431 5.41401 22.9855 5.79326 22.867C6.17252 22.7485 6.50774 22.5792 6.79557 22.3591C7.0834 22.139 7.32722 21.8715 7.52701 21.5599C7.72679 21.2484 7.87578 20.8962 7.98075 20.5034C8.08572 20.1106 8.13654 19.684 8.13654 19.2234C8.13654 18.7629 8.08572 18.3498 7.98075 17.957C7.87578 17.5642 7.72341 17.2086 7.52701 16.8937ZM6.75833 20.1682C6.70076 20.4526 6.60597 20.71 6.48068 20.9403C6.35539 21.1705 6.19962 21.3669 6.01338 21.5227C5.82713 21.6818 5.61379 21.8037 5.36999 21.8884C5.12618 21.973 4.84513 22.0171 4.53021 22.0171C4.21529 22.0171 3.94776 21.973 3.70395 21.8884C3.46014 21.8037 3.24684 21.6818 3.0606 21.5227C2.87436 21.3635 2.72194 21.1705 2.60004 20.9403C2.47814 20.71 2.38334 20.4526 2.32239 20.1682C2.25805 19.8838 2.22756 19.5688 2.22756 19.2268C2.22756 18.8848 2.25804 18.5699 2.31561 18.2854C2.37317 18.001 2.46801 17.7437 2.5933 17.5134C2.71859 17.2832 2.87435 17.0901 3.05382 16.931C3.23329 16.7718 3.44998 16.6499 3.69717 16.5653C3.94437 16.4806 4.22545 16.4366 4.53021 16.4366C4.83497 16.4366 5.12618 16.4806 5.36999 16.5653C5.61379 16.6499 5.82713 16.7718 6.01338 16.931C6.19962 17.0901 6.35539 17.2831 6.48068 17.5066C6.60597 17.7335 6.70076 17.9909 6.75833 18.2787C6.81589 18.5665 6.84637 18.8848 6.84637 19.2268C6.84637 19.5688 6.81589 19.8838 6.75833 20.1682Z" fill="white"/>
<path d="M10.2487 22.9105H11.4948V16.5275H13.5672V15.5387H11.4948V15.0105C11.4948 14.6753 11.5457 14.4078 11.6506 14.2114C11.7556 14.0116 11.9012 13.8693 12.0908 13.7779C12.2804 13.6865 12.5073 13.6425 12.7681 13.6425C12.8663 13.6425 12.9543 13.6425 13.0322 13.6492C13.1101 13.6526 13.1845 13.6628 13.2624 13.6763C13.3403 13.6899 13.4284 13.7102 13.5266 13.7373L13.5672 12.7214C13.4148 12.6842 13.2523 12.6571 13.0864 12.6402C12.9205 12.6232 12.7511 12.613 12.5784 12.613C12.0908 12.613 11.6709 12.7045 11.3255 12.884C10.9801 13.0634 10.7092 13.3309 10.5264 13.6831C10.3401 14.0353 10.2487 14.4755 10.2487 14.9969V15.5387H9.04321V16.5275H10.2487V22.9105Z" fill="white"/>
<path d="M18.5178 22.3625C18.8056 22.5826 19.1375 22.7553 19.5134 22.8705C19.8893 22.989 20.3057 23.0466 20.7663 23.0466C21.3453 23.0466 21.86 22.9484 22.3104 22.7486C22.7608 22.5488 23.1366 22.2576 23.4346 21.8682C23.7326 21.4787 23.9391 21.0047 24.0577 20.4459L22.8657 20.2428C22.7845 20.6389 22.649 20.9708 22.4594 21.2316C22.2697 21.4923 22.0327 21.6887 21.7483 21.8207C21.4638 21.9528 21.1354 22.0171 20.7663 22.0171C20.4581 22.0171 20.1839 21.9731 19.94 21.8885C19.6962 21.8038 19.4829 21.6819 19.2967 21.5228C19.1104 21.3636 18.958 21.1706 18.8361 20.9403C18.7142 20.7101 18.6194 20.4527 18.5584 20.1683C18.4941 19.8838 18.4637 19.5757 18.4637 19.2405C18.4637 18.9052 18.4941 18.5801 18.5584 18.2923C18.6228 18.0045 18.7142 17.7438 18.8361 17.5135C18.958 17.2832 19.1104 17.0902 19.2899 16.931C19.4693 16.7719 19.6827 16.65 19.9265 16.5653C20.1703 16.4807 20.4446 16.4367 20.7527 16.4367C21.1422 16.4367 21.4774 16.5078 21.7618 16.6466C22.0463 16.7854 22.2765 16.9886 22.4526 17.2494C22.6287 17.5101 22.7472 17.8318 22.8116 18.211L24.017 18.0079C23.9188 17.4559 23.7258 16.9852 23.4414 16.5992C23.1569 16.2098 22.7912 15.9152 22.3443 15.712C21.8973 15.5088 21.3657 15.4072 20.7527 15.4072C20.3024 15.4072 19.8859 15.4648 19.5134 15.5833C19.1375 15.7018 18.8056 15.8711 18.511 16.0912C18.2164 16.3114 17.9727 16.5823 17.7796 16.8972C17.5866 17.2121 17.4342 17.5676 17.3326 17.9604C17.2277 18.3533 17.1769 18.7799 17.1769 19.2405C17.1769 19.701 17.2277 20.1276 17.3326 20.5137C17.4376 20.9031 17.5866 21.2519 17.7864 21.5634C17.9862 21.8749 18.23 22.1424 18.5178 22.3625Z" fill="white"/>
<path d="M29.5762 15.4038C29.1698 15.4038 28.7838 15.4952 28.4181 15.6747C28.0524 15.8542 27.7205 16.1115 27.4293 16.44C27.2295 16.6635 27.0568 16.9174 26.9112 17.1917L26.7961 15.5392H25.699V22.9144H26.9451V19.5519C26.9451 19.1998 26.9823 18.878 27.0602 18.5834C27.1381 18.2888 27.2465 18.0281 27.3853 17.7978C27.5241 17.5676 27.6934 17.3746 27.8865 17.2222C28.0795 17.0698 28.2996 16.9513 28.5434 16.87C28.7872 16.7888 29.0479 16.7481 29.329 16.7481C29.4001 16.7481 29.4678 16.7481 29.5322 16.7549C29.5965 16.7583 29.6439 16.7718 29.6812 16.7888L29.7218 15.4207C29.7218 15.4207 29.6913 15.4072 29.6608 15.4072H29.5728L29.5762 15.4038Z" fill="white"/>
<path d="M37.5481 19.3115C37.5582 19.2167 37.5616 19.1253 37.5616 19.0338C37.5616 18.4988 37.4803 18.0112 37.3178 17.571C37.1553 17.1274 36.9216 16.7448 36.6203 16.4197C36.3189 16.0946 35.9532 15.844 35.5299 15.6679C35.1032 15.4918 34.6258 15.4038 34.0941 15.4038C33.6336 15.4038 33.2103 15.4647 32.8277 15.5866C32.4416 15.7085 32.1064 15.8813 31.8186 16.1081C31.5308 16.335 31.2869 16.6025 31.0872 16.914C30.8874 17.2256 30.735 17.5777 30.6334 17.9638C30.5284 18.3532 30.4777 18.7697 30.4777 19.2099C30.4777 19.6501 30.5284 20.0836 30.6334 20.4764C30.7384 20.8692 30.8908 21.2247 31.0939 21.5396C31.2971 21.8546 31.5443 22.1255 31.8389 22.3456C32.1335 22.5657 32.4721 22.7383 32.8615 22.8602C33.2509 22.9821 33.681 23.0431 34.1483 23.0431C34.7815 23.0431 35.3233 22.9517 35.7805 22.7722C36.2376 22.5927 36.6101 22.3286 36.8979 21.9866C37.1858 21.6446 37.3957 21.2315 37.521 20.754L36.3697 20.5508C36.2783 20.8658 36.1326 21.1401 35.9362 21.3635C35.7365 21.5904 35.4926 21.7597 35.198 21.8783C34.9034 21.9968 34.5547 22.0543 34.1483 22.0543C33.8131 22.0543 33.5117 22.0103 33.2476 21.9189C32.9801 21.8275 32.7498 21.6988 32.5568 21.5329C32.3638 21.3669 32.2012 21.1671 32.0759 20.9369C31.9507 20.7066 31.8559 20.4425 31.7915 20.1513C31.7509 19.9684 31.7306 19.7754 31.7136 19.5756H37.5108C37.5278 19.4943 37.5413 19.4063 37.5515 19.3115M32.0793 17.4965C32.2114 17.2662 32.3706 17.0664 32.5602 16.9005C32.7498 16.7346 32.9733 16.6059 33.2307 16.5212C33.488 16.4366 33.7792 16.3926 34.1043 16.3926C34.4666 16.3926 34.7883 16.4535 35.066 16.5754C35.347 16.6973 35.5841 16.87 35.7771 17.0901C35.9701 17.3102 36.1191 17.571 36.2173 17.8689C36.2918 18.0891 36.3358 18.3295 36.3561 18.5868H31.7339C31.7475 18.4819 31.761 18.3769 31.7847 18.2753C31.8491 17.9875 31.9439 17.7267 32.0759 17.4965" fill="white"/>
<path d="M39.179 16.7246C39.0029 17.0192 38.8844 17.3612 38.8201 17.7473L39.9849 17.9098C40.0222 17.5678 40.1238 17.2833 40.2897 17.0632C40.4556 16.8431 40.6825 16.6738 40.9669 16.5621C41.2514 16.4503 41.5731 16.3928 41.9354 16.3928C42.2232 16.3928 42.4806 16.4267 42.7074 16.4944C42.9343 16.5621 43.1239 16.6704 43.2831 16.8194C43.4422 16.9684 43.5642 17.1614 43.6488 17.3951C43.7335 17.6287 43.7775 17.92 43.7775 18.262V18.4245L41.2277 18.6683C40.6317 18.7225 40.1373 18.841 39.7445 19.0273C39.3517 19.2135 39.0537 19.4641 38.8573 19.779C38.6575 20.0939 38.5593 20.4766 38.5593 20.9168C38.5593 21.357 38.6609 21.7295 38.8641 22.0478C39.0673 22.3695 39.3551 22.6133 39.7309 22.786C40.1068 22.9587 40.5504 23.0433 41.0651 23.0433C41.4275 23.0433 41.7627 22.9993 42.0742 22.9079C42.3858 22.8164 42.6702 22.6844 42.9276 22.5083C43.1849 22.3322 43.4118 22.1189 43.6048 21.8717C43.6725 21.7837 43.7301 21.6888 43.7876 21.594V21.7024C43.7876 21.9902 43.8351 22.234 43.9299 22.427C44.0247 22.6201 44.1703 22.7656 44.3633 22.8604C44.5563 22.9553 44.8035 23.0027 45.1015 23.0027C45.1726 23.0027 45.2606 22.9959 45.3656 22.9823C45.4706 22.9688 45.5586 22.9485 45.6298 22.9214L45.6704 22.0545C45.6535 22.0545 45.6196 22.0545 45.5756 22.0613C45.5282 22.0647 45.4875 22.0681 45.4537 22.0681C45.3453 22.0681 45.2505 22.0478 45.1692 22.0072C45.088 21.9665 45.027 21.9022 44.9864 21.8107C44.9457 21.7193 44.9254 21.6042 44.9254 21.4585V18.1773C44.9254 17.6897 44.8577 17.2732 44.7222 16.9244C44.5868 16.5757 44.3938 16.2878 44.1398 16.0643C43.8858 15.8374 43.5743 15.6715 43.2052 15.5632C42.8327 15.4548 42.4196 15.4006 41.9591 15.4006C41.5256 15.4006 41.1294 15.4514 40.7739 15.5496C40.4183 15.6478 40.1068 15.7968 39.8393 15.9898C39.5718 16.1828 39.3517 16.4266 39.1756 16.7212M43.6657 20.5206C43.5811 20.7509 43.4592 20.9574 43.3068 21.1437C43.1544 21.3299 42.9716 21.4891 42.7582 21.6245C42.5449 21.76 42.3112 21.8649 42.0539 21.9428C41.7965 22.0207 41.5223 22.0579 41.2344 22.0579C40.9195 22.0579 40.6486 22.0105 40.4217 21.9157C40.1949 21.8209 40.0256 21.682 39.9138 21.5026C39.8021 21.3231 39.7445 21.1064 39.7445 20.8524C39.7445 20.5985 39.8088 20.3987 39.9341 20.2226C40.0594 20.0465 40.249 19.9043 40.4962 19.7959C40.7434 19.6876 41.0584 19.6165 41.4376 19.5792L43.7944 19.3422V19.7959C43.7944 20.0499 43.7504 20.2903 43.6657 20.5206Z" fill="white"/>
<path d="M46.0875 16.5274H47.293V20.8245C47.293 21.2139 47.337 21.5492 47.4285 21.8269C47.5199 22.1079 47.6554 22.3382 47.8416 22.5176C48.0278 22.6971 48.2581 22.8326 48.5324 22.9172C48.8066 23.0019 49.125 23.0459 49.4873 23.0459C49.6228 23.0459 49.7548 23.0391 49.8869 23.0256C50.0189 23.012 50.1476 22.9951 50.2797 22.9782C50.4117 22.9613 50.5404 22.9375 50.6657 22.9104L50.7063 21.9352C50.6149 21.9521 50.5201 21.9691 50.4219 21.9826C50.3237 21.9962 50.2255 22.0063 50.1307 22.0165C50.0358 22.0266 49.9444 22.03 49.853 22.03C49.5076 22.03 49.2435 21.9759 49.0539 21.8675C48.8642 21.7591 48.7322 21.6 48.661 21.3866C48.5899 21.1733 48.5527 20.916 48.5527 20.6078V16.5274H50.598V15.5386H48.5527V13.6694H47.5775C47.5673 14.1198 47.5538 14.4754 47.5301 14.726C47.5064 14.9799 47.4725 15.1628 47.4217 15.2813C47.3709 15.3998 47.2998 15.4709 47.205 15.498C47.1102 15.5251 46.9815 15.5386 46.819 15.5386H46.0875V16.5274Z" fill="white"/>
<path d="M53.3904 15.54H52.1443V22.9152H53.3904V15.54Z" fill="white"/>
<path d="M53.4468 13.0432H52.0923V14.3977H53.4468V13.0432Z" fill="white"/>
<path d="M55.9956 15.54H54.6682L57.6379 22.9118H58.6132L61.6066 15.54H60.3875L58.1628 21.2729L55.9956 15.54Z" fill="white"/>
<path d="M69.3754 19.3115C69.3855 19.2167 69.3889 19.1253 69.3889 19.0338C69.3889 18.4988 69.3076 18.0112 69.1451 17.571C68.9825 17.1274 68.7489 16.7448 68.4475 16.4197C68.1462 16.0946 67.7804 15.844 67.3571 15.6679C66.9305 15.4918 66.453 15.4038 65.9214 15.4038C65.4609 15.4038 65.0376 15.4647 64.6549 15.5866C64.2689 15.7085 63.9337 15.8813 63.6459 16.1081C63.358 16.335 63.1108 16.6025 62.9144 16.914C62.7146 17.2256 62.5623 17.5777 62.4607 17.9638C62.3557 18.3532 62.3049 18.7697 62.3049 19.2099C62.3049 19.6501 62.3557 20.0836 62.4607 20.4764C62.5657 20.8692 62.718 21.2247 62.9212 21.5396C63.1244 21.8546 63.3716 22.1255 63.6662 22.3456C63.9608 22.5657 64.2994 22.7383 64.6888 22.8602C65.0783 22.9821 65.5083 23.0431 65.9756 23.0431C66.6088 23.0431 67.1506 22.9517 67.6078 22.7722C68.0649 22.5927 68.4374 22.3286 68.7252 21.9866C69.013 21.6446 69.223 21.2315 69.3482 20.754L68.197 20.5508C68.1055 20.8658 67.9599 21.1401 67.7635 21.3635C67.5637 21.5904 67.3199 21.7597 67.0253 21.8783C66.7307 21.9968 66.3819 22.0543 65.9756 22.0543C65.6403 22.0543 65.339 22.0103 65.0748 21.9189C64.8073 21.8275 64.5771 21.6988 64.3841 21.5329C64.1911 21.3669 64.0285 21.1671 63.9032 20.9369C63.7779 20.7066 63.6831 20.4425 63.6188 20.1513C63.5782 19.9684 63.5578 19.7754 63.5409 19.5756H69.3381C69.355 19.4943 69.3686 19.4063 69.3788 19.3115M63.9066 17.4965C64.0387 17.2662 64.1978 17.0664 64.3875 16.9005C64.5771 16.7346 64.8006 16.6059 65.0579 16.5212C65.3153 16.4366 65.6065 16.3926 65.9316 16.3926C66.2939 16.3926 66.6156 16.4535 66.8932 16.5754C67.1743 16.6973 67.4114 16.87 67.6044 17.0901C67.7974 17.3102 67.9464 17.571 68.0446 17.8689C68.1191 18.0891 68.1631 18.3295 68.1834 18.5868H63.5612C63.5748 18.4819 63.5883 18.3769 63.612 18.2753C63.6763 17.9875 63.7712 17.7267 63.9032 17.4965" fill="white"/>
<path d="M1.78296 35.8866C2.15883 36.0593 2.60241 36.1439 3.11711 36.1439C3.47944 36.1439 3.81467 36.0999 4.1262 36.0085C4.43773 35.9171 4.72218 35.785 4.97953 35.6089C5.23689 35.4328 5.46376 35.2195 5.65678 34.9723C5.7245 34.8842 5.78208 34.7894 5.83965 34.6946V34.803C5.83965 35.0942 5.88703 35.3346 5.98184 35.5276C6.07665 35.7206 6.22227 35.8663 6.41529 35.9611C6.6083 36.0559 6.85551 36.1033 7.1535 36.1033C7.22461 36.1033 7.31266 36.0965 7.41764 36.083C7.52261 36.0694 7.61062 36.0491 7.68173 36.022L7.72236 35.1552C7.70204 35.1552 7.6716 35.1552 7.62758 35.1619C7.58017 35.1653 7.5395 35.1687 7.50564 35.1687C7.39728 35.1687 7.30248 35.1484 7.22121 35.1077C7.13994 35.0671 7.07902 35.0028 7.03838 34.9114C6.99775 34.8199 6.97741 34.7048 6.97741 34.5592V31.2779C6.97741 30.7903 6.90969 30.3704 6.77425 30.025C6.6388 29.6762 6.44579 29.3884 6.19183 29.1649C5.93786 28.938 5.62632 28.7721 5.25723 28.6638C4.88813 28.5554 4.4716 28.5012 4.01108 28.5012C3.57764 28.5012 3.18145 28.552 2.8259 28.6502C2.47035 28.7484 2.15881 28.8974 1.8913 29.0904C1.62379 29.2834 1.4037 29.5273 1.22761 29.8219C1.05153 30.1165 0.932994 30.4585 0.868656 30.8445L2.03354 31.007C2.07079 30.665 2.17238 30.3806 2.33831 30.1605C2.50423 29.9404 2.73111 29.7711 3.01555 29.6593C3.29999 29.5476 3.62506 29.49 3.984 29.49C4.27183 29.49 4.52915 29.5238 4.75603 29.5916C4.98291 29.6593 5.17256 29.7677 5.33171 29.9167C5.49086 30.0657 5.61275 30.2587 5.69741 30.4923C5.78206 30.726 5.82609 31.0172 5.82609 31.3592V31.5217L3.27625 31.7655C2.68028 31.8197 2.18589 31.9416 1.79309 32.1245C1.40029 32.3107 1.1023 32.5613 0.905899 32.8762C0.706112 33.1912 0.60791 33.5704 0.60791 34.014C0.60791 34.4576 0.709505 34.8233 0.912678 35.145C1.11585 35.4667 1.4037 35.7139 1.77957 35.8832M1.97935 33.3164C2.10464 33.1403 2.29428 32.9981 2.54147 32.8897C2.78866 32.7814 3.10359 32.7103 3.48285 32.6731L5.83965 32.436V32.8897C5.83965 33.1437 5.79562 33.3841 5.71097 33.6144C5.62631 33.8447 5.50439 34.0513 5.35201 34.2375C5.19963 34.4237 5.01677 34.5829 4.80344 34.7183C4.59011 34.8538 4.35648 34.9588 4.09912 35.0366C3.84177 35.1145 3.56747 35.1518 3.27964 35.1518C2.96472 35.1518 2.69386 35.1043 2.46698 35.0095C2.24011 34.9147 2.0708 34.7759 1.95905 34.5964C1.8473 34.4169 1.78974 34.2002 1.78974 33.9462C1.78974 33.6923 1.85406 33.4925 1.97935 33.3164Z" fill="white"/>
<path d="M15.6983 36.0085V31.2238C15.6983 30.682 15.5933 30.2079 15.38 29.8015C15.1667 29.3952 14.8619 29.0769 14.4657 28.8466C14.0662 28.6164 13.5989 28.5012 13.0571 28.5012C12.6778 28.5012 12.3189 28.5588 11.9803 28.6773C11.6417 28.7958 11.3369 28.9651 11.0727 29.1852C10.8052 29.4053 10.5818 29.6762 10.4023 29.9912L10.3075 28.6367H9.21033V36.0119H10.4565V31.945C10.4565 31.5929 10.514 31.2711 10.6258 30.9833C10.7375 30.6955 10.8933 30.4449 11.0931 30.2384C11.2929 30.0318 11.5231 29.8726 11.7906 29.7643C12.0581 29.6559 12.3494 29.6017 12.6643 29.6017C13.0537 29.6017 13.3788 29.683 13.6395 29.8455C13.9003 30.0081 14.1034 30.2316 14.2422 30.516C14.3811 30.8004 14.4522 31.1289 14.4522 31.498V36.0119H15.6983V36.0085Z" fill="white"/>
<path d="M18.7418 35.4338C19.0093 35.664 19.3107 35.8401 19.6493 35.962C19.988 36.0839 20.3571 36.1449 20.7532 36.1449C21.2578 36.1449 21.7115 36.0467 22.1145 35.8536C22.5174 35.6606 22.8561 35.3864 23.1371 35.041C23.2489 34.9021 23.3471 34.7531 23.4351 34.5974L23.5299 36.0094H24.6271V25.844H23.3809V29.9684C23.3064 29.8465 23.2252 29.728 23.1371 29.6196C22.8561 29.2709 22.5174 28.9999 22.1145 28.8002C21.7115 28.6004 21.2578 28.5022 20.7532 28.5022C20.3537 28.5022 19.988 28.5665 19.6493 28.6918C19.3107 28.8171 19.0059 28.9932 18.7418 29.22C18.4743 29.4469 18.2474 29.7178 18.0646 30.0327C17.8783 30.3477 17.7395 30.6998 17.6447 31.0892C17.5499 31.4787 17.5024 31.8884 17.5024 32.3218C17.5024 32.7553 17.5499 33.1786 17.6447 33.5612C17.7395 33.9472 17.8783 34.296 18.0646 34.6109C18.2508 34.9258 18.4743 35.2001 18.7418 35.4304M18.884 31.4279C18.9484 31.1468 19.0398 30.8928 19.1617 30.6626C19.2836 30.4323 19.436 30.2325 19.6222 30.0666C19.8085 29.9007 20.0218 29.772 20.2656 29.6806C20.5094 29.5891 20.7803 29.5451 21.0783 29.5451C21.4406 29.5451 21.7623 29.6162 22.0468 29.7551C22.3312 29.8939 22.5716 30.0903 22.7714 30.3443C22.9712 30.5983 23.1202 30.8929 23.2252 31.2315C23.3301 31.5701 23.3809 31.9392 23.3809 32.3354C23.3809 32.8603 23.2895 33.3309 23.1033 33.744C22.917 34.1605 22.6529 34.489 22.3109 34.7328C21.9655 34.9766 21.5558 35.0985 21.0783 35.0985C20.7803 35.0985 20.5094 35.0545 20.2656 34.9631C20.0218 34.8716 19.8085 34.743 19.6222 34.5771C19.436 34.4111 19.2836 34.2114 19.1617 33.9811C19.0398 33.7508 18.945 33.4969 18.884 33.2158C18.8197 32.9347 18.7892 32.6368 18.7892 32.3218C18.7892 32.0069 18.8197 31.7055 18.884 31.4279Z" fill="white"/>
<path d="M31.795 30.2417C31.971 30.0386 32.181 29.8794 32.4248 29.7677C32.6686 29.6559 32.9395 29.5984 33.2375 29.5984C33.5998 29.5984 33.9012 29.6796 34.1382 29.8422C34.3786 30.0047 34.5615 30.2282 34.6868 30.5059C34.8121 30.7835 34.8764 31.112 34.8764 31.4811V36.0085H36.1361V31.9416C36.1361 31.5895 36.1835 31.2678 36.2783 30.98C36.3731 30.6921 36.5052 30.4449 36.6779 30.2417C36.8506 30.0386 37.0605 29.8794 37.3077 29.7677C37.5549 29.6559 37.8292 29.5984 38.1272 29.5984C38.4793 29.5984 38.7773 29.6796 39.0211 29.8422C39.2649 30.0047 39.4478 30.2282 39.5697 30.5059C39.6916 30.7869 39.7526 31.112 39.7526 31.4811V36.0085H41.0122V31.2373C41.0122 30.8309 40.9547 30.4619 40.8429 30.1266C40.7312 29.7914 40.5653 29.5035 40.3486 29.2597C40.1318 29.0159 39.8677 28.8297 39.5561 28.6976C39.2446 28.5655 38.8925 28.5012 38.5064 28.5012C38.2254 28.5012 37.9579 28.5385 37.7005 28.6096C37.4432 28.6807 37.2061 28.7857 36.9894 28.9211C36.7727 29.0566 36.5763 29.2191 36.4002 29.4087C36.2241 29.5984 36.0718 29.8151 35.9465 30.0589C35.8279 29.7338 35.662 29.4561 35.4453 29.2259C35.2286 28.9956 34.9678 28.8162 34.6597 28.6909C34.3515 28.5656 34.0095 28.5012 33.6303 28.5012C33.2781 28.5012 32.9497 28.5588 32.6415 28.6705C32.3334 28.7823 32.0591 28.9482 31.8153 29.1649C31.5714 29.3816 31.3615 29.639 31.1922 29.937L31.0974 28.6367H30.0002V36.0119H31.2464V31.945C31.2464 31.5929 31.2938 31.2711 31.3886 30.9833C31.4834 30.6955 31.6189 30.4483 31.795 30.2451" fill="white"/>
<path d="M46.0012 36.0085C46.3127 35.9171 46.5972 35.785 46.8545 35.6089C47.1119 35.4328 47.3388 35.2195 47.5318 34.9723C47.5995 34.8842 47.6571 34.7894 47.7146 34.6946V34.803C47.7146 35.0908 47.762 35.3346 47.8568 35.5276C47.9517 35.7206 48.0973 35.8663 48.2903 35.9611C48.4833 36.0559 48.7305 36.1033 49.0285 36.1033C49.0996 36.1033 49.1876 36.0965 49.2926 36.083C49.3976 36.0694 49.4856 36.0491 49.5567 36.022L49.5974 35.1552C49.5804 35.1552 49.5466 35.1552 49.5025 35.1619C49.4585 35.1653 49.4179 35.1687 49.3806 35.1687C49.2723 35.1687 49.1775 35.1484 49.0962 35.1077C49.0149 35.0671 48.954 35.0028 48.9133 34.9114C48.8727 34.8199 48.8524 34.7048 48.8524 34.5592V31.2779C48.8524 30.7903 48.7847 30.3704 48.6492 30.025C48.5138 29.6762 48.3208 29.3884 48.0668 29.1649C47.8128 28.938 47.5013 28.7721 47.1322 28.6638C46.7631 28.5554 46.3466 28.5012 45.8861 28.5012C45.4526 28.5012 45.0565 28.552 44.7009 28.6502C44.3453 28.7484 44.0338 28.8974 43.7663 29.0904C43.4988 29.2868 43.2787 29.5306 43.1026 29.8219C42.9265 30.1165 42.808 30.4585 42.7437 30.8445L43.9085 31.007C43.9457 30.665 44.0473 30.3806 44.2133 30.1605C44.3792 29.9404 44.6061 29.7711 44.8905 29.6593C45.175 29.5476 45.4966 29.49 45.859 29.49C46.1468 29.49 46.4042 29.5238 46.631 29.5916C46.8579 29.6593 47.0476 29.7677 47.2067 29.9167C47.3659 30.0657 47.4878 30.2587 47.5724 30.4923C47.6571 30.726 47.7011 31.0172 47.7011 31.3592V31.5217L45.1513 31.7655C44.5553 31.8197 44.0609 31.9416 43.6681 32.1245C43.2753 32.3107 42.9773 32.5613 42.7809 32.8762C42.5811 33.1912 42.4829 33.5738 42.4829 34.014C42.4829 34.4542 42.5845 34.8267 42.7877 35.145C42.9909 35.4667 43.2787 35.7105 43.6545 35.8832C44.0304 36.0559 44.474 36.1406 44.9887 36.1406C45.351 36.1406 45.6863 36.0965 45.9978 36.0051M43.8306 34.5998C43.7189 34.4203 43.6613 34.2036 43.6613 33.9496C43.6613 33.6957 43.7257 33.4959 43.851 33.3198C43.9762 33.1437 44.1659 33.0015 44.4131 32.8931C44.6603 32.7848 44.9752 32.7137 45.3544 32.6764L47.7113 32.4394V32.8931C47.7113 33.1471 47.6672 33.3875 47.5826 33.6178C47.4979 33.8481 47.376 34.0546 47.2236 34.2408C47.0712 34.4271 46.8884 34.5863 46.6751 34.7217C46.4617 34.8572 46.2281 34.9655 45.9707 35.04C45.7134 35.1179 45.4391 35.1552 45.1513 35.1552C44.8363 35.1552 44.5654 35.1077 44.3386 35.0129C44.1117 34.9181 43.9424 34.7793 43.8306 34.5998Z" fill="white"/>
<path d="M54.7101 29.8422C54.7812 29.8422 54.8489 29.8422 54.9132 29.8489C54.9776 29.8523 55.025 29.8659 55.0622 29.8828L55.1029 28.5148C55.1029 28.5148 55.0724 28.5012 55.0419 28.5012H54.9539C54.5476 28.5012 54.1615 28.5927 53.7958 28.7721C53.4301 28.955 53.1016 29.209 52.807 29.5374C52.6072 29.7643 52.4345 30.0149 52.2889 30.2892L52.1738 28.6367H51.0767V36.0119H52.3228V32.6493C52.3228 32.2972 52.36 31.9755 52.4379 31.6809C52.5158 31.3863 52.6242 31.1256 52.763 30.8953C52.9018 30.665 53.0711 30.472 53.2641 30.3196C53.4572 30.1672 53.6773 30.0487 53.9211 29.9674C54.1649 29.8862 54.4256 29.8455 54.7067 29.8455" fill="white"/>
<path d="M59.2512 31.8986L62.6408 28.6342H61.1475L57.7206 31.973V25.844H56.4846V36.0094H57.7206V33.419L58.4351 32.7045L61.3912 36.0094H62.9523L59.2512 31.8986Z" fill="white"/>
<path d="M67.0182 36.1432C67.6514 36.1432 68.1933 36.0518 68.6504 35.8723C69.1075 35.6929 69.48 35.4287 69.7679 35.0867C70.0557 34.7447 70.2656 34.3316 70.3909 33.8542L69.2396 33.6509C69.1482 33.9659 69.0025 34.2368 68.8061 34.4636C68.6064 34.6905 68.3626 34.8598 68.068 34.9784C67.7734 35.0969 67.4246 35.1544 67.0182 35.1544C66.683 35.1544 66.3816 35.1104 66.1175 35.019C65.85 34.9276 65.6197 34.7989 65.4267 34.633C65.2337 34.467 65.0711 34.2672 64.9458 34.037C64.8206 33.8067 64.7258 33.546 64.6614 33.2514C64.6208 33.0685 64.6005 32.8755 64.5835 32.6757H70.3807C70.3977 32.5944 70.4112 32.5064 70.4214 32.4116C70.4315 32.3168 70.4349 32.2254 70.4349 32.1339C70.4349 31.6023 70.3537 31.1147 70.1911 30.6711C70.0286 30.2275 69.7949 29.8448 69.4936 29.5198C69.1922 29.1947 68.8265 28.9441 68.4032 28.768C67.9765 28.592 67.4991 28.5039 66.9675 28.5039C66.5069 28.5039 66.0837 28.5649 65.701 28.6868C65.315 28.8087 64.9797 28.9813 64.6919 29.2082C64.4041 29.4351 64.1569 29.7026 63.9605 30.0141C63.7607 30.3257 63.6083 30.6779 63.5067 31.0639C63.4017 31.4533 63.351 31.8698 63.351 32.31C63.351 32.7502 63.4017 33.1837 63.5067 33.5765C63.6117 33.9693 63.7641 34.3248 63.9673 34.6397C64.1704 34.9547 64.4176 35.2256 64.7122 35.4457C65.0068 35.6658 65.3454 35.8385 65.7349 35.9604C66.1243 36.0823 66.5543 36.1432 67.0216 36.1432M64.9492 30.5932C65.0813 30.363 65.2405 30.1632 65.4301 29.9972C65.6197 29.8313 65.8432 29.7026 66.1006 29.618C66.3579 29.5333 66.6492 29.4893 66.9742 29.4893C67.3366 29.4893 67.6582 29.5502 67.9359 29.6721C68.217 29.794 68.454 29.9667 68.647 30.1868C68.84 30.407 68.989 30.6677 69.0872 30.9657C69.1617 31.1858 69.2057 31.4262 69.226 31.6836H64.6039C64.6174 31.5786 64.6309 31.4736 64.6546 31.372C64.719 31.0842 64.8138 30.8235 64.9458 30.5932" fill="white"/>
<path d="M74.5936 36.1443C74.7291 36.1443 74.8611 36.1375 74.9932 36.124C75.1252 36.1104 75.2539 36.0935 75.386 36.0765C75.5181 36.0596 75.6467 36.0359 75.772 36.0088L75.8127 35.0336C75.7212 35.0505 75.6264 35.0675 75.5282 35.081C75.43 35.0946 75.3318 35.1047 75.237 35.1149C75.1422 35.125 75.0508 35.1284 74.9593 35.1284C74.6139 35.1284 74.3498 35.0742 74.1602 34.9658C73.9706 34.8575 73.8385 34.6984 73.7674 34.485C73.6963 34.2717 73.659 34.0143 73.659 33.7062V29.6258H75.7043V28.637H73.659V26.7678H72.6838C72.6736 27.2182 72.6567 27.5737 72.6364 27.8243C72.6127 28.0783 72.5788 28.2611 72.528 28.3797C72.4772 28.4982 72.4061 28.5693 72.3113 28.5964C72.2165 28.6235 72.0878 28.637 71.9253 28.637H71.1938V29.6258H72.3993V33.9229C72.3993 34.3123 72.4433 34.6475 72.5348 34.9252C72.6262 35.2063 72.7616 35.4365 72.9479 35.616C73.1341 35.7955 73.3644 35.931 73.6387 36.0156C73.913 36.1003 74.2313 36.1443 74.5936 36.1443Z" fill="white"/>
<path d="M78.4968 28.6331H77.2507V36.0083H78.4968V28.6331Z" fill="white"/>
<path d="M78.5531 26.1418H77.1986V27.4963H78.5531V26.1418Z" fill="white"/>
<path d="M87.404 36.0085V31.2238C87.404 30.682 87.299 30.2079 87.0857 29.8015C86.8724 29.3952 86.5676 29.0769 86.1714 28.8466C85.7719 28.6164 85.3046 28.5012 84.7628 28.5012C84.3835 28.5012 84.0246 28.5588 83.686 28.6773C83.3473 28.7958 83.0426 28.9651 82.7784 29.1852C82.5109 29.4053 82.2874 29.6762 82.108 29.9912L82.0131 28.6367H80.916V36.0119H82.1622V31.945C82.1622 31.5929 82.2197 31.2711 82.3315 30.9833C82.4432 30.6955 82.599 30.4449 82.7988 30.2384C82.9986 30.0318 83.2288 29.8726 83.4963 29.7643C83.7638 29.6559 84.0551 29.6017 84.37 29.6017C84.7594 29.6017 85.0845 29.683 85.3452 29.8455C85.606 30.0081 85.8091 30.2316 85.9479 30.516C86.0868 30.8004 86.1579 31.1289 86.1579 31.498V36.0119H87.404V36.0085Z" fill="white"/>
<path d="M92.3512 38.8566C92.9472 38.8566 93.4923 38.8058 93.9833 38.7008C94.4743 38.5959 94.8976 38.4401 95.243 38.2268C95.5918 38.0134 95.8593 37.7561 96.049 37.448C96.2386 37.1398 96.3334 36.7842 96.3334 36.3779C96.3334 35.9716 96.2419 35.6634 96.0625 35.3959C95.883 35.1284 95.6189 34.9218 95.2701 34.7728C94.9213 34.6238 94.4913 34.546 93.9766 34.5358L91.3319 34.4545C91.1423 34.4444 90.9831 34.4139 90.8511 34.3597C90.719 34.3055 90.6175 34.2242 90.5463 34.1159C90.4752 34.0075 90.438 33.8822 90.438 33.7366C90.438 33.503 90.5159 33.3201 90.675 33.1948C90.7834 33.1102 90.929 33.0459 91.105 33.0018C91.1321 33.0086 91.1559 33.0188 91.183 33.0255C91.5622 33.1305 91.9719 33.1813 92.4155 33.1813C92.8591 33.1813 93.2655 33.1305 93.6346 33.0255C94.0037 32.9206 94.3254 32.7716 94.5963 32.5786C94.8672 32.3856 95.0771 32.1417 95.2261 31.8539C95.3751 31.5661 95.4496 31.241 95.4496 30.8787C95.4496 30.4825 95.3683 30.1337 95.2058 29.8357C95.1719 29.7714 95.1313 29.7104 95.0906 29.6495C95.2193 29.5513 95.3582 29.4836 95.5038 29.4497C95.7103 29.3989 95.9846 29.3921 96.3164 29.4294L96.3706 28.3458C95.9372 28.3289 95.5749 28.3966 95.2803 28.5557C95.0331 28.6912 94.8164 28.8977 94.6301 29.172C94.5996 29.1483 94.5691 29.1212 94.5353 29.1009C94.2508 28.9079 93.9258 28.7589 93.5601 28.6607C93.1943 28.5625 92.8117 28.5117 92.4155 28.5117C91.9719 28.5117 91.5622 28.5659 91.183 28.6742C90.8037 28.7826 90.4786 28.9384 90.2077 29.1415C89.9368 29.3447 89.7235 29.5919 89.5711 29.8865C89.4187 30.1811 89.3408 30.513 89.3408 30.8821C89.3408 31.2512 89.4187 31.5695 89.5711 31.8573C89.7235 32.1485 89.9368 32.3889 90.2077 32.582C90.2551 32.6158 90.3025 32.6429 90.3533 32.6734C90.2957 32.6937 90.2416 32.714 90.1874 32.7377C89.9029 32.863 89.6862 33.0357 89.5372 33.2524C89.3882 33.4691 89.3138 33.7231 89.3138 34.0109C89.3138 34.2649 89.3713 34.4884 89.4898 34.6814C89.6084 34.8744 89.7743 35.0302 89.991 35.1419C90.0655 35.1792 90.1468 35.2097 90.228 35.2367C90.0147 35.2842 89.8217 35.3485 89.6592 35.4264C89.3646 35.5652 89.1444 35.7548 88.9954 35.9885C88.8464 36.2221 88.772 36.4998 88.772 36.8147C88.772 37.1669 88.8566 37.4716 89.0225 37.729C89.1885 37.9864 89.4289 38.1997 89.7404 38.3656C90.052 38.5315 90.4312 38.6568 90.8714 38.7381C91.315 38.8194 91.806 38.86 92.3478 38.86M90.719 30.2421C90.8139 30.0558 90.9459 29.9001 91.1118 29.7748C91.2777 29.6495 91.4742 29.5547 91.6943 29.4903C91.9144 29.426 92.1582 29.3955 92.4189 29.3955C92.6796 29.3955 92.9201 29.426 93.1368 29.4903C93.3535 29.5547 93.5431 29.6495 93.7057 29.7748C93.8682 29.9034 93.9935 30.0558 94.0849 30.2421C94.1764 30.4283 94.2204 30.6383 94.2204 30.8719C94.2204 31.18 94.1425 31.4374 93.9833 31.644C93.8242 31.8505 93.6109 32.0097 93.34 32.118C93.0691 32.2264 92.7609 32.2806 92.4189 32.2806C92.0769 32.2806 91.762 32.2264 91.4843 32.118C91.2032 32.0097 90.9831 31.8505 90.8206 31.644C90.6581 31.4374 90.5768 31.18 90.5768 30.8719C90.5768 30.6383 90.6242 30.4283 90.719 30.2421ZM90.1772 37.2075C90.0655 37.0484 90.0079 36.8554 90.0079 36.6319C90.0079 36.4084 90.0655 36.195 90.184 36.0291C90.3025 35.8632 90.4718 35.7345 90.6987 35.6431C90.9154 35.555 91.1762 35.5144 91.4776 35.511L93.7768 35.5618C94.2373 35.572 94.5759 35.66 94.7926 35.8259C95.0094 35.9919 95.1177 36.2221 95.1177 36.51C95.1177 36.7436 95.0534 36.9468 94.9281 37.1195C94.8028 37.2922 94.62 37.4344 94.3863 37.5529C94.1527 37.6714 93.8682 37.7595 93.533 37.817C93.1977 37.8746 92.8286 37.9051 92.4223 37.9051C92.0532 37.9051 91.718 37.8814 91.42 37.8306C91.122 37.7798 90.868 37.7053 90.6615 37.6003C90.4549 37.4953 90.2924 37.3667 90.1806 37.2075" fill="white"/>
<path d="M6.22244 47.4244C6.03281 47.6851 5.79578 47.8849 5.51134 48.0136C5.2269 48.1456 4.89843 48.21 4.52933 48.21C4.22118 48.21 3.94688 48.166 3.70307 48.0813C3.45926 47.9967 3.24257 47.8747 3.05972 47.7156C2.87348 47.5564 2.72106 47.3634 2.59916 47.1332C2.47725 46.9029 2.38246 46.6455 2.3215 46.3611C2.25717 46.0767 2.22668 45.7685 2.22668 45.4333C2.22668 45.098 2.25717 44.773 2.3215 44.4851C2.38584 44.1973 2.47725 43.9366 2.59916 43.7063C2.72106 43.4761 2.87347 43.2797 3.05294 43.1239C3.23241 42.9647 3.44574 42.8428 3.68955 42.7582C3.93336 42.6735 4.20762 42.6295 4.51577 42.6295C4.90518 42.6295 5.24041 42.7006 5.52486 42.8394C5.8093 42.9783 6.03957 43.1814 6.21566 43.4422C6.39174 43.7029 6.51024 44.0246 6.57458 44.4039L7.78009 44.2007C7.6785 43.6487 7.48889 43.178 7.20445 42.792C6.92001 42.4026 6.5543 42.108 6.10732 41.9048C5.66034 41.7017 5.12867 41.6001 4.51577 41.6001C4.06202 41.6001 3.64888 41.6576 3.2764 41.7761C2.90053 41.8947 2.56869 42.064 2.27409 42.2841C1.97949 42.5042 1.73567 42.7751 1.54266 43.09C1.34964 43.4049 1.19728 43.7605 1.09569 44.1533C0.990721 44.5461 0.939941 44.9728 0.939941 45.4333C0.939941 45.8938 0.990721 46.3205 1.09569 46.7065C1.20067 47.0959 1.34965 47.4447 1.54944 47.7562C1.74922 48.0678 1.99304 48.3353 2.28087 48.5554C2.5687 48.7755 2.90053 48.9448 3.2764 49.0633C3.65227 49.1818 4.0688 49.2394 4.52933 49.2394C5.10837 49.2394 5.62305 49.1412 6.07342 48.9414C6.52379 48.7416 6.89968 48.4504 7.19767 48.061C7.49566 47.6716 7.70221 47.1975 7.82072 46.6388L6.62877 46.4356C6.5475 46.8352 6.41207 47.1636 6.22244 47.4244Z" fill="white"/>
<path d="M15.5479 43.0864C15.3481 42.7715 15.1043 42.5006 14.8165 42.2805C14.5287 42.0604 14.1934 41.891 13.8141 41.7725C13.4349 41.654 13.015 41.5964 12.5545 41.5964C12.0939 41.5964 11.6741 41.654 11.3016 41.7725C10.9257 41.891 10.5938 42.0604 10.306 42.2805C10.0182 42.5006 9.77102 42.7715 9.57462 43.0864C9.37484 43.4013 9.22581 43.7568 9.12084 44.1496C9.01587 44.5424 8.96509 44.9657 8.96509 45.4161C8.96509 45.8664 9.01587 46.3033 9.12084 46.6961C9.22581 47.0889 9.37484 47.441 9.57462 47.7526C9.77441 48.0641 10.0182 48.3316 10.306 48.5517C10.5938 48.7752 10.9257 48.9445 11.3016 49.0596C11.6775 49.1782 12.0939 49.2357 12.5545 49.2357C13.015 49.2357 13.4349 49.1782 13.8141 49.0596C14.1934 48.9411 14.5287 48.7718 14.8165 48.5517C15.1043 48.3316 15.3481 48.0641 15.5479 47.7526C15.7477 47.441 15.8967 47.0889 16.0017 46.6961C16.1066 46.3033 16.1574 45.8766 16.1574 45.4161C16.1574 44.9555 16.1066 44.5424 16.0017 44.1496C15.8967 43.7568 15.7443 43.4013 15.5479 43.0864ZM14.7826 46.3608C14.7251 46.6453 14.6302 46.9026 14.5049 47.1329C14.3796 47.3632 14.2239 47.5562 14.0376 47.7153C13.8514 47.8745 13.6381 47.9964 13.3942 48.0811C13.1504 48.1657 12.8694 48.2097 12.5545 48.2097C12.2396 48.2097 11.9721 48.1657 11.7283 48.0811C11.4844 47.9964 11.2711 47.8745 11.0849 47.7153C10.8986 47.5562 10.7462 47.3632 10.6243 47.1329C10.5024 46.9026 10.4076 46.6453 10.3467 46.3608C10.2823 46.0764 10.2519 45.7615 10.2519 45.4195C10.2519 45.0774 10.2823 44.7626 10.3399 44.4781C10.3975 44.1937 10.4923 43.9363 10.6176 43.706C10.7429 43.4758 10.8986 43.2828 11.0781 43.1236C11.2576 42.9645 11.4743 42.8425 11.7215 42.7579C11.9687 42.6732 12.2497 42.6292 12.5545 42.6292C12.8592 42.6292 13.1504 42.6732 13.3942 42.7579C13.6381 42.8425 13.8514 42.9645 14.0376 43.1236C14.2239 43.2828 14.3796 43.4724 14.5049 43.6993C14.6302 43.9261 14.7251 44.1835 14.7826 44.4713C14.8402 44.7592 14.8706 45.0774 14.8706 45.4195C14.8706 45.7615 14.8402 46.0764 14.7826 46.3608Z" fill="white"/>
<path d="M28.4128 42.3549C28.196 42.1111 27.9319 41.9249 27.6204 41.7928C27.3088 41.6608 26.9601 41.5964 26.5706 41.5964C26.2896 41.5964 26.0221 41.6337 25.7647 41.7048C25.5074 41.7759 25.2703 41.8809 25.0536 42.0163C24.8369 42.1518 24.6405 42.3143 24.4644 42.5039C24.2883 42.6935 24.136 42.9103 24.0107 43.1541C23.8922 42.829 23.7262 42.5514 23.5095 42.3211C23.2928 42.0908 23.0287 41.9113 22.7239 41.786C22.4157 41.6608 22.0737 41.5964 21.6945 41.5964C21.3423 41.5964 21.0105 41.654 20.7057 41.7657C20.3976 41.8775 20.1233 42.0434 19.8795 42.2601C19.6357 42.4768 19.4291 42.7342 19.2564 43.0322L19.1616 41.7319H18.0645V49.107H19.3106V45.0402C19.3106 44.688 19.358 44.3663 19.4528 44.0785C19.5476 43.7907 19.6831 43.5435 19.8592 43.3403C20.0352 43.1372 20.2452 42.978 20.489 42.8663C20.7328 42.7545 21.0037 42.697 21.3017 42.697C21.664 42.697 21.962 42.7782 22.2024 42.9408C22.4428 43.1033 22.6257 43.3234 22.751 43.6044C22.8763 43.8855 22.9406 44.2106 22.9406 44.5797V49.107H24.2003V45.0402C24.2003 44.688 24.2477 44.3663 24.3425 44.0785C24.4373 43.7907 24.5694 43.5435 24.7421 43.3403C24.9148 43.1372 25.1247 42.978 25.3719 42.8663C25.6191 42.7545 25.8934 42.697 26.1914 42.697C26.5435 42.697 26.8415 42.7782 27.0853 42.9408C27.3292 43.1033 27.512 43.3234 27.6339 43.6044C27.7558 43.8855 27.8168 44.2106 27.8168 44.5797V49.107H29.0764V44.3359C29.0764 43.9295 29.0189 43.5604 28.9071 43.2252C28.7954 42.89 28.6295 42.6021 28.4128 42.3583" fill="white"/>
<path d="M41.7244 42.3549C41.5076 42.1111 41.2435 41.9249 40.932 41.7928C40.6205 41.6608 40.2717 41.5964 39.8823 41.5964C39.6012 41.5964 39.3337 41.6337 39.0764 41.7048C38.819 41.7759 38.5819 41.8809 38.3652 42.0163C38.1485 42.1518 37.9521 42.3143 37.776 42.5039C37.5999 42.6935 37.4476 42.9103 37.3223 43.1541C37.2038 42.829 37.0378 42.5514 36.8211 42.3211C36.6044 42.0908 36.3403 41.9113 36.0355 41.786C35.7274 41.6608 35.3854 41.5964 35.0061 41.5964C34.654 41.5964 34.3221 41.654 34.0173 41.7657C33.7092 41.8775 33.4349 42.0434 33.1911 42.2601C32.9473 42.4768 32.7407 42.7342 32.568 43.0322L32.4732 41.7319H31.3761V49.107H32.6222V45.0402C32.6222 44.688 32.6696 44.3663 32.7644 44.0785C32.8593 43.7907 32.9947 43.5435 33.1708 43.3403C33.3469 43.1372 33.5568 42.978 33.8006 42.8663C34.0444 42.7545 34.3153 42.697 34.6133 42.697C34.9756 42.697 35.2736 42.7782 35.5141 42.9408C35.7545 43.1033 35.9373 43.3234 36.0626 43.6044C36.1879 43.8855 36.2522 44.2106 36.2522 44.5797V49.107H37.5119V45.0402C37.5119 44.688 37.5593 44.3663 37.6541 44.0785C37.7489 43.7907 37.881 43.5435 38.0537 43.3403C38.2264 43.1372 38.4364 42.978 38.6835 42.8663C38.9307 42.7545 39.205 42.697 39.503 42.697C39.8552 42.697 40.1531 42.7782 40.397 42.9408C40.6408 43.1033 40.8236 43.3234 40.9455 43.6044C41.0674 43.8855 41.1284 44.2106 41.1284 44.5797V49.107H42.3881V44.3359C42.3881 43.9295 42.3305 43.5604 42.2187 43.2252C42.107 42.89 41.9411 42.6021 41.7244 42.3583" fill="white"/>
<path d="M49.722 45.7313C49.722 46.0292 49.6882 46.3035 49.6204 46.5507C49.5527 46.7979 49.4579 47.0214 49.336 47.2212C49.2141 47.421 49.0651 47.5869 48.889 47.7224C48.7129 47.8578 48.5131 47.9628 48.2862 48.0339C48.0594 48.105 47.8155 48.1422 47.5548 48.1422C47.2737 48.1422 47.03 48.1016 46.8166 48.0203C46.6033 47.9391 46.4272 47.8205 46.2816 47.6682C46.136 47.5158 46.0276 47.3262 45.9497 47.0993C45.8719 46.8724 45.8346 46.6151 45.8346 46.3272V41.7321H44.575V46.5033C44.575 46.9368 44.6359 47.3228 44.7578 47.6614C44.8797 48 45.0558 48.2878 45.286 48.5215C45.5163 48.7585 45.7906 48.9346 46.1123 49.0565C46.434 49.1784 46.7929 49.2394 47.1891 49.2394C47.4769 49.2394 47.7512 49.2055 48.0086 49.1378C48.2659 49.0701 48.503 48.9752 48.7197 48.8533C48.9364 48.7314 49.1328 48.5791 49.3089 48.3928C49.485 48.2066 49.6407 48.0034 49.7762 47.7765L49.871 49.1039H50.9681V41.7288H49.722V45.7279V45.7313Z" fill="white"/>
<path d="M58.6281 41.9418C58.2285 41.7116 57.7612 41.5964 57.2194 41.5964C56.8402 41.5964 56.4812 41.654 56.1426 41.7725C55.804 41.891 55.4992 42.0604 55.2351 42.2805C54.9676 42.5006 54.7441 42.7715 54.5646 43.0864L54.4698 41.7319H53.3727V49.107H54.6188V45.0402C54.6188 44.688 54.6764 44.3663 54.7881 44.0785C54.8998 43.7907 55.059 43.5401 55.2554 43.3336C55.4552 43.127 55.6889 42.9678 55.953 42.8595C56.2171 42.7511 56.5117 42.697 56.8266 42.697C57.216 42.697 57.5411 42.7782 57.8018 42.9408C58.0626 43.1033 58.2658 43.3268 58.4046 43.6112C58.5434 43.8957 58.6145 44.2241 58.6145 44.5932V49.107H59.8607V44.3223C59.8607 43.7805 59.7523 43.3065 59.5424 42.9001C59.329 42.4938 59.0243 42.1754 58.6281 41.9452" fill="white"/>
<path d="M63.4122 41.7319H62.166V49.1071H63.4122V41.7319Z" fill="white"/>
<path d="M63.4685 39.2358H62.114V40.5903H63.4685V39.2358Z" fill="white"/>
<path d="M70.6083 47.4244C70.4187 47.6851 70.1816 47.8849 69.8972 48.0136C69.6128 48.1456 69.2843 48.21 68.9152 48.21C68.6071 48.21 68.3328 48.166 68.089 48.0813C67.8452 47.9967 67.6284 47.8747 67.4456 47.7156C67.2593 47.5564 67.107 47.3634 66.9851 47.1332C66.8632 46.9029 66.7684 46.6455 66.7074 46.3611C66.6431 46.0767 66.6126 45.7685 66.6126 45.4333C66.6126 45.098 66.6431 44.773 66.7074 44.4851C66.7717 44.1973 66.8632 43.9366 66.9851 43.7063C67.107 43.4761 67.2594 43.2797 67.4388 43.1239C67.6183 42.9647 67.8316 42.8428 68.0755 42.7582C68.3193 42.6735 68.5935 42.6295 68.9017 42.6295C69.2911 42.6295 69.6263 42.7006 69.9108 42.8394C70.1952 42.9783 70.4255 43.1814 70.6016 43.4422C70.7776 43.7029 70.8961 44.0246 70.9605 44.4039L72.166 44.2007C72.0644 43.6487 71.8748 43.178 71.5903 42.792C71.3059 42.4026 70.9402 42.108 70.4932 41.9048C70.0462 41.7017 69.5146 41.6001 68.9017 41.6001C68.4479 41.6001 68.0348 41.6576 67.6623 41.7761C67.2864 41.8947 66.9546 42.064 66.66 42.2841C66.3654 42.5042 66.1216 42.7751 65.9286 43.09C65.7355 43.4049 65.5832 43.7605 65.4816 44.1533C65.3766 44.5461 65.3258 44.9728 65.3258 45.4333C65.3258 45.8938 65.3766 46.3205 65.4816 46.7065C65.5866 47.0959 65.7356 47.4447 65.9353 47.7562C66.1351 48.0678 66.3789 48.3353 66.6668 48.5554C66.9546 48.7755 67.2864 48.9448 67.6623 49.0633C68.0382 49.1818 68.4547 49.2394 68.9152 49.2394C69.4943 49.2394 70.009 49.1412 70.4593 48.9414C70.9097 48.7416 71.2856 48.4504 71.5836 48.061C71.8816 47.6716 72.0881 47.1975 72.2066 46.6388L71.0147 46.4356C70.9334 46.8352 70.798 47.1636 70.6083 47.4244Z" fill="white"/>
<path d="M79.9231 48.2639C79.8148 48.2639 79.7199 48.2436 79.6386 48.203C79.5574 48.1623 79.4965 48.098 79.4558 48.0065C79.4152 47.9151 79.3948 47.8 79.3948 47.6544V44.3731C79.3948 43.8855 79.3271 43.469 79.1917 43.1202C79.0562 42.7715 78.8632 42.4836 78.6093 42.2601C78.3553 42.0332 78.0438 41.8673 77.6747 41.759C77.3022 41.6506 76.889 41.5964 76.4285 41.5964C75.9951 41.5964 75.5989 41.6472 75.2433 41.7454C74.8878 41.8436 74.5763 41.9926 74.3087 42.1856C74.0412 42.3786 73.8211 42.6225 73.6451 42.9171C73.469 43.2117 73.3504 43.5536 73.2861 43.9397L74.451 44.1022C74.4882 43.7602 74.5898 43.4758 74.7557 43.2557C74.9217 43.0356 75.1485 42.8662 75.433 42.7545C75.7174 42.6428 76.0391 42.5852 76.4014 42.5852C76.6893 42.5852 76.9466 42.6191 77.1735 42.6868C77.4004 42.7545 77.59 42.8629 77.7492 43.0119C77.9083 43.1608 78.0302 43.3539 78.1148 43.5875C78.1995 43.8212 78.2435 44.1124 78.2435 44.4544V44.6169L75.6937 44.8608C75.0978 44.9149 74.6034 45.0334 74.2106 45.2197C73.8178 45.4059 73.5198 45.6565 73.3234 45.9714C73.1236 46.2863 73.0254 46.6656 73.0254 47.1092C73.0254 47.5528 73.1269 47.9219 73.3301 48.2402C73.5333 48.5619 73.8211 48.8057 74.197 48.9784C74.5729 49.1511 75.0165 49.2357 75.5312 49.2357C75.8935 49.2357 76.2288 49.1917 76.5403 49.1003C76.8518 49.0088 77.1362 48.8768 77.3936 48.7007C77.6509 48.5246 77.8778 48.3113 78.0708 48.0641C78.1386 47.9761 78.1961 47.8812 78.2537 47.7864V47.8948C78.2537 48.1826 78.3011 48.4264 78.3959 48.6195C78.4907 48.8125 78.6363 48.9581 78.8293 49.0529C79.0224 49.1477 79.2696 49.1951 79.5676 49.1951C79.6387 49.1951 79.7267 49.1883 79.8317 49.1748C79.9367 49.1613 80.0247 49.1409 80.0958 49.1138L80.1365 48.247C80.1195 48.247 80.0856 48.2469 80.0416 48.2537C79.9942 48.2571 79.9536 48.2605 79.9197 48.2605M78.125 46.713C78.0404 46.9433 77.9185 47.1532 77.7661 47.3361C77.6137 47.5223 77.4309 47.6815 77.2175 47.8169C77.0042 47.9524 76.7705 48.0573 76.5132 48.1352C76.2558 48.2131 75.9816 48.2504 75.6937 48.2504C75.3788 48.2504 75.1079 48.2029 74.881 48.1081C74.6542 48.0133 74.4848 47.8745 74.3731 47.695C74.2614 47.5156 74.2038 47.2988 74.2038 47.0449C74.2038 46.7909 74.2681 46.5911 74.3934 46.415C74.5187 46.2389 74.7083 46.0967 74.9555 45.9884C75.2027 45.88 75.5176 45.8089 75.8969 45.7716L78.2537 45.5346V45.9884C78.2537 46.2423 78.2097 46.4827 78.125 46.713Z" fill="white"/>
<path d="M84.5924 48.21C84.4976 48.2202 84.4062 48.2236 84.3148 48.2236C83.9694 48.2236 83.7053 48.1694 83.5156 48.0611C83.326 47.9527 83.1939 47.7935 83.1228 47.5802C83.0517 47.3669 83.0145 47.1062 83.0145 46.8014V42.721H85.0597V41.7322H83.0145V39.863H82.0393C82.0291 40.3134 82.0156 40.669 81.9918 40.9195C81.9681 41.1735 81.9343 41.3597 81.8835 41.4749C81.8327 41.5934 81.7616 41.6645 81.6667 41.6916C81.5719 41.7187 81.4433 41.7322 81.2808 41.7322H80.5493V42.721H81.7548V47.0181C81.7548 47.4075 81.7988 47.7428 81.8902 48.0204C81.9817 48.3015 82.1171 48.5318 82.3034 48.7112C82.4896 48.8907 82.7199 49.0261 82.9942 49.1108C83.2684 49.1954 83.5867 49.2395 83.9491 49.2395C84.0845 49.2395 84.2166 49.2327 84.3486 49.2192C84.4807 49.2056 84.6094 49.1887 84.7415 49.1718C84.8735 49.1548 85.0022 49.1311 85.1275 49.104L85.1681 48.1288C85.0767 48.1457 84.9819 48.1626 84.8837 48.1762C84.7855 48.1897 84.6873 48.1999 84.5924 48.21Z" fill="white"/>
<path d="M87.8501 41.7319H86.604V49.1071H87.8501V41.7319Z" fill="white"/>
<path d="M87.9042 39.2358H86.5497V40.5903H87.9042V39.2358Z" fill="white"/>
<path d="M96.3509 43.0864C96.1511 42.7715 95.9073 42.5006 95.6195 42.2805C95.3316 42.0604 94.9964 41.891 94.6171 41.7725C94.2379 41.654 93.818 41.5964 93.3575 41.5964C92.8969 41.5964 92.4771 41.654 92.1046 41.7725C91.7287 41.891 91.3968 42.0604 91.109 42.2805C90.8212 42.5006 90.574 42.7715 90.3776 43.0864C90.1778 43.4013 90.0288 43.7568 89.9238 44.1496C89.8188 44.5424 89.7681 44.9657 89.7681 45.4161C89.7681 45.8664 89.8188 46.3033 89.9238 46.6961C90.0288 47.0889 90.1778 47.441 90.3776 47.7526C90.5774 48.0641 90.8212 48.3316 91.109 48.5517C91.3968 48.7752 91.7287 48.9445 92.1046 49.0596C92.4804 49.1782 92.8969 49.2357 93.3575 49.2357C93.818 49.2357 94.2379 49.1782 94.6171 49.0596C94.9964 48.9411 95.3316 48.7718 95.6195 48.5517C95.9073 48.3316 96.1511 48.0641 96.3509 47.7526C96.5507 47.441 96.6997 47.0889 96.8046 46.6961C96.9096 46.3033 96.9604 45.8766 96.9604 45.4161C96.9604 44.9555 96.9096 44.5424 96.8046 44.1496C96.6997 43.7568 96.5507 43.4013 96.3509 43.0864ZM95.5856 46.3608C95.528 46.6453 95.4332 46.9026 95.3079 47.1329C95.1826 47.3632 95.0269 47.5562 94.8406 47.7153C94.6544 47.8745 94.441 47.9964 94.1972 48.0811C93.9534 48.1657 93.6724 48.2097 93.3575 48.2097C93.0425 48.2097 92.775 48.1657 92.5312 48.0811C92.2874 47.9964 92.0741 47.8745 91.8878 47.7153C91.7016 47.5562 91.5492 47.3632 91.4273 47.1329C91.3054 46.9026 91.2106 46.6453 91.1496 46.3608C91.0853 46.0764 91.0548 45.7615 91.0548 45.4195C91.0548 45.0774 91.0853 44.7626 91.1429 44.4781C91.2005 44.1937 91.2953 43.9363 91.4205 43.706C91.5458 43.4758 91.7016 43.2828 91.8811 43.1236C92.0639 42.9645 92.2773 42.8425 92.5245 42.7579C92.7716 42.6732 93.0527 42.6292 93.3575 42.6292C93.6622 42.6292 93.9534 42.6732 94.1972 42.7579C94.441 42.8425 94.6544 42.9645 94.8406 43.1236C95.0269 43.2828 95.1826 43.4724 95.3079 43.6993C95.4332 43.9261 95.528 44.1835 95.5856 44.4713C95.6432 44.7592 95.6737 45.0774 95.6737 45.4195C95.6737 45.7615 95.6432 46.0764 95.5856 46.3608Z" fill="white"/>
<path d="M104.118 41.9418C103.719 41.7116 103.252 41.5964 102.71 41.5964C102.331 41.5964 101.972 41.654 101.633 41.7725C101.294 41.891 100.99 42.0604 100.725 42.2805C100.458 42.5006 100.234 42.7715 100.055 43.0864L99.9602 41.7319H98.863V49.107H100.109V45.0402C100.109 44.688 100.167 44.3663 100.278 44.0785C100.39 43.7907 100.549 43.5401 100.746 43.3336C100.946 43.127 101.179 42.9678 101.443 42.8595C101.707 42.7511 102.002 42.697 102.317 42.697C102.706 42.697 103.032 42.7782 103.292 42.9408C103.553 43.1033 103.756 43.3268 103.895 43.6112C104.034 43.8957 104.105 44.2241 104.105 44.5932V49.107H105.351V44.3223C105.351 43.7805 105.246 43.3065 105.033 42.9001C104.819 42.4938 104.515 42.1754 104.118 41.9452" fill="white"/>
<path d="M113.057 45.9006C112.871 45.6161 112.579 45.3893 112.183 45.2233C111.787 45.0574 111.269 44.9321 110.639 44.8509L110.03 44.7696C109.633 44.7154 109.308 44.6443 109.061 44.5597C108.814 44.475 108.635 44.3565 108.526 44.2075C108.418 44.0585 108.364 43.8655 108.364 43.6318C108.364 43.4151 108.435 43.2289 108.574 43.0765C108.712 42.9241 108.916 42.8022 109.176 42.7175C109.437 42.6329 109.749 42.5888 110.111 42.5888C110.507 42.5888 110.842 42.643 111.113 42.7514C111.384 42.8597 111.597 43.0223 111.75 43.239C111.902 43.4557 111.997 43.7368 112.034 44.0788L113.172 43.9298C113.108 43.405 112.952 42.9715 112.698 42.6295C112.444 42.2875 112.102 42.0302 111.675 41.8575C111.245 41.6848 110.724 41.6001 110.111 41.6001C109.498 41.6001 108.983 41.6881 108.546 41.8642C108.106 42.0403 107.771 42.2909 107.537 42.616C107.304 42.941 107.185 43.3203 107.185 43.7537C107.185 44.1601 107.277 44.5054 107.463 44.7831C107.649 45.0642 107.93 45.2877 108.309 45.4536C108.689 45.6195 109.173 45.7448 109.759 45.8261L110.395 45.9074C110.819 45.9615 111.157 46.036 111.404 46.1309C111.652 46.2257 111.834 46.351 111.946 46.5101C112.058 46.6693 112.116 46.8758 112.116 47.1264C112.116 47.2991 112.078 47.4515 112 47.5869C111.923 47.7224 111.807 47.8409 111.655 47.9391C111.503 48.0373 111.31 48.1152 111.079 48.1693C110.849 48.2235 110.575 48.2506 110.26 48.2506C109.627 48.2506 109.129 48.1186 108.77 47.8578C108.408 47.5971 108.191 47.184 108.12 46.6252L106.969 46.7878C107.06 47.3397 107.233 47.7969 107.49 48.1626C107.747 48.5283 108.106 48.7992 108.567 48.9753C109.027 49.1513 109.603 49.2394 110.287 49.2394C110.937 49.2394 111.489 49.148 111.939 48.9617C112.39 48.7755 112.735 48.5147 112.976 48.1761C113.216 47.8375 113.335 47.4413 113.335 46.9909C113.335 46.5406 113.243 46.185 113.057 45.9006Z" fill="white"/>
</svg>
