<svg width="113" height="40" viewBox="0 0 113 40" fill="none" xmlns="http://www.w3.org/2000/svg">
<path d="M8.12698 15.1325C7.89484 15.2862 7.59998 15.4054 7.23608 15.4901C6.87533 15.5748 6.43927 15.6156 5.93108 15.6156C4.96174 15.6156 4.19004 15.4117 3.62225 15.0039C3.05131 14.5961 2.70624 13.953 2.58076 13.0746L0.246826 13.3977C0.400539 14.3357 0.70169 15.1168 1.14715 15.7317C1.5926 16.3465 2.21372 16.8077 3.00739 17.1057C3.80105 17.4068 4.79863 17.5574 6.0001 17.5574C7.20157 17.5574 8.10188 17.3974 8.88927 17.0712C9.67352 16.7481 10.279 16.2901 10.7025 15.6972C11.126 15.1043 11.3393 14.4078 11.3393 13.6048C11.3393 12.8519 11.1762 12.2276 10.853 11.732C10.5299 11.2395 10.028 10.8474 9.35042 10.5525C8.67283 10.2607 7.80387 10.0443 6.74043 9.90625L5.51699 9.76822C4.91782 9.67725 4.42845 9.56431 4.04887 9.43256C3.67243 9.30081 3.40267 9.12513 3.23954 8.9024C3.07642 8.67968 2.99799 8.39107 2.99799 8.03659C2.99799 7.68211 3.10463 7.41233 3.32109 7.18019C3.53754 6.94805 3.84812 6.76924 4.25593 6.63749C4.66374 6.50573 5.14683 6.43985 5.69894 6.43985C6.32948 6.43985 6.85651 6.52455 7.28 6.69395C7.7035 6.86335 8.03288 7.11431 8.27443 7.4437C8.51284 7.77622 8.66342 8.20913 8.72616 8.74869L11.0381 8.44754C10.9315 7.55349 10.6523 6.8163 10.2068 6.22968C9.75823 5.64306 9.16221 5.21015 8.4156 4.92468C7.66899 4.63922 6.76239 4.49805 5.70208 4.49805C4.64177 4.49805 3.74459 4.65176 2.97602 4.95919C2.20432 5.26661 1.6177 5.7058 1.20675 6.27673C0.798938 6.84767 0.595048 7.51585 0.595048 8.28755C0.595048 8.98083 0.751882 9.57372 1.06872 10.0662C1.38556 10.5587 1.86553 10.9509 2.51175 11.2457C3.15798 11.5375 3.96732 11.7539 4.93665 11.892L6.2291 12.03C6.85963 12.1241 7.3647 12.237 7.74114 12.3782C8.11758 12.5162 8.39678 12.7045 8.57245 12.9429C8.74812 13.1813 8.83909 13.5013 8.83909 13.9028C8.83909 14.1506 8.77634 14.3765 8.654 14.5835C8.53165 14.7906 8.35286 14.9725 8.12386 15.1262" fill="black"/>
<path d="M8.12698 15.1325C7.89484 15.2862 7.59998 15.4054 7.23608 15.4901C6.87533 15.5748 6.43927 15.6156 5.93108 15.6156C4.96174 15.6156 4.19004 15.4117 3.62225 15.0039C3.05131 14.5961 2.70624 13.953 2.58076 13.0746L0.246826 13.3977C0.400539 14.3357 0.70169 15.1168 1.14715 15.7317C1.5926 16.3465 2.21372 16.8077 3.00739 17.1057C3.80105 17.4068 4.79863 17.5574 6.0001 17.5574C7.20157 17.5574 8.10188 17.3974 8.88927 17.0712C9.67352 16.7481 10.279 16.2901 10.7025 15.6972C11.126 15.1043 11.3393 14.4078 11.3393 13.6048C11.3393 12.8519 11.1762 12.2276 10.853 11.732C10.5299 11.2395 10.028 10.8474 9.35042 10.5525C8.67283 10.2607 7.80387 10.0443 6.74043 9.90625L5.51699 9.76822C4.91782 9.67725 4.42845 9.56431 4.04887 9.43256C3.67243 9.30081 3.40267 9.12513 3.23954 8.9024C3.07642 8.67968 2.99799 8.39107 2.99799 8.03659C2.99799 7.68211 3.10463 7.41233 3.32109 7.18019C3.53754 6.94805 3.84812 6.76924 4.25593 6.63749C4.66374 6.50573 5.14683 6.43985 5.69894 6.43985C6.32948 6.43985 6.85651 6.52455 7.28 6.69395C7.7035 6.86335 8.03288 7.11431 8.27443 7.4437C8.51284 7.77622 8.66342 8.20913 8.72616 8.74869L11.0381 8.44754C10.9315 7.55349 10.6523 6.8163 10.2068 6.22968C9.75823 5.64306 9.16221 5.21015 8.4156 4.92468C7.66899 4.63922 6.76239 4.49805 5.70208 4.49805C4.64177 4.49805 3.74459 4.65176 2.97602 4.95919C2.20432 5.26661 1.6177 5.7058 1.20675 6.27673C0.798938 6.84767 0.595048 7.51585 0.595048 8.28755C0.595048 8.98083 0.751882 9.57372 1.06872 10.0662C1.38556 10.5587 1.86553 10.9509 2.51175 11.2457C3.15798 11.5375 3.96732 11.7539 4.93665 11.892L6.2291 12.03C6.85963 12.1241 7.3647 12.237 7.74114 12.3782C8.11758 12.5162 8.39678 12.7045 8.57245 12.9429C8.74812 13.1813 8.83909 13.5013 8.83909 13.9028C8.83909 14.1506 8.77634 14.3765 8.654 14.5835C8.53165 14.7906 8.35286 14.9725 8.12386 15.1262" fill="black" fill-opacity="0.2"/>
<path d="M16.8263 4.73682H14.2633V17.3288H16.8263V4.73682Z" fill="black"/>
<path d="M16.8263 4.73682H14.2633V17.3288H16.8263V4.73682Z" fill="black" fill-opacity="0.2"/>
<path d="M16.8982 0.345215H14.1941V2.93324H16.8982V0.345215Z" fill="black"/>
<path d="M16.8982 0.345215H14.1941V2.93324H16.8982V0.345215Z" fill="black" fill-opacity="0.2"/>
<path d="M23.5836 0H21.0206V17.3288H23.5836V0Z" fill="black"/>
<path d="M23.5836 0H21.0206V17.3288H23.5836V0Z" fill="black" fill-opacity="0.2"/>
<path d="M32.9632 17.3288L38.0012 4.73682H35.5293L32.0503 13.9596L28.6216 4.73682H25.9175L30.9775 17.3288H32.9632Z" fill="black"/>
<path d="M32.9632 17.3288L38.0012 4.73682H35.5293L32.0503 13.9596L28.6216 4.73682H25.9175L30.9775 17.3288H32.9632Z" fill="black" fill-opacity="0.2"/>
<path d="M40.1026 14.9948C40.4571 15.5343 40.8868 15.9923 41.395 16.3688C41.9032 16.7452 42.493 17.0401 43.1643 17.2471C43.8356 17.4542 44.5697 17.5577 45.3696 17.5577C46.477 17.5577 47.4338 17.404 48.2337 17.0965C49.0336 16.7891 49.6799 16.3374 50.1755 15.7445C50.668 15.1516 51.0225 14.4458 51.2389 13.6302L48.8831 13.2129C48.745 13.7054 48.5223 14.1258 48.2117 14.4709C47.9043 14.8159 47.5153 15.0826 47.0448 15.2677C46.5742 15.4528 46.0158 15.5437 45.3696 15.5437C44.8457 15.5437 44.3752 15.4747 43.9611 15.3367C43.5439 15.1987 43.1831 14.9947 42.8757 14.725C42.5683 14.4552 42.3079 14.1383 42.1009 13.7776C41.8938 13.4168 41.7401 12.9996 41.6397 12.5291C41.5832 12.2656 41.5456 11.9926 41.5205 11.7103H51.217C51.2641 11.5409 51.2923 11.3684 51.308 11.1896C51.3236 11.0139 51.3299 10.8319 51.3299 10.6469C51.3299 9.72144 51.1888 8.887 50.9033 8.14039C50.6178 7.39379 50.21 6.74756 49.6799 6.19859C49.1497 5.65275 48.5129 5.23239 47.7726 4.94064C47.0322 4.6489 46.2103 4.50146 45.3006 4.50146C44.5007 4.50146 43.7666 4.60498 43.1047 4.81203C42.4428 5.01907 41.8593 5.31708 41.3605 5.70293C40.8586 6.08879 40.432 6.54679 40.0775 7.07694C39.723 7.6071 39.4563 8.20627 39.2807 8.86818C39.1019 9.53009 39.014 10.2453 39.014 11.017C39.014 11.7887 39.1081 12.5071 39.2901 13.1784C39.4752 13.8497 39.745 14.452 40.0994 14.9916M42.1134 8.24705C42.3299 7.87688 42.5871 7.56319 42.8882 7.29968C43.1894 7.03931 43.5439 6.84167 43.9517 6.70992C44.3595 6.57817 44.8175 6.51229 45.3257 6.51229C45.8966 6.51229 46.3986 6.60326 46.8409 6.78834C47.2801 6.97343 47.6565 7.2338 47.9733 7.5726C48.2902 7.91139 48.5286 8.31606 48.6886 8.78662C48.8015 9.116 48.8736 9.47675 48.9081 9.85947H41.5738C41.5926 9.73399 41.6146 9.60851 41.6397 9.4893C41.7401 9.02816 41.8969 8.61095 42.1134 8.24078" fill="black"/>
<path d="M40.1026 14.9948C40.4571 15.5343 40.8868 15.9923 41.395 16.3688C41.9032 16.7452 42.493 17.0401 43.1643 17.2471C43.8356 17.4542 44.5697 17.5577 45.3696 17.5577C46.477 17.5577 47.4338 17.404 48.2337 17.0965C49.0336 16.7891 49.6799 16.3374 50.1755 15.7445C50.668 15.1516 51.0225 14.4458 51.2389 13.6302L48.8831 13.2129C48.745 13.7054 48.5223 14.1258 48.2117 14.4709C47.9043 14.8159 47.5153 15.0826 47.0448 15.2677C46.5742 15.4528 46.0158 15.5437 45.3696 15.5437C44.8457 15.5437 44.3752 15.4747 43.9611 15.3367C43.5439 15.1987 43.1831 14.9947 42.8757 14.725C42.5683 14.4552 42.3079 14.1383 42.1009 13.7776C41.8938 13.4168 41.7401 12.9996 41.6397 12.5291C41.5832 12.2656 41.5456 11.9926 41.5205 11.7103H51.217C51.2641 11.5409 51.2923 11.3684 51.308 11.1896C51.3236 11.0139 51.3299 10.8319 51.3299 10.6469C51.3299 9.72144 51.1888 8.887 50.9033 8.14039C50.6178 7.39379 50.21 6.74756 49.6799 6.19859C49.1497 5.65275 48.5129 5.23239 47.7726 4.94064C47.0322 4.6489 46.2103 4.50146 45.3006 4.50146C44.5007 4.50146 43.7666 4.60498 43.1047 4.81203C42.4428 5.01907 41.8593 5.31708 41.3605 5.70293C40.8586 6.08879 40.432 6.54679 40.0775 7.07694C39.723 7.6071 39.4563 8.20627 39.2807 8.86818C39.1019 9.53009 39.014 10.2453 39.014 11.017C39.014 11.7887 39.1081 12.5071 39.2901 13.1784C39.4752 13.8497 39.745 14.452 40.0994 14.9916M42.1134 8.24705C42.3299 7.87688 42.5871 7.56319 42.8882 7.29968C43.1894 7.03931 43.5439 6.84167 43.9517 6.70992C44.3595 6.57817 44.8175 6.51229 45.3257 6.51229C45.8966 6.51229 46.3986 6.60326 46.8409 6.78834C47.2801 6.97343 47.6565 7.2338 47.9733 7.5726C48.2902 7.91139 48.5286 8.31606 48.6886 8.78662C48.8015 9.116 48.8736 9.47675 48.9081 9.85947H41.5738C41.5926 9.73399 41.6146 9.60851 41.6397 9.4893C41.7401 9.02816 41.8969 8.61095 42.1134 8.24078" fill="black" fill-opacity="0.2"/>
<path d="M56.7859 11.6667C56.7859 11.1114 56.8423 10.6032 56.9584 10.1421C57.0745 9.68094 57.2439 9.26686 57.4666 8.9061C57.6893 8.54535 57.9591 8.24106 58.276 7.99323C58.5928 7.74541 58.9473 7.56347 59.3394 7.43799C59.7315 7.31564 60.1582 7.25289 60.6224 7.25289C60.7605 7.25289 60.8953 7.25603 61.0271 7.26544C61.1589 7.27486 61.2687 7.29368 61.3628 7.32191L61.4318 4.52683C61.4318 4.52683 61.3785 4.50488 61.3157 4.50488H61.1306C60.453 4.50488 59.8099 4.6586 59.2014 4.96602C58.5928 5.27345 58.0407 5.71262 57.5513 6.28356C57.2282 6.65686 56.9521 7.07409 56.7106 7.52268L56.4659 4.73702H54.2261V17.329H56.789V11.6698L56.7859 11.6667Z" fill="black"/>
<path d="M56.7859 11.6667C56.7859 11.1114 56.8423 10.6032 56.9584 10.1421C57.0745 9.68094 57.2439 9.26686 57.4666 8.9061C57.6893 8.54535 57.9591 8.24106 58.276 7.99323C58.5928 7.74541 58.9473 7.56347 59.3394 7.43799C59.7315 7.31564 60.1582 7.25289 60.6224 7.25289C60.7605 7.25289 60.8953 7.25603 61.0271 7.26544C61.1589 7.27486 61.2687 7.29368 61.3628 7.32191L61.4318 4.52683C61.4318 4.52683 61.3785 4.50488 61.3157 4.50488H61.1306C60.453 4.50488 59.8099 4.6586 59.2014 4.96602C58.5928 5.27345 58.0407 5.71262 57.5513 6.28356C57.2282 6.65686 56.9521 7.07409 56.7106 7.52268L56.4659 4.73702H54.2261V17.329H56.789V11.6698L56.7859 11.6667Z" fill="black" fill-opacity="0.2"/>
<path d="M29.8044 24.0137C30.1965 23.8286 30.6325 23.7377 31.1093 23.7377C31.6489 23.7377 32.1069 23.8632 32.4834 24.1204C32.8598 24.3745 33.1453 24.7164 33.3366 25.1493C33.528 25.5822 33.6252 26.0873 33.6252 26.6739V34.3439H36.1882V26.1657C36.1882 25.4724 36.0972 24.8419 35.9121 24.271C35.727 23.7 35.451 23.2075 35.0808 22.7934C34.7106 22.3762 34.262 22.0625 33.7288 21.8461C33.1986 21.6296 32.5994 21.5229 31.9375 21.5229C31.4764 21.5229 31.0278 21.5794 30.598 21.6955C30.1651 21.8115 29.7667 21.9841 29.3966 22.2162C29.0264 22.4484 28.6907 22.7244 28.3927 23.0475C28.0916 23.3706 27.8343 23.7314 27.6179 24.1329C27.4171 23.5934 27.1316 23.1291 26.7646 22.7338C26.3944 22.3417 25.9521 22.0406 25.4376 21.8335C24.92 21.6265 24.3397 21.5229 23.6935 21.5229C23.0912 21.5229 22.5328 21.6202 22.0183 21.8115C21.5007 22.0029 21.0364 22.2852 20.6192 22.6554C20.202 23.0256 19.8475 23.471 19.5557 23.9949L19.3487 21.7551H17.1089V34.347H19.6718V27.4833C19.6718 26.9123 19.744 26.401 19.8914 25.9461C20.0388 25.4913 20.249 25.1023 20.5282 24.7792C20.8043 24.456 21.14 24.2019 21.5321 24.0169C21.9242 23.8318 22.3508 23.7408 22.8151 23.7408C23.386 23.7408 23.8534 23.8663 24.2236 24.1235C24.5938 24.3776 24.8793 24.7196 25.0769 25.1525C25.2777 25.5854 25.378 26.0904 25.378 26.677V34.347H27.941V27.4833C27.941 26.9123 28.0131 26.401 28.1606 25.9461C28.308 25.4913 28.5182 25.1023 28.7974 24.7792C29.0734 24.456 29.4091 24.2019 29.8012 24.0169" fill="black"/>
<path d="M29.8044 24.0137C30.1965 23.8286 30.6325 23.7377 31.1093 23.7377C31.6489 23.7377 32.1069 23.8632 32.4834 24.1204C32.8598 24.3745 33.1453 24.7164 33.3366 25.1493C33.528 25.5822 33.6252 26.0873 33.6252 26.6739V34.3439H36.1882V26.1657C36.1882 25.4724 36.0972 24.8419 35.9121 24.271C35.727 23.7 35.451 23.2075 35.0808 22.7934C34.7106 22.3762 34.262 22.0625 33.7288 21.8461C33.1986 21.6296 32.5994 21.5229 31.9375 21.5229C31.4764 21.5229 31.0278 21.5794 30.598 21.6955C30.1651 21.8115 29.7667 21.9841 29.3966 22.2162C29.0264 22.4484 28.6907 22.7244 28.3927 23.0475C28.0916 23.3706 27.8343 23.7314 27.6179 24.1329C27.4171 23.5934 27.1316 23.1291 26.7646 22.7338C26.3944 22.3417 25.9521 22.0406 25.4376 21.8335C24.92 21.6265 24.3397 21.5229 23.6935 21.5229C23.0912 21.5229 22.5328 21.6202 22.0183 21.8115C21.5007 22.0029 21.0364 22.2852 20.6192 22.6554C20.202 23.0256 19.8475 23.471 19.5557 23.9949L19.3487 21.7551H17.1089V34.347H19.6718V27.4833C19.6718 26.9123 19.744 26.401 19.8914 25.9461C20.0388 25.4913 20.249 25.1023 20.5282 24.7792C20.8043 24.456 21.14 24.2019 21.5321 24.0169C21.9242 23.8318 22.3508 23.7408 22.8151 23.7408C23.386 23.7408 23.8534 23.8663 24.2236 24.1235C24.5938 24.3776 24.8793 24.7196 25.0769 25.1525C25.2777 25.5854 25.378 26.0904 25.378 26.677V34.347H27.941V27.4833C27.941 26.9123 28.0131 26.401 28.1606 25.9461C28.308 25.4913 28.5182 25.1023 28.7974 24.7792C29.0734 24.456 29.4091 24.2019 29.8012 24.0169" fill="black" fill-opacity="0.2"/>
<path d="M49.6962 23.2167C49.1661 22.6708 48.5292 22.2505 47.7889 21.9587C47.0486 21.667 46.2267 21.5195 45.317 21.5195C44.517 21.5195 43.783 21.623 43.1211 21.8301C42.4592 22.0371 41.8757 22.3351 41.3769 22.721C40.875 23.1069 40.4483 23.5649 40.0938 24.095C39.7394 24.6252 39.4727 25.2243 39.2971 25.8862C39.1182 26.5482 39.0304 27.2634 39.0304 28.0351C39.0304 28.8068 39.1245 29.5252 39.3065 30.1965C39.4915 30.8678 39.7613 31.4701 40.1158 32.0097C40.4703 32.5492 40.9001 33.0072 41.4083 33.3837C41.9164 33.7601 42.5062 34.055 43.1775 34.2621C43.8488 34.4691 44.5829 34.5726 45.3828 34.5726C46.4902 34.5726 47.447 34.4189 48.2469 34.1115C49.0469 33.804 49.6931 33.3523 50.1887 32.7594C50.6812 32.1665 51.0357 31.4607 51.2522 30.6451L48.8963 30.2279C48.7583 30.7204 48.5355 31.1407 48.225 31.4858C47.9175 31.8309 47.5286 32.0975 47.058 32.2826C46.5875 32.4677 46.0291 32.5586 45.3828 32.5586C44.859 32.5586 44.3884 32.4896 43.9743 32.3516C43.5571 32.2136 43.1963 32.0097 42.8889 31.7399C42.5815 31.4701 42.3211 31.1533 42.1141 30.7925C41.907 30.4318 41.7533 30.0145 41.6529 29.544C41.5965 29.2805 41.5588 29.0076 41.5337 28.7252H51.2302C51.2773 28.5558 51.3055 28.3833 51.3243 28.2045C51.34 28.0288 51.3463 27.8469 51.3463 27.6618C51.3463 26.7364 51.2051 25.9019 50.9197 25.1553C50.6342 24.4087 50.2264 23.7625 49.6962 23.2135M42.1298 25.2588C42.3462 24.8887 42.6035 24.575 42.9046 24.3115C43.2058 24.0511 43.5602 23.8535 43.968 23.7217C44.3758 23.59 44.8339 23.5241 45.342 23.5241C45.913 23.5241 46.4149 23.615 46.8572 23.8001C47.2964 23.9852 47.6728 24.2456 47.9897 24.5844C48.3065 24.9232 48.5449 25.3279 48.7049 25.7984C48.8179 26.1278 48.89 26.4886 48.9245 26.8713H41.5902C41.609 26.7458 41.631 26.6203 41.6561 26.5011C41.7565 26.0399 41.9133 25.6227 42.1298 25.2526" fill="black"/>
<path d="M49.6962 23.2167C49.1661 22.6708 48.5292 22.2505 47.7889 21.9587C47.0486 21.667 46.2267 21.5195 45.317 21.5195C44.517 21.5195 43.783 21.623 43.1211 21.8301C42.4592 22.0371 41.8757 22.3351 41.3769 22.721C40.875 23.1069 40.4483 23.5649 40.0938 24.095C39.7394 24.6252 39.4727 25.2243 39.2971 25.8862C39.1182 26.5482 39.0304 27.2634 39.0304 28.0351C39.0304 28.8068 39.1245 29.5252 39.3065 30.1965C39.4915 30.8678 39.7613 31.4701 40.1158 32.0097C40.4703 32.5492 40.9001 33.0072 41.4083 33.3837C41.9164 33.7601 42.5062 34.055 43.1775 34.2621C43.8488 34.4691 44.5829 34.5726 45.3828 34.5726C46.4902 34.5726 47.447 34.4189 48.2469 34.1115C49.0469 33.804 49.6931 33.3523 50.1887 32.7594C50.6812 32.1665 51.0357 31.4607 51.2522 30.6451L48.8963 30.2279C48.7583 30.7204 48.5355 31.1407 48.225 31.4858C47.9175 31.8309 47.5286 32.0975 47.058 32.2826C46.5875 32.4677 46.0291 32.5586 45.3828 32.5586C44.859 32.5586 44.3884 32.4896 43.9743 32.3516C43.5571 32.2136 43.1963 32.0097 42.8889 31.7399C42.5815 31.4701 42.3211 31.1533 42.1141 30.7925C41.907 30.4318 41.7533 30.0145 41.6529 29.544C41.5965 29.2805 41.5588 29.0076 41.5337 28.7252H51.2302C51.2773 28.5558 51.3055 28.3833 51.3243 28.2045C51.34 28.0288 51.3463 27.8469 51.3463 27.6618C51.3463 26.7364 51.2051 25.9019 50.9197 25.1553C50.6342 24.4087 50.2264 23.7625 49.6962 23.2135M42.1298 25.2588C42.3462 24.8887 42.6035 24.575 42.9046 24.3115C43.2058 24.0511 43.5602 23.8535 43.968 23.7217C44.3758 23.59 44.8339 23.5241 45.342 23.5241C45.913 23.5241 46.4149 23.615 46.8572 23.8001C47.2964 23.9852 47.6728 24.2456 47.9897 24.5844C48.3065 24.9232 48.5449 25.3279 48.7049 25.7984C48.8179 26.1278 48.89 26.4886 48.9245 26.8713H41.5902C41.609 26.7458 41.631 26.6203 41.6561 26.5011C41.7565 26.0399 41.9133 25.6227 42.1298 25.2526" fill="black" fill-opacity="0.2"/>
<path d="M61.146 21.5171C60.4684 21.5171 59.8253 21.6708 59.2167 21.9782C58.6081 22.2857 58.056 22.7248 57.5635 23.2958C57.2404 23.6691 56.9643 24.0832 56.7228 24.5349L56.4781 21.7492H54.2383V34.3412H56.8012V28.682C56.8012 28.1268 56.8577 27.6186 56.9737 27.1574C57.0898 26.6963 57.2592 26.2822 57.4819 25.9214C57.7047 25.5607 57.9744 25.2564 58.2913 25.0086C58.6081 24.7608 58.9626 24.5788 59.3547 24.4533C59.7469 24.331 60.1735 24.2683 60.6378 24.2683C60.7758 24.2683 60.9107 24.2714 61.0424 24.2808C61.1742 24.2902 61.284 24.309 61.3781 24.3373L61.4471 21.5422C61.4471 21.5422 61.3938 21.5202 61.331 21.5202H61.146V21.5171Z" fill="black"/>
<path d="M61.146 21.5171C60.4684 21.5171 59.8253 21.6708 59.2167 21.9782C58.6081 22.2857 58.056 22.7248 57.5635 23.2958C57.2404 23.6691 56.9643 24.0832 56.7228 24.5349L56.4781 21.7492H54.2383V34.3412H56.8012V28.682C56.8012 28.1268 56.8577 27.6186 56.9737 27.1574C57.0898 26.6963 57.2592 26.2822 57.4819 25.9214C57.7047 25.5607 57.9744 25.2564 58.2913 25.0086C58.6081 24.7608 58.9626 24.5788 59.3547 24.4533C59.7469 24.331 60.1735 24.2683 60.6378 24.2683C60.7758 24.2683 60.9107 24.2714 61.0424 24.2808C61.1742 24.2902 61.284 24.309 61.3781 24.3373L61.4471 21.5422C61.4471 21.5422 61.3938 21.5202 61.331 21.5202H61.146V21.5171Z" fill="black" fill-opacity="0.2"/>
<path d="M71.5546 31.2104C71.2534 31.6339 70.8802 31.9539 70.4347 32.1704C69.9892 32.3868 69.4654 32.4935 68.8631 32.4935C68.3862 32.4935 67.9565 32.4245 67.58 32.2864C67.2036 32.1484 66.8679 31.9539 66.5762 31.7092C66.2844 31.4614 66.0397 31.154 65.8484 30.7838C65.6539 30.4136 65.5096 30.0027 65.4092 29.5478C65.3088 29.093 65.2586 28.5973 65.2586 28.0577C65.2586 27.5182 65.3088 26.9943 65.4092 26.5332C65.5096 26.072 65.6539 25.6579 65.8484 25.2972C66.0397 24.9364 66.2813 24.6321 66.5636 24.3843C66.8491 24.1365 67.1848 23.9451 67.5675 23.8071C67.9533 23.6691 68.3831 23.6001 68.8599 23.6001C69.4591 23.6001 69.983 23.713 70.4316 23.9357C70.8801 24.1585 71.244 24.4816 71.5295 24.9051C71.815 25.3286 72.0032 25.8493 72.0941 26.4641L74.5661 26.0469C74.381 25.0776 74.0422 24.2526 73.5497 23.575C73.0572 22.8974 72.4173 22.386 71.633 22.0378C70.8488 21.6928 69.9234 21.5171 68.8599 21.5171C68.0757 21.5171 67.3573 21.6143 66.7111 21.8057C66.0648 21.9971 65.4876 22.2825 64.9794 22.6621C64.4712 23.0385 64.0446 23.4965 63.6964 24.0361C63.3513 24.5757 63.0878 25.1843 62.9121 25.8618C62.7365 26.5394 62.6455 27.2704 62.6455 28.0577C62.6455 28.8451 62.7333 29.5917 62.9121 30.2537C63.091 30.9156 63.3513 31.5116 63.6964 32.0449C64.0446 32.575 64.4712 33.0299 64.9794 33.4095C65.4876 33.7859 66.0648 34.0745 66.7111 34.2753C67.3573 34.4761 68.0757 34.5765 68.8599 34.5765C69.8763 34.5765 70.7829 34.3976 71.5734 34.0463C72.3671 33.6918 73.0196 33.1774 73.5372 32.4998C74.0548 31.8222 74.4124 30.9909 74.6132 30.0058L72.1883 29.5886C72.0659 30.2505 71.8526 30.7932 71.5515 31.2167" fill="black"/>
<path d="M71.5546 31.2104C71.2534 31.6339 70.8802 31.9539 70.4347 32.1704C69.9892 32.3868 69.4654 32.4935 68.8631 32.4935C68.3862 32.4935 67.9565 32.4245 67.58 32.2864C67.2036 32.1484 66.8679 31.9539 66.5762 31.7092C66.2844 31.4614 66.0397 31.154 65.8484 30.7838C65.6539 30.4136 65.5096 30.0027 65.4092 29.5478C65.3088 29.093 65.2586 28.5973 65.2586 28.0577C65.2586 27.5182 65.3088 26.9943 65.4092 26.5332C65.5096 26.072 65.6539 25.6579 65.8484 25.2972C66.0397 24.9364 66.2813 24.6321 66.5636 24.3843C66.8491 24.1365 67.1848 23.9451 67.5675 23.8071C67.9533 23.6691 68.3831 23.6001 68.8599 23.6001C69.4591 23.6001 69.983 23.713 70.4316 23.9357C70.8801 24.1585 71.244 24.4816 71.5295 24.9051C71.815 25.3286 72.0032 25.8493 72.0941 26.4641L74.5661 26.0469C74.381 25.0776 74.0422 24.2526 73.5497 23.575C73.0572 22.8974 72.4173 22.386 71.633 22.0378C70.8488 21.6928 69.9234 21.5171 68.8599 21.5171C68.0757 21.5171 67.3573 21.6143 66.7111 21.8057C66.0648 21.9971 65.4876 22.2825 64.9794 22.6621C64.4712 23.0385 64.0446 23.4965 63.6964 24.0361C63.3513 24.5757 63.0878 25.1843 62.9121 25.8618C62.7365 26.5394 62.6455 27.2704 62.6455 28.0577C62.6455 28.8451 62.7333 29.5917 62.9121 30.2537C63.091 30.9156 63.3513 31.5116 63.6964 32.0449C64.0446 32.575 64.4712 33.0299 64.9794 33.4095C65.4876 33.7859 66.0648 34.0745 66.7111 34.2753C67.3573 34.4761 68.0757 34.5765 68.8599 34.5765C69.8763 34.5765 70.7829 34.3976 71.5734 34.0463C72.3671 33.6918 73.0196 33.1774 73.5372 32.4998C74.0548 31.8222 74.4124 30.9909 74.6132 30.0058L72.1883 29.5886C72.0659 30.2505 71.8526 30.7932 71.5515 31.2167" fill="black" fill-opacity="0.2"/>
<path d="M85.6368 28.5187C85.6368 28.9955 85.5835 29.4315 85.4737 29.8237C85.3671 30.2158 85.2165 30.5703 85.022 30.8871C84.8306 31.204 84.5954 31.4643 84.3162 31.6714C84.0401 31.8784 83.7233 32.0415 83.3688 32.1576C83.0143 32.2737 82.6284 32.3301 82.2144 32.3301C81.8003 32.3301 81.4238 32.2674 81.0945 32.1451C80.7619 32.0227 80.4859 31.8439 80.2631 31.6149C80.0404 31.3828 79.871 31.0942 79.755 30.7491C79.6389 30.404 79.5824 30.0056 79.5824 29.5602V21.7522H77.0164V29.9303C77.0164 30.655 77.1167 31.3043 77.3175 31.8815C77.5183 32.4588 77.8131 32.9481 78.2084 33.3497C78.6005 33.7512 79.0711 34.0555 79.6169 34.2625C80.1628 34.4696 80.7776 34.5731 81.4521 34.5731C81.9289 34.5731 82.3806 34.5166 82.8041 34.4006C83.2276 34.2845 83.6197 34.1245 83.9836 33.9143C84.3444 33.7073 84.6738 33.4438 84.9655 33.127C85.2573 32.8101 85.5208 32.4619 85.7498 32.076L85.9348 34.341H88.1998V21.749H85.6368V28.5187Z" fill="black"/>
<path d="M85.6368 28.5187C85.6368 28.9955 85.5835 29.4315 85.4737 29.8237C85.3671 30.2158 85.2165 30.5703 85.022 30.8871C84.8306 31.204 84.5954 31.4643 84.3162 31.6714C84.0401 31.8784 83.7233 32.0415 83.3688 32.1576C83.0143 32.2737 82.6284 32.3301 82.2144 32.3301C81.8003 32.3301 81.4238 32.2674 81.0945 32.1451C80.7619 32.0227 80.4859 31.8439 80.2631 31.6149C80.0404 31.3828 79.871 31.0942 79.755 30.7491C79.6389 30.404 79.5824 30.0056 79.5824 29.5602V21.7522H77.0164V29.9303C77.0164 30.655 77.1167 31.3043 77.3175 31.8815C77.5183 32.4588 77.8131 32.9481 78.2084 33.3497C78.6005 33.7512 79.0711 34.0555 79.6169 34.2625C80.1628 34.4696 80.7776 34.5731 81.4521 34.5731C81.9289 34.5731 82.3806 34.5166 82.8041 34.4006C83.2276 34.2845 83.6197 34.1245 83.9836 33.9143C84.3444 33.7073 84.6738 33.4438 84.9655 33.127C85.2573 32.8101 85.5208 32.4619 85.7498 32.076L85.9348 34.341H88.1998V21.749H85.6368V28.5187Z" fill="black" fill-opacity="0.2"/>
<path d="M98.9217 21.5171C98.2441 21.5171 97.601 21.6708 96.9925 21.9782C96.3839 22.2857 95.8318 22.7248 95.3393 23.2958C95.0162 23.6691 94.737 24.0863 94.4986 24.5349L94.2539 21.7492H92.014V34.3412H94.577V28.682C94.577 28.1268 94.6366 27.6186 94.7495 27.1574C94.8656 26.6963 95.035 26.2822 95.2577 25.9214C95.4805 25.5607 95.7502 25.2564 96.0671 25.0086C96.3839 24.7608 96.7353 24.5788 97.1305 24.4533C97.5226 24.331 97.9493 24.2683 98.4135 24.2683C98.5516 24.2683 98.6865 24.2714 98.8182 24.2808C98.95 24.2902 99.0598 24.309 99.1539 24.3373L99.2229 21.5422C99.2229 21.5422 99.1696 21.5202 99.1068 21.5202H98.9217V21.5171Z" fill="black"/>
<path d="M98.9217 21.5171C98.2441 21.5171 97.601 21.6708 96.9925 21.9782C96.3839 22.2857 95.8318 22.7248 95.3393 23.2958C95.0162 23.6691 94.737 24.0863 94.4986 24.5349L94.2539 21.7492H92.014V34.3412H94.577V28.682C94.577 28.1268 94.6366 27.6186 94.7495 27.1574C94.8656 26.6963 95.035 26.2822 95.2577 25.9214C95.4805 25.5607 95.7502 25.2564 96.0671 25.0086C96.3839 24.7608 96.7353 24.5788 97.1305 24.4533C97.5226 24.331 97.9493 24.2683 98.4135 24.2683C98.5516 24.2683 98.6865 24.2714 98.8182 24.2808C98.95 24.2902 99.0598 24.309 99.1539 24.3373L99.2229 21.5422C99.2229 21.5422 99.1696 21.5202 99.1068 21.5202H98.9217V21.5171Z" fill="black" fill-opacity="0.2"/>
<path d="M109.914 21.749L106.573 31.1538L102.981 21.749H100.299L105.372 34.0053L105.29 34.181C105.058 34.7362 104.841 35.2005 104.644 35.5801C104.443 35.9565 104.233 36.2577 104.007 36.4804C103.784 36.7031 103.53 36.8663 103.245 36.9666C102.959 37.067 102.623 37.1172 102.241 37.1172C102.071 37.1172 101.902 37.1078 101.733 37.0952C101.563 37.0796 101.394 37.0482 101.224 37.0043L101.34 38.9681C101.541 39.0433 101.773 39.1029 102.034 39.1406C102.294 39.1782 102.564 39.197 102.843 39.197C103.383 39.197 103.872 39.1186 104.311 38.9649C104.75 38.8112 105.143 38.5728 105.491 38.2497C105.839 37.9266 106.153 37.5093 106.438 37.0011C106.724 36.4929 107.003 35.8781 107.282 35.1534L112.458 21.7522H109.917L109.914 21.749Z" fill="black"/>
<path d="M109.914 21.749L106.573 31.1538L102.981 21.749H100.299L105.372 34.0053L105.29 34.181C105.058 34.7362 104.841 35.2005 104.644 35.5801C104.443 35.9565 104.233 36.2577 104.007 36.4804C103.784 36.7031 103.53 36.8663 103.245 36.9666C102.959 37.067 102.623 37.1172 102.241 37.1172C102.071 37.1172 101.902 37.1078 101.733 37.0952C101.563 37.0796 101.394 37.0482 101.224 37.0043L101.34 38.9681C101.541 39.0433 101.773 39.1029 102.034 39.1406C102.294 39.1782 102.564 39.197 102.843 39.197C103.383 39.197 103.872 39.1186 104.311 38.9649C104.75 38.8112 105.143 38.5728 105.491 38.2497C105.839 37.9266 106.153 37.5093 106.438 37.0011C106.724 36.4929 107.003 35.8781 107.282 35.1534L112.458 21.7522H109.917L109.914 21.749Z" fill="black" fill-opacity="0.2"/>
</svg>
