<svg width="403" height="322" viewBox="0 0 403 322" fill="none" xmlns="http://www.w3.org/2000/svg">
<path d="M38.7598 11.917H27.1182V10H38.7598V11.917ZM53.3351 11.917H41.6935V10H53.3351V11.917ZM91.6145 9.4541C91.6145 10.3005 91.4156 11.1637 91.0178 12.0439C90.62 12.9242 90.0826 13.6647 89.4055 14.2656L87.9455 13.4658C88.3518 12.8734 88.6396 12.2428 88.8088 11.5742C88.9781 10.9056 89.0627 10.2116 89.0627 9.49219V7.21973H91.6145V9.4541ZM110.506 2.87793H100.794V0.948242H110.506V2.87793ZM118.899 8.47656C118.899 7.97721 119.051 7.5498 119.356 7.19434C119.66 6.83887 120.122 6.66113 120.74 6.66113C121.349 6.66113 121.81 6.83887 122.123 7.19434C122.445 7.54134 122.606 7.96875 122.606 8.47656C122.606 8.97591 122.445 9.39486 122.123 9.7334C121.802 10.0719 121.34 10.2412 120.74 10.2412C120.13 10.2412 119.669 10.0719 119.356 9.7334C119.051 9.38639 118.899 8.96745 118.899 8.47656ZM4.16309 38.4541C4.16309 39.3005 3.96419 40.1637 3.56641 41.0439C3.16862 41.9242 2.63118 42.6647 1.9541 43.2656L0.494141 42.4658C0.900391 41.8734 1.18815 41.2428 1.35742 40.5742C1.52669 39.9056 1.61133 39.2116 1.61133 38.4922V36.2197H4.16309V38.4541ZM18.8653 20.9092L18.5987 25.5811H16.8467L16.8594 21.1123V19.5H18.8653V20.9092ZM47.8888 38.4541C47.8888 39.3005 47.6899 40.1637 47.2921 41.0439C46.8943 41.9242 46.3569 42.6647 45.6798 43.2656L44.2198 42.4658C44.6261 41.8734 44.9139 41.2428 45.0831 40.5742C45.2524 39.9056 45.337 39.2116 45.337 38.4922V36.2197H47.8888V38.4541ZM62.591 20.9092L62.3244 25.5811H60.5724L60.5851 21.1123V19.5H62.591V20.9092ZM74.1828 40.5869H72.0754L79.7941 20.5156H81.8889L74.1828 40.5869ZM103.333 40.5869H101.226L108.945 20.5156H111.039L103.333 40.5869ZM121.349 44.0527H119.457V20.5156H121.349V44.0527ZM281.093 38.4541C281.093 39.3005 280.894 40.1637 280.496 41.0439C280.098 41.9242 279.561 42.6647 278.884 43.2656L277.424 42.4658C277.83 41.8734 278.118 41.2428 278.287 40.5742C278.456 39.9056 278.541 39.2116 278.541 38.4922V36.2197H281.093V38.4541ZM299.984 31.8779H290.272V29.9482H299.984V31.8779ZM314.559 31.8779H304.848V29.9482H314.559V31.8779ZM329.135 31.8779H319.423V29.9482H329.135V31.8779ZM343.71 31.8779H333.998V29.9482H343.71V31.8779ZM352.103 37.4766C352.103 36.9772 352.255 36.5498 352.56 36.1943C352.864 35.8389 353.325 35.6611 353.943 35.6611C354.553 35.6611 355.014 35.8389 355.327 36.1943C355.649 36.5413 355.81 36.9688 355.81 37.4766C355.81 37.9759 355.649 38.3949 355.327 38.7334C355.006 39.0719 354.544 39.2412 353.943 39.2412C353.334 39.2412 352.873 39.0719 352.56 38.7334C352.255 38.3864 352.103 37.9674 352.103 37.4766ZM373.99 40.917H362.349V39H373.99V40.917ZM383.119 38.4541C383.119 39.3005 382.92 40.1637 382.522 41.0439C382.125 41.9242 381.587 42.6647 380.91 43.2656L379.45 42.4658C379.856 41.8734 380.144 41.2428 380.314 40.5742C380.483 39.9056 380.567 39.2116 380.567 38.4922V36.2197H383.119V38.4541ZM395.828 37.4766C395.828 36.9772 395.981 36.5498 396.285 36.1943C396.59 35.8389 397.051 35.6611 397.669 35.6611C398.278 35.6611 398.74 35.8389 399.053 36.1943C399.374 36.5413 399.535 36.9688 399.535 37.4766C399.535 37.9759 399.374 38.3949 399.053 38.7334C398.731 39.0719 398.27 39.2412 397.669 39.2412C397.06 39.2412 396.598 39.0719 396.285 38.7334C395.981 38.3864 395.828 37.9674 395.828 37.4766ZM4.29004 49.9092L4.02344 54.5811H2.27148L2.28418 50.1123V48.5H4.29004V49.9092ZM48.4728 73.0527H46.5812V49.5156H48.4728V73.0527ZM77.6232 73.0527H75.7316V49.5156H77.6232V73.0527ZM91.7414 49.9092L91.4748 54.5811H89.7229L89.7356 50.1123V48.5H91.7414V49.9092ZM121.349 73.0527H119.457V49.5156H121.349V73.0527ZM149.915 67.4541C149.915 68.3005 149.717 69.1637 149.319 70.0439C148.921 70.9242 148.384 71.6647 147.706 72.2656L146.246 71.4658C146.653 70.8734 146.941 70.2428 147.11 69.5742C147.279 68.9056 147.364 68.2116 147.364 67.4922V65.2197H149.915V67.4541ZM168.807 60.8779H159.095V58.9482H168.807V60.8779ZM183.382 60.8779H173.67V58.9482H183.382V60.8779ZM197.958 60.8779H188.246V58.9482H197.958V60.8779ZM206.35 66.4766C206.35 65.9772 206.503 65.5498 206.807 65.1943C207.112 64.8389 207.573 64.6611 208.191 64.6611C208.8 64.6611 209.262 64.8389 209.575 65.1943C209.896 65.5413 210.057 65.9688 210.057 66.4766C210.057 66.9759 209.896 67.3949 209.575 67.7334C209.253 68.0719 208.792 68.2412 208.191 68.2412C207.582 68.2412 207.12 68.0719 206.807 67.7334C206.503 67.3864 206.35 66.9674 206.35 66.4766ZM263.661 69.5869H261.553L269.272 49.5156H271.367L263.661 69.5869ZM321.962 69.5869H319.854L327.573 49.5156H329.668L321.962 69.5869ZM368.671 49.9092L368.404 54.5811H366.652L366.665 50.1123V48.5H368.671V49.9092ZM394.838 69.5869H392.731L400.449 49.5156H402.544L394.838 69.5869ZM4.74707 102.053H2.85547V78.5156H4.74707V102.053ZM48.4728 102.053H46.5812V78.5156H48.4728V102.053ZM106.19 96.4541C106.19 97.3005 105.991 98.1637 105.593 99.0439C105.195 99.9242 104.658 100.665 103.981 101.266L102.521 100.466C102.927 99.8734 103.215 99.2428 103.384 98.5742C103.553 97.9056 103.638 97.2116 103.638 96.4922V94.2197H106.19V96.4541ZM120.892 78.9092L120.625 83.5811H118.873L118.886 79.1123V77.5H120.892V78.9092ZM132.484 98.5869H130.376L138.095 78.5156H140.19L132.484 98.5869ZM217.561 78.5156H219.681L227.4 98.5869H225.28L217.561 78.5156ZM252.526 102.053H250.634V78.5156H252.526V102.053ZM309.012 95.4766C309.012 94.9772 309.164 94.5498 309.469 94.1943C309.773 93.8389 310.235 93.6611 310.852 93.6611C311.462 93.6611 311.923 93.8389 312.236 94.1943C312.558 94.5413 312.719 94.9688 312.719 95.4766C312.719 95.9759 312.558 96.3949 312.236 96.7334C311.915 97.0719 311.453 97.2412 310.852 97.2412C310.243 97.2412 309.782 97.0719 309.469 96.7334C309.164 96.3864 309.012 95.9674 309.012 95.4766ZM309.012 84.3555C309.012 83.8561 309.164 83.4287 309.469 83.0732C309.773 82.7178 310.235 82.54 310.852 82.54C311.462 82.54 311.923 82.7178 312.236 83.0732C312.558 83.4202 312.719 83.8477 312.719 84.3555C312.719 84.8548 312.558 85.2738 312.236 85.6123C311.915 85.9508 311.453 86.1201 310.852 86.1201C310.243 86.1201 309.782 85.9508 309.469 85.6123C309.164 85.2653 309.012 84.8464 309.012 84.3555ZM398.278 102.053H396.387V78.5156H398.278V102.053ZM4.29004 107.909L4.02344 112.581H2.27148L2.28418 108.112V106.5H4.29004V107.909ZM46.6573 124.477C46.6573 123.977 46.8097 123.55 47.1144 123.194C47.4191 122.839 47.8803 122.661 48.4982 122.661C49.1075 122.661 49.5688 122.839 49.882 123.194C50.2036 123.541 50.3644 123.969 50.3644 124.477C50.3644 124.976 50.2036 125.395 49.882 125.733C49.5603 126.072 49.0991 126.241 48.4982 126.241C47.8888 126.241 47.4275 126.072 47.1144 125.733C46.8097 125.386 46.6573 124.967 46.6573 124.477ZM46.6573 113.355C46.6573 112.856 46.8097 112.429 47.1144 112.073C47.4191 111.718 47.8803 111.54 48.4982 111.54C49.1075 111.54 49.5688 111.718 49.882 112.073C50.2036 112.42 50.3644 112.848 50.3644 113.355C50.3644 113.855 50.2036 114.274 49.882 114.612C49.5603 114.951 49.0991 115.12 48.4982 115.12C47.8888 115.12 47.4275 114.951 47.1144 114.612C46.8097 114.265 46.6573 113.846 46.6573 113.355ZM88.758 127.587H86.6506L94.3694 107.516H96.4641L88.758 127.587ZM117.909 127.587H115.801L123.52 107.516H125.615L117.909 127.587ZM190.785 127.587H188.677L196.396 107.516H198.491L190.785 127.587ZM237.951 131.053H236.059V107.516H237.951V131.053ZM252.526 131.053H250.634V107.516H252.526V131.053ZM310.827 131.053H308.935V107.516H310.827V131.053ZM337.527 124.477C337.527 123.977 337.68 123.55 337.984 123.194C338.289 122.839 338.75 122.661 339.368 122.661C339.977 122.661 340.439 122.839 340.752 123.194C341.073 123.541 341.234 123.969 341.234 124.477C341.234 124.976 341.073 125.395 340.752 125.733C340.43 126.072 339.969 126.241 339.368 126.241C338.759 126.241 338.297 126.072 337.984 125.733C337.68 125.386 337.527 124.967 337.527 124.477ZM348.738 107.516H350.858L358.577 127.587H356.457L348.738 107.516ZM395.828 124.477C395.828 123.977 395.981 123.55 396.285 123.194C396.59 122.839 397.051 122.661 397.669 122.661C398.278 122.661 398.74 122.839 399.053 123.194C399.374 123.541 399.535 123.969 399.535 124.477C399.535 124.976 399.374 125.395 399.053 125.733C398.731 126.072 398.27 126.241 397.669 126.241C397.06 126.241 396.598 126.072 396.285 125.733C395.981 125.386 395.828 124.967 395.828 124.477ZM4.74707 160.053H2.85547V136.516H4.74707V160.053ZM48.4728 160.053H46.5812V136.516H48.4728V160.053ZM77.1662 136.909L76.8996 141.581H75.1477L75.1604 137.112V135.5H77.1662V136.909ZM104.324 153.477C104.324 152.977 104.476 152.55 104.781 152.194C105.085 151.839 105.546 151.661 106.164 151.661C106.774 151.661 107.235 151.839 107.548 152.194C107.87 152.541 108.031 152.969 108.031 153.477C108.031 153.976 107.87 154.395 107.548 154.733C107.227 155.072 106.765 155.241 106.164 155.241C105.555 155.241 105.094 155.072 104.781 154.733C104.476 154.386 104.324 153.967 104.324 153.477ZM179.193 136.909L178.926 141.581H177.174L177.187 137.112V135.5H179.193V136.909ZM205.36 156.587H203.253L210.971 136.516H213.066L205.36 156.587ZM237.951 160.053H236.059V136.516H237.951V160.053ZM250.076 153.477C250.076 152.977 250.228 152.55 250.533 152.194C250.838 151.839 251.299 151.661 251.917 151.661C252.526 151.661 252.987 151.839 253.3 152.194C253.622 152.541 253.783 152.969 253.783 153.477C253.783 153.976 253.622 154.395 253.3 154.733C252.979 155.072 252.518 155.241 251.917 155.241C251.307 155.241 250.846 155.072 250.533 154.733C250.228 154.386 250.076 153.967 250.076 153.477ZM308.897 142.355C308.897 141.856 309.05 141.429 309.354 141.073C309.659 140.718 310.12 140.54 310.738 140.54C311.348 140.54 311.809 140.718 312.122 141.073C312.444 141.42 312.604 141.848 312.604 142.355C312.604 142.855 312.444 143.274 312.122 143.612C311.8 143.951 311.339 144.12 310.738 144.12C310.129 144.12 309.667 143.951 309.354 143.612C309.05 143.265 308.897 142.846 308.897 142.355ZM311.919 154.454C311.919 155.3 311.72 156.164 311.322 157.044C310.924 157.924 310.387 158.665 309.71 159.266L308.25 158.466C308.656 157.873 308.944 157.243 309.113 156.574C309.282 155.906 309.367 155.212 309.367 154.492V152.22H311.919V154.454ZM339.52 136.909L339.254 141.581H337.502L337.515 137.112V135.5H339.52V136.909ZM352.623 142.355C352.623 141.856 352.775 141.429 353.08 141.073C353.385 140.718 353.846 140.54 354.464 140.54C355.073 140.54 355.534 140.718 355.848 141.073C356.169 141.42 356.33 141.848 356.33 142.355C356.33 142.855 356.169 143.274 355.848 143.612C355.526 143.951 355.065 144.12 354.464 144.12C353.854 144.12 353.393 143.951 353.08 143.612C352.775 143.265 352.623 142.846 352.623 142.355ZM355.645 154.454C355.645 155.3 355.446 156.164 355.048 157.044C354.65 157.924 354.113 158.665 353.436 159.266L351.976 158.466C352.382 157.873 352.67 157.243 352.839 156.574C353.008 155.906 353.093 155.212 353.093 154.492V152.22H355.645V154.454ZM398.278 160.053H396.387V136.516H398.278V160.053ZM2.81738 171.355C2.81738 170.856 2.96973 170.429 3.27441 170.073C3.5791 169.718 4.04036 169.54 4.6582 169.54C5.26758 169.54 5.72884 169.718 6.04199 170.073C6.36361 170.42 6.52441 170.848 6.52441 171.355C6.52441 171.855 6.36361 172.274 6.04199 172.612C5.72038 172.951 5.25911 173.12 4.6582 173.12C4.04883 173.12 3.58757 172.951 3.27441 172.612C2.96973 172.265 2.81738 171.846 2.81738 171.355ZM5.83887 183.454C5.83887 184.3 5.63997 185.164 5.24219 186.044C4.8444 186.924 4.30697 187.665 3.62988 188.266L2.16992 187.466C2.57617 186.873 2.86393 186.243 3.0332 185.574C3.20247 184.906 3.28711 184.212 3.28711 183.492V181.22H5.83887V183.454ZM46.6573 182.477C46.6573 181.977 46.8097 181.55 47.1144 181.194C47.4191 180.839 47.8803 180.661 48.4982 180.661C49.1075 180.661 49.5688 180.839 49.882 181.194C50.2036 181.541 50.3644 181.969 50.3644 182.477C50.3644 182.976 50.2036 183.395 49.882 183.733C49.5603 184.072 49.0991 184.241 48.4982 184.241C47.8888 184.241 47.4275 184.072 47.1144 183.733C46.8097 183.386 46.6573 182.967 46.6573 182.477ZM46.6573 171.355C46.6573 170.856 46.8097 170.429 47.1144 170.073C47.4191 169.718 47.8803 169.54 48.4982 169.54C49.1075 169.54 49.5688 169.718 49.882 170.073C50.2036 170.42 50.3644 170.848 50.3644 171.355C50.3644 171.855 50.2036 172.274 49.882 172.612C49.5603 172.951 49.0991 173.12 48.4982 173.12C47.8888 173.12 47.4275 172.951 47.1144 172.612C46.8097 172.265 46.6573 171.846 46.6573 171.355ZM77.6232 189.053H75.7316V165.516H77.6232V189.053ZM106.317 165.909L106.05 170.581H104.298L104.311 166.112V164.5H106.317V165.909ZM163.145 171.355C163.145 170.856 163.297 170.429 163.602 170.073C163.907 169.718 164.368 169.54 164.986 169.54C165.595 169.54 166.056 169.718 166.37 170.073C166.691 170.42 166.852 170.848 166.852 171.355C166.852 171.855 166.691 172.274 166.37 172.612C166.048 172.951 165.587 173.12 164.986 173.12C164.376 173.12 163.915 172.951 163.602 172.612C163.297 172.265 163.145 171.846 163.145 171.355ZM166.166 183.454C166.166 184.3 165.968 185.164 165.57 186.044C165.172 186.924 164.635 187.665 163.957 188.266L162.497 187.466C162.904 186.873 163.192 186.243 163.361 185.574C163.53 184.906 163.615 184.212 163.615 183.492V181.22H166.166V183.454ZM219.935 185.587H217.828L225.546 165.516H227.641L219.935 185.587ZM237.951 189.053H236.059V165.516H237.951V189.053ZM252.069 165.909L251.802 170.581H250.05L250.063 166.112V164.5H252.069V165.909ZM308.377 182.477C308.377 181.977 308.529 181.55 308.834 181.194C309.139 180.839 309.6 180.661 310.218 180.661C310.827 180.661 311.288 180.839 311.601 181.194C311.923 181.541 312.084 181.969 312.084 182.477C312.084 182.976 311.923 183.395 311.601 183.733C311.28 184.072 310.819 184.241 310.218 184.241C309.608 184.241 309.147 184.072 308.834 183.733C308.529 183.386 308.377 182.967 308.377 182.477ZM366.678 182.477C366.678 181.977 366.83 181.55 367.135 181.194C367.439 180.839 367.901 180.661 368.519 180.661C369.128 180.661 369.589 180.839 369.902 181.194C370.224 181.541 370.385 181.969 370.385 182.477C370.385 182.976 370.224 183.395 369.902 183.733C369.581 184.072 369.119 184.241 368.519 184.241C367.909 184.241 367.448 184.072 367.135 183.733C366.83 183.386 366.678 182.967 366.678 182.477ZM398.278 189.053H396.387V165.516H398.278V189.053ZM4.74707 218.053H2.85547V194.516H4.74707V218.053ZM47.8888 212.454C47.8888 213.3 47.6899 214.164 47.2921 215.044C46.8943 215.924 46.3569 216.665 45.6798 217.266L44.2198 216.466C44.6261 215.873 44.9139 215.243 45.0831 214.574C45.2524 213.906 45.337 213.212 45.337 212.492V210.22H47.8888V212.454ZM75.6936 200.355C75.6936 199.856 75.8459 199.429 76.1506 199.073C76.4553 198.718 76.9165 198.54 77.5344 198.54C78.1438 198.54 78.605 198.718 78.9182 199.073C79.2398 199.42 79.4006 199.848 79.4006 200.355C79.4006 200.855 79.2398 201.274 78.9182 201.612C78.5966 201.951 78.1353 202.12 77.5344 202.12C76.925 202.12 76.4637 201.951 76.1506 201.612C75.8459 201.265 75.6936 200.846 75.6936 200.355ZM78.715 212.454C78.715 213.3 78.5161 214.164 78.1184 215.044C77.7206 215.924 77.1831 216.665 76.5061 217.266L75.0461 216.466C75.4523 215.873 75.7401 215.243 75.9094 214.574C76.0786 213.906 76.1633 213.212 76.1633 212.492V210.22H78.715V212.454ZM106.317 194.909L106.05 199.581H104.298L104.311 195.112V193.5H106.317V194.909ZM165.075 218.053H163.183V194.516H165.075V218.053ZM205.36 214.587H203.253L210.971 194.516H213.066L205.36 214.587ZM237.951 218.053H236.059V194.516H237.951V218.053ZM268.676 197.575H266.771L263.623 194.198H266.454L268.676 197.575ZM285.409 205.878H275.697V203.948H285.409V205.878ZM299.984 205.878H290.272V203.948H299.984V205.878ZM314.559 205.878H304.848V203.948H314.559V205.878ZM326.976 197.575H325.072L321.924 194.198H324.755L326.976 197.575ZM343.71 205.878H333.998V203.948H343.71V205.878ZM354.096 194.909L353.829 199.581H352.077L352.09 195.112V193.5H354.096V194.909ZM369.128 218.053H367.236V194.516H369.128V218.053ZM398.278 218.053H396.387V194.516H398.278V218.053ZM23.0547 234.878H13.3428V232.948H23.0547V234.878ZM37.63 234.878H27.918V232.948H37.63V234.878ZM52.2052 234.878H42.4933V232.948H52.2052V234.878ZM62.591 223.909L62.3244 228.581H60.5724L60.5851 224.112V222.5H62.591V223.909ZM106.774 247.053H104.882V223.516H106.774V247.053ZM163.259 240.477C163.259 239.977 163.412 239.55 163.716 239.194C164.021 238.839 164.482 238.661 165.1 238.661C165.709 238.661 166.171 238.839 166.484 239.194C166.805 239.541 166.966 239.969 166.966 240.477C166.966 240.976 166.805 241.395 166.484 241.733C166.162 242.072 165.701 242.241 165.1 242.241C164.491 242.241 164.029 242.072 163.716 241.733C163.412 241.386 163.259 240.967 163.259 240.477ZM163.259 229.355C163.259 228.856 163.412 228.429 163.716 228.073C164.021 227.718 164.482 227.54 165.1 227.54C165.709 227.54 166.171 227.718 166.484 228.073C166.805 228.42 166.966 228.848 166.966 229.355C166.966 229.855 166.805 230.274 166.484 230.612C166.162 230.951 165.701 231.12 165.1 231.12C164.491 231.12 164.029 230.951 163.716 230.612C163.412 230.265 163.259 229.846 163.259 229.355ZM237.951 247.053H236.059V223.516H237.951V247.053ZM264.651 240.477C264.651 239.977 264.803 239.55 265.108 239.194C265.413 238.839 265.874 238.661 266.492 238.661C267.101 238.661 267.563 238.839 267.876 239.194C268.197 239.541 268.358 239.969 268.358 240.477C268.358 240.976 268.197 241.395 267.876 241.733C267.554 242.072 267.093 242.241 266.492 242.241C265.883 242.241 265.421 242.072 265.108 241.733C264.803 241.386 264.651 240.967 264.651 240.477ZM281.219 223.909L280.953 228.581H279.201L279.214 224.112V222.5H281.219V223.909ZM301.114 243.917H289.472V242H301.114V243.917ZM315.689 243.917H304.048V242H315.689V243.917ZM321.962 243.587H319.854L327.573 223.516H329.668L321.962 243.587ZM334.163 223.516H336.283L344.002 243.587H341.882L334.163 223.516ZM359.415 243.917H347.773V242H359.415V243.917ZM367.312 240.477C367.312 239.977 367.465 239.55 367.77 239.194C368.074 238.839 368.535 238.661 369.153 238.661C369.763 238.661 370.224 238.839 370.537 239.194C370.859 239.541 371.02 239.969 371.02 240.477C371.02 240.976 370.859 241.395 370.537 241.733C370.215 242.072 369.754 242.241 369.153 242.241C368.544 242.241 368.083 242.072 367.77 241.733C367.465 241.386 367.312 240.967 367.312 240.477ZM367.312 229.355C367.312 228.856 367.465 228.429 367.77 228.073C368.074 227.718 368.535 227.54 369.153 227.54C369.763 227.54 370.224 227.718 370.537 228.073C370.859 228.42 371.02 228.848 371.02 229.355C371.02 229.855 370.859 230.274 370.537 230.612C370.215 230.951 369.754 231.12 369.153 231.12C368.544 231.12 368.083 230.951 367.77 230.612C367.465 230.265 367.312 229.846 367.312 229.355ZM398.278 247.053H396.387V223.516H398.278V247.053ZM115.534 252.516H117.655L125.373 272.587H123.253L115.534 252.516ZM173.835 252.516H175.956L183.674 272.587H181.554L173.835 252.516ZM219.935 272.587H217.828L225.546 252.516H227.641L219.935 272.587ZM267.101 276.053H265.21V252.516H267.101V276.053ZM323.587 269.477C323.587 268.977 323.739 268.55 324.044 268.194C324.349 267.839 324.81 267.661 325.428 267.661C326.037 267.661 326.498 267.839 326.811 268.194C327.133 268.541 327.294 268.969 327.294 269.477C327.294 269.976 327.133 270.395 326.811 270.733C326.49 271.072 326.029 271.241 325.428 271.241C324.818 271.241 324.357 271.072 324.044 270.733C323.739 270.386 323.587 269.967 323.587 269.477ZM323.587 258.355C323.587 257.856 323.739 257.429 324.044 257.073C324.349 256.718 324.81 256.54 325.428 256.54C326.037 256.54 326.498 256.718 326.811 257.073C327.133 257.42 327.294 257.848 327.294 258.355C327.294 258.855 327.133 259.274 326.811 259.612C326.49 259.951 326.029 260.12 325.428 260.12C324.818 260.12 324.357 259.951 324.044 259.612C323.739 259.265 323.587 258.846 323.587 258.355ZM396.463 269.477C396.463 268.977 396.615 268.55 396.92 268.194C397.225 267.839 397.686 267.661 398.304 267.661C398.913 267.661 399.374 267.839 399.688 268.194C400.009 268.541 400.17 268.969 400.17 269.477C400.17 269.976 400.009 270.395 399.688 270.733C399.366 271.072 398.905 271.241 398.304 271.241C397.694 271.241 397.233 271.072 396.92 270.733C396.615 270.386 396.463 269.967 396.463 269.477ZM396.463 258.355C396.463 257.856 396.615 257.429 396.92 257.073C397.225 256.718 397.686 256.54 398.304 256.54C398.913 256.54 399.374 256.718 399.688 257.073C400.009 257.42 400.17 257.848 400.17 258.355C400.17 258.855 400.009 259.274 399.688 259.612C399.366 259.951 398.905 260.12 398.304 260.12C397.694 260.12 397.233 259.951 396.92 259.612C396.615 259.265 396.463 258.846 396.463 258.355ZM137.498 284.575H135.594L132.446 281.198H135.277L137.498 284.575ZM154.232 292.878H144.52V290.948H154.232V292.878ZM168.807 292.878H159.095V290.948H168.807V292.878ZM183.382 292.878H173.67V290.948H183.382V292.878ZM197.958 292.878H188.246V290.948H197.958V292.878ZM208.343 281.909L208.077 286.581H206.325L206.337 282.112V280.5H208.343V281.909ZM275.862 281.516H277.982L285.701 301.587H283.581L275.862 281.516ZM334.163 281.516H336.283L344.002 301.587H341.882L334.163 281.516ZM380.263 301.587H378.155L385.874 281.516H387.969L380.263 301.587ZM297.826 313.575H295.922L292.773 310.198H295.604L297.826 313.575ZM314.559 321.878H304.848V319.948H314.559V321.878ZM329.135 321.878H319.423V319.948H329.135V321.878ZM341.552 313.575H339.647L336.499 310.198H339.33L341.552 313.575ZM358.285 321.878H348.573V319.948H358.285V321.878ZM368.671 310.909L368.404 315.581H366.652L366.665 311.112V309.5H368.671V310.909Z" fill="white"/>
</svg>
