<svg width="518" height="369" viewBox="0 0 518 369" fill="none" xmlns="http://www.w3.org/2000/svg">
<path d="M277.256 18.1719C277.256 17.5879 277.442 17.0885 277.814 16.6738C278.195 16.2591 278.741 16.0518 279.452 16.0518C280.146 16.0518 280.688 16.2591 281.077 16.6738C281.466 17.0801 281.661 17.5794 281.661 18.1719C281.661 18.7643 281.462 19.2594 281.064 19.6572C280.675 20.055 280.138 20.2539 279.452 20.2539C278.758 20.2539 278.216 20.055 277.827 19.6572C277.446 19.251 277.256 18.7559 277.256 18.1719ZM299.537 13.1064H289.317V10.6436H299.537V13.1064ZM309.072 2.1377L308.755 7.05078H306.66V2.21387V0.5H309.072V2.1377ZM323.647 2.1377L323.33 7.05078H321.235V2.21387V0.5H323.647V2.1377ZM338.223 2.1377L337.905 7.05078H335.811V2.21387V0.5H338.223V2.1377ZM357.838 13.1064H347.618V10.6436H357.838V13.1064ZM364.707 18.1719C364.707 17.5879 364.893 17.0885 365.266 16.6738C365.647 16.2591 366.192 16.0518 366.903 16.0518C367.597 16.0518 368.139 16.2591 368.528 16.6738C368.918 17.0801 369.112 17.5794 369.112 18.1719C369.112 18.7643 368.913 19.2594 368.516 19.6572C368.126 20.055 367.589 20.2539 366.903 20.2539C366.209 20.2539 365.668 20.055 365.278 19.6572C364.897 19.251 364.707 18.7559 364.707 18.1719ZM265.346 31.1377L265.029 36.0508H262.934V31.2139V29.5H265.346V31.1377ZM328.751 51.3994H317.147V49H328.751V51.3994ZM391.103 30.5156H393.908L401.17 50.5869H398.364L391.103 30.5156ZM233.53 79.5869H230.737L237.999 59.5156H240.779L233.53 79.5869ZM291.831 79.5869H289.038L296.3 59.5156H299.08L291.831 79.5869ZM311.573 62.6895H309.161L305.898 59.2236H309.339L311.573 62.6895ZM338.223 60.1377L337.905 65.0508H335.811V60.2139V58.5H338.223V60.1377ZM350.132 76.1719C350.132 75.5879 350.318 75.0885 350.69 74.6738C351.071 74.2591 351.617 74.0518 352.328 74.0518C353.022 74.0518 353.564 74.2591 353.953 74.6738C354.342 75.0801 354.537 75.5794 354.537 76.1719C354.537 76.7643 354.338 77.2594 353.94 77.6572C353.551 78.055 353.014 78.2539 352.328 78.2539C351.634 78.2539 351.092 78.055 350.703 77.6572C350.322 77.251 350.132 76.7559 350.132 76.1719ZM405.678 59.5156H408.484L415.745 79.5869H412.94L405.678 59.5156ZM0.326211 105.172C0.326211 104.588 0.512409 104.089 0.884805 103.674C1.26566 103.259 1.81156 103.052 2.5225 103.052C3.21651 103.052 3.75818 103.259 4.1475 103.674C4.53682 104.08 4.73148 104.579 4.73148 105.172C4.73148 105.764 4.53259 106.259 4.1348 106.657C3.74548 107.055 3.20805 107.254 2.5225 107.254C1.82849 107.254 1.28682 107.055 0.8975 106.657C0.516641 106.251 0.326211 105.756 0.326211 105.172ZM22.6075 100.106H12.3878V97.6436H22.6075V100.106ZM29.4767 105.172C29.4767 104.588 29.6629 104.089 30.0353 103.674C30.4161 103.259 30.962 103.052 31.673 103.052C32.367 103.052 32.9086 103.259 33.298 103.674C33.6873 104.08 33.882 104.579 33.882 105.172C33.882 105.764 33.6831 106.259 33.2853 106.657C32.896 107.055 32.3585 107.254 31.673 107.254C30.979 107.254 30.4373 107.055 30.048 106.657C29.6671 106.251 29.4767 105.756 29.4767 105.172ZM189.804 105.172C189.804 104.588 189.99 104.089 190.363 103.674C190.744 103.259 191.29 103.052 192.001 103.052C192.695 103.052 193.236 103.259 193.626 103.674C194.015 104.08 194.21 104.579 194.21 105.172C194.21 105.764 194.011 106.259 193.613 106.657C193.224 107.055 192.686 107.254 192.001 107.254C191.307 107.254 190.765 107.055 190.376 106.657C189.995 106.251 189.804 105.756 189.804 105.172ZM212.086 100.106H201.866V97.6436H212.086V100.106ZM218.955 105.172C218.955 104.588 219.141 104.089 219.513 103.674C219.894 103.259 220.44 103.052 221.151 103.052C221.845 103.052 222.387 103.259 222.776 103.674C223.165 104.08 223.36 104.579 223.36 105.172C223.36 105.764 223.161 106.259 222.763 106.657C222.374 107.055 221.837 107.254 221.151 107.254C220.457 107.254 219.915 107.055 219.526 106.657C219.145 106.251 218.955 105.756 218.955 105.172ZM280.379 112.142H278.309V88.5156H280.379V112.142ZM361.952 88.5156H364.758L372.02 108.587H369.214L361.952 88.5156ZM411.099 89.1377L410.781 94.0508H408.687V89.2139V87.5H411.099V89.1377ZM12.1466 117.516H14.9522L22.2139 137.587H19.4083L12.1466 117.516ZM41.297 117.516H44.1027L51.3644 137.587H48.5588L41.297 117.516ZM175.229 137.587H172.436L179.698 117.516H182.478L175.229 137.587ZM204.379 137.587H201.587L208.848 117.516H211.629L204.379 137.587ZM222.078 141.142H220.008V117.516H222.078V141.142ZM279.922 118.138L279.604 123.051H277.51V118.214V116.5H279.922V118.138ZM382.405 141.142H380.336V117.516H382.405V141.142ZM425.674 118.138L425.357 123.051H423.262V118.214V116.5H425.674V118.138ZM26.7218 146.516H29.5275L36.7892 166.587H33.9835L26.7218 146.516ZM55.8723 146.516H58.6779L65.9397 166.587H63.134L55.8723 146.516ZM160.654 166.587H157.861L165.123 146.516H167.903L160.654 166.587ZM189.804 166.587H187.011L194.273 146.516H197.053L189.804 166.587ZM216.2 146.516H219.006L226.267 166.587H223.462L216.2 146.516ZM289.076 146.516H291.882L299.143 166.587H296.338L289.076 146.516ZM379.282 166.587H376.489L383.751 146.516H386.531L379.282 166.587ZM408.433 166.587H405.64L412.902 146.516H415.682L408.433 166.587ZM41.297 175.516H44.1027L51.3644 195.587H48.5588L41.297 175.516ZM70.4475 175.516H73.2532L80.5149 195.587H77.7092L70.4475 175.516ZM146.079 195.587H143.286L150.547 175.516H153.328L146.079 195.587ZM175.229 195.587H172.436L179.698 175.516H182.478L175.229 195.587ZM238.697 178.689H236.285L233.022 175.224H236.463L238.697 178.689ZM248.105 192.172C248.105 191.588 248.291 191.089 248.664 190.674C249.045 190.259 249.591 190.052 250.301 190.052C250.995 190.052 251.537 190.259 251.926 190.674C252.316 191.08 252.51 191.579 252.51 192.172C252.51 192.764 252.312 193.259 251.914 193.657C251.524 194.055 250.987 194.254 250.301 194.254C249.607 194.254 249.066 194.055 248.676 193.657C248.296 193.251 248.105 192.756 248.105 192.172ZM311.573 178.689H309.161L305.898 175.224H309.339L311.573 178.689ZM335.557 192.172C335.557 191.588 335.743 191.089 336.115 190.674C336.496 190.259 337.042 190.052 337.753 190.052C338.447 190.052 338.989 190.259 339.378 190.674C339.767 191.08 339.962 191.579 339.962 192.172C339.962 192.764 339.763 193.259 339.365 193.657C338.976 194.055 338.438 194.254 337.753 194.254C337.059 194.254 336.517 194.055 336.128 193.657C335.747 193.251 335.557 192.756 335.557 192.172ZM350.132 192.172C350.132 191.588 350.318 191.089 350.69 190.674C351.071 190.259 351.617 190.052 352.328 190.052C353.022 190.052 353.564 190.259 353.953 190.674C354.342 191.08 354.537 191.579 354.537 192.172C354.537 192.764 354.338 193.259 353.94 193.657C353.551 194.055 353.014 194.254 352.328 194.254C351.634 194.254 351.092 194.055 350.703 193.657C350.322 193.251 350.132 192.756 350.132 192.172ZM367.373 176.138L367.056 181.051H364.961V176.214V174.5H367.373V176.138ZM393.858 195.587H391.065L398.326 175.516H401.107L393.858 195.587ZM416.202 196.399H404.599V194H416.202V196.399ZM489.078 196.399H477.475V194H489.078V196.399ZM55.8723 204.516H58.6779L65.9397 224.587H63.134L55.8723 204.516ZM85.0227 204.516H87.8284L95.0901 224.587H92.2845L85.0227 204.516ZM131.503 224.587H128.71L135.972 204.516H138.752L131.503 224.587ZM160.654 224.587H157.861L165.123 204.516H167.903L160.654 224.587ZM279.922 205.138L279.604 210.051H277.51V205.214V203.5H279.922V205.138ZM299.537 216.106H289.317V213.644H299.537V216.106ZM306.406 221.172C306.406 220.588 306.592 220.089 306.965 219.674C307.346 219.259 307.891 219.052 308.602 219.052C309.296 219.052 309.838 219.259 310.227 219.674C310.617 220.08 310.811 220.579 310.811 221.172C310.811 221.764 310.613 222.259 310.215 222.657C309.825 223.055 309.288 223.254 308.602 223.254C307.908 223.254 307.367 223.055 306.977 222.657C306.597 222.251 306.406 221.756 306.406 221.172ZM320.981 221.172C320.981 220.588 321.168 220.089 321.54 219.674C321.921 219.259 322.467 219.052 323.178 219.052C323.872 219.052 324.413 219.259 324.803 219.674C325.192 220.08 325.387 220.579 325.387 221.172C325.387 221.764 325.188 222.259 324.79 222.657C324.401 223.055 323.863 223.254 323.178 223.254C322.484 223.254 321.942 223.055 321.553 222.657C321.172 222.251 320.981 221.756 320.981 221.172ZM335.557 221.172C335.557 220.588 335.743 220.089 336.115 219.674C336.496 219.259 337.042 219.052 337.753 219.052C338.447 219.052 338.989 219.259 339.378 219.674C339.767 220.08 339.962 220.579 339.962 221.172C339.962 221.764 339.763 222.259 339.365 222.657C338.976 223.055 338.438 223.254 337.753 223.254C337.059 223.254 336.517 223.055 336.128 222.657C335.747 222.251 335.557 221.756 335.557 221.172ZM357.838 216.106H347.618V213.644H357.838V216.106ZM367.373 205.138L367.056 210.051H364.961V205.214V203.5H367.373V205.138ZM384.449 207.689H382.037L378.775 204.224H382.215L384.449 207.689ZM396.981 228.142H394.911V204.516H396.981V228.142ZM425.674 205.138L425.357 210.051H423.262V205.214V203.5H425.674V205.138ZM466.734 224.587H463.941L471.202 204.516H473.983L466.734 224.587ZM499.007 228.142H496.938V204.516H499.007V228.142ZM70.4475 233.516H73.2532L80.5149 253.587H77.7092L70.4475 233.516ZM107.52 236.689H105.108L101.845 233.224H105.285L107.52 236.689ZM146.079 253.587H143.286L150.547 233.516H153.328L146.079 253.587ZM379.282 250.172C379.282 249.588 379.469 249.089 379.841 248.674C380.222 248.259 380.768 248.052 381.479 248.052C382.173 248.052 382.714 248.259 383.104 248.674C383.493 249.08 383.688 249.579 383.688 250.172C383.688 250.764 383.489 251.259 383.091 251.657C382.702 252.055 382.164 252.254 381.479 252.254C380.785 252.254 380.243 252.055 379.854 251.657C379.473 251.251 379.282 250.756 379.282 250.172ZM396.524 234.138L396.206 239.051H394.111V234.214V232.5H396.524V234.138ZM426.131 257.142H424.062V233.516H426.131V257.142ZM452.158 250.172C452.158 249.588 452.345 249.089 452.717 248.674C453.098 248.259 453.644 248.052 454.355 248.052C455.049 248.052 455.59 248.259 455.98 248.674C456.369 249.08 456.564 249.579 456.564 250.172C456.564 250.764 456.365 251.259 455.967 251.657C455.578 252.055 455.04 252.254 454.355 252.254C453.661 252.254 453.119 252.055 452.73 251.657C452.349 251.251 452.158 250.756 452.158 250.172ZM469.4 234.138L469.082 239.051H466.988V234.214V232.5H469.4V234.138ZM499.007 257.142H496.938V233.516H499.007V257.142ZM85.0227 262.516H87.8284L95.0901 282.587H92.2845L85.0227 262.516ZM131.503 282.587H128.71L135.972 262.516H138.752L131.503 282.587ZM379.282 282.587H376.489L383.751 262.516H386.531L379.282 282.587ZM426.131 286.142H424.062V262.516H426.131V286.142ZM452.158 282.587H449.366L456.627 262.516H459.408L452.158 282.587ZM499.007 286.142H496.938V262.516H499.007V286.142ZM87.7776 311.587H84.9846L92.2464 291.516H95.0266L87.7776 311.587ZM116.928 311.587H114.135L121.397 291.516H124.177L116.928 311.587ZM367.83 315.142H365.761V291.516H367.83V315.142ZM428.175 294.689H425.763L422.5 291.224H425.941L428.175 294.689ZM440.249 292.138L439.932 297.051H437.837V292.214V290.5H440.249V292.138ZM452.158 308.172C452.158 307.588 452.345 307.089 452.717 306.674C453.098 306.259 453.644 306.052 454.355 306.052C455.049 306.052 455.59 306.259 455.98 306.674C456.369 307.08 456.564 307.579 456.564 308.172C456.564 308.764 456.365 309.259 455.967 309.657C455.578 310.055 455.04 310.254 454.355 310.254C453.661 310.254 453.119 310.055 452.73 309.657C452.349 309.251 452.158 308.756 452.158 308.172ZM499.007 315.142H496.938V291.516H499.007V315.142ZM32.5997 344.142H30.5304V320.516H32.5997V344.142ZM49.2189 323.689H46.8068L43.5441 320.224H46.9845L49.2189 323.689ZM66.3332 332.106H56.1135V329.644H66.3332V332.106ZM75.8684 321.138L75.551 326.051H73.4563V321.214V319.5H75.8684V321.138ZM102.353 340.587H99.5599L106.822 320.516H109.602L102.353 340.587ZM367.373 321.138L367.056 326.051H364.961V321.214V319.5H367.373V321.138ZM423.008 337.172C423.008 336.588 423.194 336.089 423.567 335.674C423.947 335.259 424.493 335.052 425.204 335.052C425.898 335.052 426.44 335.259 426.829 335.674C427.219 336.08 427.413 336.579 427.413 337.172C427.413 337.764 427.214 338.259 426.817 338.657C426.427 339.055 425.89 339.254 425.204 339.254C424.51 339.254 423.969 339.055 423.579 338.657C423.198 338.251 423.008 337.756 423.008 337.172ZM440.249 321.138L439.932 326.051H437.837V321.214V319.5H440.249V321.138ZM455.282 344.142H453.212V320.516H455.282V344.142ZM498.55 321.138L498.233 326.051H496.138V321.214V319.5H498.55V321.138ZM510.459 340.587H507.666L514.928 320.516H517.708L510.459 340.587ZM46.7179 350.138L46.4005 355.051H44.3058V350.214V348.5H46.7179V350.138ZM58.6272 366.172C58.6272 365.588 58.8133 365.089 59.1857 364.674C59.5666 364.259 60.1125 364.052 60.8234 364.052C61.5175 364.052 62.0591 364.259 62.4484 364.674C62.8378 365.08 63.0324 365.579 63.0324 366.172C63.0324 366.764 62.8335 367.259 62.4357 367.657C62.0464 368.055 61.509 368.254 60.8234 368.254C60.1294 368.254 59.5878 368.055 59.1984 367.657C58.8176 367.251 58.6272 366.756 58.6272 366.172ZM73.2024 366.172C73.2024 365.588 73.3886 365.089 73.761 364.674C74.1418 364.259 74.6877 364.052 75.3987 364.052C76.0927 364.052 76.6344 364.259 77.0237 364.674C77.413 365.08 77.6077 365.579 77.6077 366.172C77.6077 366.764 77.4088 367.259 77.011 367.657C76.6217 368.055 76.0842 368.254 75.3987 368.254C74.7047 368.254 74.163 368.055 73.7737 367.657C73.3928 367.251 73.2024 366.756 73.2024 366.172ZM90.4436 350.138L90.1263 355.051H88.0315V350.214V348.5H90.4436V350.138ZM384.449 352.689H382.037L378.775 349.224H382.215L384.449 352.689ZM401.564 361.106H391.344V358.644H401.564V361.106ZM411.099 350.138L410.781 355.051H408.687V350.214V348.5H411.099V350.138ZM457.325 352.689H454.913L451.651 349.224H455.091L457.325 352.689ZM474.44 361.106H464.22V358.644H474.44V361.106ZM489.015 361.106H478.795V358.644H489.015V361.106ZM498.55 350.138L498.233 355.051H496.138V350.214V348.5H498.55V350.138Z" fill="white"/>
</svg>
